<?xml version="1.0" standalone="no"?>
<!DOCTYPE svg PUBLIC "-//W3C//DTD SVG 1.1//EN" "http://www.w3.org/Graphics/SVG/1.1/DTD/svg11.dtd" >
<svg xmlns="http://www.w3.org/2000/svg">
<metadata></metadata>
<defs>
<font id="wiesbadenswingroman" horiz-adv-x="606" >
<font-face units-per-em="2048" ascent="1638" descent="-410" />
<missing-glyph horiz-adv-x="378" />
<glyph horiz-adv-x="2048" />
<glyph horiz-adv-x="2048" />
<glyph unicode="&#xd;" horiz-adv-x="2048" />
<glyph unicode=" "  horiz-adv-x="378" />
<glyph unicode="&#x09;" horiz-adv-x="378" />
<glyph unicode="&#xa0;" horiz-adv-x="378" />
<glyph unicode="!" horiz-adv-x="530" d="M221 430q0 124 8.5 269t14.5 161q5 10 34 18.5t41 8.5q15 0 15 -15q0 -2 -4.5 -29.5t-9 -59t-5.5 -40.5q-22 -153 -22 -282q0 -176 47 -182q10 -1 14 -2t6 -3.5t2 -7.5q0 -8 -30.5 -27.5t-40.5 -19.5q-16 0 -37 22.5t-27 53.5q-6 33 -6 135zM293 111q0 19 22 26q3 1 26 8 t28 7q14 0 14 -17v-51q5 -62 37 -78q21 -18 22 -22q0 -8 -10 -17.5t-29 -9.5q-30 0 -53 18t-34.5 44.5t-17 50.5t-5.5 41z" />
<glyph unicode="&#x22;" horiz-adv-x="417" d="M74 829q0 54 41 54q43 0 43 -54q0 -29 -6 -71l-19 -180h-37l-18 180zM242 827q0 56 43 56q41 0 41 -54q0 -21 -7 -77l-16 -174h-37l-18 178q-1 3 -3.5 33t-2.5 38z" />
<glyph unicode="#" horiz-adv-x="872" d="M6 330l25 63h182l94 262h-182l22 62h185l119 330h71l-121 -330h211l119 330h72l-121 -330h182l-22 -62h-183l-94 -262h183l-25 -63h-182l-119 -330h-72l121 330h-211l-121 -330h-69l120 330h-184zM283 393h211l96 262h-211z" />
<glyph unicode="$" horiz-adv-x="833" d="M90 330q0 23 11 37t20 17t14 3q15 0 15 -20q0 -50 1.5 -73t12 -55t33.5 -67q44 -67 138 -114.5t167 -47.5q82 0 82 105q0 58 -30 139.5t-67.5 153.5t-126.5 233q-61 113 -61 143q0 36 36 61t95 25q35 0 80 -10q34 132 43 139q15 21 59 21q9 0 17 -4t8 -10q0 -1 -10 -37 q-7 -23 -20 -61t-23 -72q38 -18 69.5 -38.5t46.5 -34.5t15 -18q0 -7 -18.5 -23.5t-24.5 -16.5q-7 0 -68 49q-93 59 -176 59q-49 0 -49 -33q0 -11 5.5 -27t22.5 -50t28.5 -55t41.5 -77q100 -181 136 -277.5t36 -172.5q0 -72 -33 -111q-22 -29 -56.5 -42t-63.5 -13 q-55 0 -123 25q-1 -5 -9 -34.5t-15 -53.5t-11 -29q-8 -15 -29 -15q-47 0 -47 17q0 8 39 145q-23 12 -30 15.5t-35 22t-42 32.5t-37.5 41.5t-35.5 55.5t-21.5 68t-9.5 85z" />
<glyph unicode="%" horiz-adv-x="909" d="M123 578q0 84 58 156.5t145 72.5q44 0 78 -26t34 -85q0 -47 -25.5 -99.5t-75.5 -92t-108 -39.5q-55 0 -80.5 33.5t-25.5 79.5zM172 -23q0 36 37 107.5t66.5 115t52.5 74.5q83 113 215.5 283t201.5 244q12 12 72 12q17 0 17 -10q0 -4 -15 -22t-20 -21 q-170 -184 -360.5 -443t-190.5 -317q0 -17 16 -25q12 -9 12 -16q0 -12 -15 -21.5t-34 -9.5q-21 0 -38 13t-17 36zM186 588q0 -32 15 -51t41 -19q49 0 94 61t45 117q0 24 -16.5 42t-45.5 18q-53 0 -93 -54t-40 -114zM496 106q0 86 57.5 159t144.5 73q44 0 78.5 -26.5 t34.5 -86.5q0 -48 -27 -101t-77 -91.5t-105 -38.5t-80.5 33t-25.5 79zM559 117q0 -33 14.5 -51.5t40.5 -18.5q50 0 95 60.5t45 117.5q0 24 -16.5 42t-45.5 18q-54 0 -93.5 -53.5t-39.5 -114.5z" />
<glyph unicode="&#x26;" horiz-adv-x="1099" d="M47 59q0 81 111 215q58 68 154 156.5t175 149.5q-49 65 -139 206q-22 -14 -31 -14q-10 0 -20 16t-10 25q0 13 31 41.5t79 60t118.5 55t137.5 23.5q79 0 134 -34.5t55 -98.5q0 -23 -6.5 -44t-26.5 -46t-36 -42.5t-56 -48.5t-64.5 -49.5t-81.5 -60.5q43 -56 71 -90 t71.5 -78.5t85.5 -76.5q60 81 104 165q15 27 21.5 34t17.5 7q12 0 20.5 -8.5t8.5 -17.5q0 -20 -34 -81.5t-89 -135.5q60 -40 133 -68q49 -16 49 -20q0 -1 -4 -9.5t-8.5 -18t-5.5 -11.5q-14 -26 -19 -32.5t-12 -6.5q-4 0 -29 9.5t-71 36t-86 60.5q-48 -48 -104 -93 t-131.5 -94t-163.5 -78.5t-171 -29.5q-74 0 -126 33.5t-52 93.5zM131 88q0 -24 11 -41.5t24.5 -26t33.5 -13t29.5 -5t20.5 -0.5q105 0 236.5 67.5t258.5 196.5q-66 61 -112.5 115.5t-114.5 148.5q-132 -105 -225 -198q-162 -155 -162 -244zM397 836q94 -151 142 -218 q130 98 174 140q45 45 45 84q0 41 -36 64.5t-89 23.5q-22 0 -50 -4t-83.5 -27t-102.5 -63z" />
<glyph unicode="'" horiz-adv-x="419" d="M168 829q0 30 13.5 42t29.5 12q41 0 41 -54q0 -9 -3 -46t-3 -38l-17 -167h-36l-19 170q-6 48 -6 81z" />
<glyph unicode="(" horiz-adv-x="681" d="M170 176q0 70 13 167.5t42 207.5t68 202.5t97 154t124 61.5q40 0 71 -24t42.5 -46.5t11.5 -32.5q0 -13 -20 -29t-29 -16q-5 0 -9 5.5t-11 21.5q-2 5 -3 8q-24 53 -55 53q-58 0 -122 -119.5t-105 -291.5t-41 -320q0 -99 21.5 -147.5t78.5 -48.5q69 0 150 86q38 38 41 38 q4 0 8 -4.5t4 -9.5q0 -13 -19.5 -41t-50 -58t-74 -52.5t-84.5 -22.5q-44 0 -75.5 24t-46.5 64.5t-21 81.5t-6 88z" />
<glyph unicode=")" horiz-adv-x="681" d="M55 164q0 24 17 24q6 0 9.5 -8.5t14.5 -44.5q36 -90 76 -124q30 -25 64 -25q62 0 124 124.5t99 293t37 303.5q0 16 -2 39.5t-8.5 66t-24.5 70.5t-45 28q-23 0 -56 -28q-1 0 -14.5 -11.5t-15.5 -11.5q-11 0 -24 24.5t-7 37.5q3 6 15 17.5t37 23.5t52 12q38 0 68 -18 t46.5 -49.5t27 -62t14.5 -70t5 -57t1 -38.5q0 -85 -22.5 -210.5t-61 -251.5t-101 -215t-132.5 -89q-45 0 -84 30t-61.5 72t-35 82t-12.5 66z" />
<glyph unicode="*" horiz-adv-x="681" d="M111 600q0 27 32 27l9 -1h15.5t10.5 1q28 7 95.5 29t88.5 28q-24 30 -52.5 59.5t-45 44t-22.5 19.5q-23 16 -28 21t-5 14q0 13 9 18.5t15 5.5q31 0 160 -145q8 16 107 168q16 26 20.5 31.5t11.5 5.5q8 0 17.5 -6.5t9.5 -14.5q0 -4 -25 -46t-56.5 -92t-37.5 -60 q110 22 187 22q34 0 45.5 -8.5t11.5 -24.5q0 -13 -8 -20.5t-19 -7.5q-2 0 -15.5 5t-14.5 5q-10 4 -29 4q-48 0 -154 -20q148 -168 148 -199q0 -9 -8.5 -15t-18.5 -6q-9 0 -43 45q-1 3 -20 27.5t-49 62t-54 64.5q-83 -140 -100 -184q-13 -34 -19.5 -42.5t-17.5 -8.5 q-9 0 -16.5 6.5t-7.5 15.5q0 25 100 203q-5 -2 -53 -19t-86.5 -29t-51.5 -12q-36 0 -36 29z" />
<glyph unicode="+" horiz-adv-x="872" d="M74 330v65h327v330h70v-330h328v-65h-328v-330h-70v330h-327z" />
<glyph unicode="," horiz-adv-x="378" d="M123 76q0 4 25.5 21.5t31.5 17.5q9 0 22 -12.5t24.5 -41t11.5 -63.5q0 -63 -27.5 -121.5t-48.5 -58.5q-7 0 -14 5.5t-7 12.5q0 15 11 37q14 51 14 76q0 53 -19 82q-1 3 -12.5 22t-11.5 23z" />
<glyph unicode="-" horiz-adv-x="681" d="M80 285q-1 15 1.5 17.5t14.5 2.5q16 0 96 -2t93 -2q3 0 135 1.5t158 0.5q18 0 22 -5.5t4 -27.5q0 -19 -7 -22.5t-39 -3.5h-5q-23 0 -130 1t-180 1.5t-124 -0.5q-28 0 -33.5 6t-5.5 33z" />
<glyph unicode="." horiz-adv-x="378" d="M139 47q0 23 17.5 40t40.5 17t40 -17t17 -40q0 -24 -16.5 -40.5t-40.5 -16.5t-41 16.5t-17 40.5z" />
<glyph unicode="/" horiz-adv-x="681" d="M78 -18q0 2 21 39.5t45 82t30 56.5q35 64 162.5 319t214.5 449q7 18 18 21t58 3q11 0 17 -0.5t8 -2.5t2.5 -3t0.5 -4q0 -2 -12 -25t-26 -49t-15 -28q-238 -432 -420 -828q-12 -29 -20.5 -35t-36.5 -6q-47 0 -47 11z" />
<glyph unicode="0" horiz-adv-x="720" d="M106 444q0 99 15 175t38.5 121.5t56.5 75t65.5 40t68.5 10.5q54 0 113 -29t104 -83q61 -76 81 -151.5t20 -178.5q0 -100 -41 -203t-120 -176.5t-173 -73.5q-97 0 -162.5 119t-65.5 354zM178 451q0 -99 14 -174.5t35 -118t49 -69.5t51 -35.5t46 -8.5q83 0 153 117.5 t70 265.5q0 51 -2.5 85t-22.5 94.5t-59 107.5q-29 36 -75 64t-97 28q-36 0 -64.5 -16.5t-45.5 -47.5t-28 -64t-16 -78t-6.5 -77.5t-1.5 -72.5z" />
<glyph unicode="1" d="M41 485q0 15 21 23q3 1 4 2q58 18 138 82t127 113t54 59q2 11 8.5 69t7.5 62q5 14 23.5 26.5t40.5 12.5q11 0 20 -7t9 -20q0 -4 -5.5 -31.5t-13 -60.5t-8.5 -39q-31 -164 -31 -426q0 -97 5.5 -157t11.5 -79.5t18 -43.5q1 -2 8.5 -14.5t13 -23t5.5 -14.5q0 -12 -18.5 -25 t-33.5 -13q-77 0 -77 354q0 205 12 346q-64 -76 -167.5 -151.5t-145.5 -75.5q-13 0 -20 11t-7 21z" />
<glyph unicode="2" horiz-adv-x="796" d="M-20 35q0 6 32.5 62.5t67.5 109.5q39 56 63 83t34 31.5t24 4.5q20 0 43 -21l55 -57q131 121 231.5 274t100.5 252q0 57 -39 57q-48 0 -113.5 -43.5t-108 -88t-46.5 -58.5q-5 -17 -9 -25.5t-16.5 -16t-32.5 -7.5q-13 0 -20.5 5.5t-8.5 9.5t-1 7q0 6 5 15t14.5 21t19 23 t24 25.5l23.5 23.5l22 22l16 16q16 16 47.5 41.5t93.5 57.5t111 32q46 0 70.5 -28t24.5 -72q0 -84 -58.5 -194.5t-134.5 -203.5t-170 -186q237 -207 369 -207q51 0 78 45q19 27 32 27q7 0 15 -6t8 -19q0 -35 -41.5 -66.5t-106.5 -31.5q-54 0 -113 21t-120.5 62t-92.5 65 t-81 65q-56 -51 -149 -107.5t-122 -56.5q-11 0 -25.5 14.5t-14.5 22.5zM51 59q47 28 94 61t70.5 52.5t32.5 28.5q-53 53 -60 61q-54 -70 -137 -203z" />
<glyph unicode="3" horiz-adv-x="909" d="M55 283q0 26 14 42.5t35 16.5q9 0 15 -5t6 -11q0 -3 -5 -17t-5 -16q0 -12 13 -42.5t44 -73t73 -80.5t108.5 -64.5t142.5 -26.5q136 0 222.5 59t86.5 154q0 72 -52 128.5t-127.5 84t-156.5 27.5q-75 0 -139 -17q-3 -1 -20.5 -7.5t-20.5 -6.5q-6 0 -20.5 18.5t-14.5 24.5 q0 5 4.5 7.5t24.5 8.5q64 25 132 57.5t133.5 71t107.5 79t42 71.5q0 22 -23.5 35.5t-64.5 13.5q-71 0 -151.5 -34t-131.5 -70.5t-91 -73.5q-37 -35 -48 -35q-9 0 -18.5 9t-9.5 18q0 8 25 34t71.5 61t102.5 67t127 54.5t137 22.5q70 0 111.5 -27.5t41.5 -70.5 q0 -60 -99.5 -133t-221.5 -125q105 2 201.5 -34t158.5 -105.5t62 -155.5q0 -65 -35 -117t-91 -82t-120 -45.5t-129 -15.5q-88 0 -166 28t-127.5 69t-85.5 88t-52 83.5t-16 57.5z" />
<glyph unicode="4" horiz-adv-x="909" d="M27 266q0 7 4.5 11.5t25.5 15.5q13 13 49 31q83 160 134 249t168 269q24 38 31.5 47.5t17.5 13.5q36 12 49 12q18 0 18 -20q0 -11 -28 -45q-81 -103 -177.5 -252.5t-134.5 -239.5q84 40 299 105q18 142 33 203q3 14 22.5 27t36 19.5t19.5 6.5q12 0 12 -12q0 -11 -18 -80 q-10 -45 -27 -142q163 37 268 37q95 0 95 -30q0 -25 -47.5 -50.5t-61.5 -25.5q-16 0 -16 22q0 13 51 33q-108 8 -297 -39q-23 -112 -23 -250q0 -76 29 -121q1 -2 10 -11t16 -17.5t7 -12.5q0 -10 -21.5 -25t-50.5 -15q-14 0 -24 12.5t-16 34.5t-10 43t-5 47.5t-1.5 38.5 t-0.5 24q0 101 16 232q-171 -45 -340 -127q-82 -47 -88 -47q-8 0 -16 10.5t-8 17.5z" />
<glyph unicode="5" horiz-adv-x="872" d="M29 92q0 14 7 24.5t19 10.5q7 0 10.5 -3.5t4.5 -7.5t2 -14q5 -33 67 -62.5t152 -29.5q75 0 156.5 25t149 66.5t111.5 100.5t44 122q0 57 -32 97t-81 58t-88.5 25.5t-71.5 7.5q-115 0 -229 -59q-71 -47 -80 -47q-7 0 -18 14.5t-11 19.5q0 7 24.5 24t41.5 25 q17 41 43 144.5t33 126.5q4 13 32 18.5t43 5.5q11 0 11 -8q0 -2 -1 -3.5t-4 -8t-6 -16.5q63 3 130 25t101.5 40.5t59.5 36.5q40 24 51 24q17 0 17 -18q0 -9 -15.5 -25.5t-48 -37.5t-75.5 -41t-106.5 -36t-133.5 -22q-41 -110 -53 -170q95 39 202 39q150 0 249.5 -68 t99.5 -163q0 -96 -86 -183.5t-214 -137.5t-253 -50q-102 0 -178 35t-76 96z" />
<glyph unicode="6" horiz-adv-x="645" d="M74 242q0 150 48.5 304t124 252.5t148.5 98.5q8 0 16 -2t17.5 -10t9.5 -21q0 -19 -12 -35t-23 -16q-3 0 -17 9t-17 9q-19 0 -56.5 -40.5t-66.5 -100.5q-55 -114 -78 -239t-23 -201q0 -19 0.5 -35.5t6 -50t14.5 -57t28 -42t46 -18.5q35 0 85 32.5t95.5 81t77.5 111.5 t32 117q0 44 -21 67t-58 23q-64 0 -129 -50.5t-86 -145.5q-7 -37 -15 -37q-10 0 -23.5 23.5t-13.5 35.5q0 16 12 43t37 58.5t58 59t79.5 46t96.5 18.5q67 0 97 -39.5t30 -99.5q0 -77 -58.5 -173t-146.5 -164t-164 -68q-151 0 -151 256z" />
<glyph unicode="7" horiz-adv-x="681" d="M66 438q0 14 47 19q34 7 209 28q0 2 23 46t70 125t97 155q-102 12 -258 -12q-60 -12 -71 -32q-3 -6 -3 -13q0 -14 17 -23q20 -15 20 -20q0 -11 -26.5 -25t-40.5 -14q-19 0 -33.5 16.5t-14.5 42.5q0 27 12 48t26.5 32.5t39 20.5t37 11.5t33.5 6.5q149 24 299 18l4 4 q24 29 35 32l6 1q45 10 76 10q12 0 12 -6q0 -4 -10 -15t-22.5 -23t-14.5 -15q-131 -150 -238 -367q64 5 97 5q20 0 44.5 -1t62.5 -4t62.5 -11t24.5 -19q0 -9 -43 -25t-51 -16q-7 0 -19 12q-28 14 -94 14q-75 0 -106 -4q-83 -162 -116.5 -276t-33.5 -166q0 -15 11 -33 q10 -17 10 -20q0 -19 -22 -27t-40 -8q-41 0 -41 57q0 80 47 215.5t109 251.5q-74 -6 -143 -18q-51 -6 -68 -6q-22 0 -22 28z" />
<glyph unicode="8" horiz-adv-x="681" d="M88 276q0 48 66 107q112 103 206 180q-45 170 -88 299q-3 7 -14.5 42.5t-11.5 37.5q0 12 15.5 21.5t29.5 9.5q12 0 17.5 -7.5t10.5 -25.5q2 -4 10.5 -28.5t10.5 -28.5q47 18 80 24q34 6 57 6q69 0 105 -30.5t36 -73.5q0 -59 -41 -111t-145 -147q90 -329 90 -457 q0 -155 -96 -155q-34 0 -85 37t-80.5 68t-74.5 81q-65 72 -81.5 98.5t-16.5 52.5zM158 285q0 -31 88 -133q7 -8 10 -11q134 -149 174 -149q10 0 16.5 5.5t11.5 27t5 61.5q0 93 -35 236q-23 95 -51 184q-62 -43 -154 -131l-9 -9q-34 -34 -45 -48.5t-11 -32.5zM352 831 q29 -89 64 -221q50 41 93.5 95.5t43.5 95.5q0 28 -22.5 45.5t-57.5 17.5q-56 0 -121 -33z" />
<glyph unicode="9" horiz-adv-x="720" d="M53 170q0 20 19 35.5t30 15.5q10 0 13.5 -8t11.5 -45q14 -63 71 -119.5t138 -56.5q145 0 201 180q43 137 43 309q0 119 -17 221q-48 -59 -74.5 -91t-73.5 -81t-81.5 -75t-78.5 -46t-83 -20q-30 0 -45.5 16t-15.5 39q0 61 139 248q91 111 154 157q56 40 102 44 q-17 34 -17 43q0 15 28.5 27t45.5 12q15 0 29 -53q53 -238 53 -408q0 -41 -2 -80.5t-9.5 -100t-20 -111t-37 -105t-57.5 -92t-84 -62t-113 -24.5q-56 0 -103.5 20.5t-77 49.5t-50.5 63t-29.5 59t-8.5 39zM184 471q0 -20 23 -20q40 0 118.5 67t143 152.5t70.5 132.5 q0 31 -31 31q-34 0 -91.5 -48t-108 -110t-87.5 -122t-37 -83z" />
<glyph unicode=":" horiz-adv-x="454" d="M129 39q0 23 17 40t40 17t40.5 -16t17.5 -41t-17.5 -41t-40.5 -16q-25 0 -41 16t-16 41zM174 397q0 25 16 41.5t41 16.5q23 0 39.5 -16.5t16.5 -41.5q0 -23 -16.5 -40t-39.5 -17q-24 0 -40.5 16.5t-16.5 40.5z" />
<glyph unicode=";" horiz-adv-x="454" d="M162 397q0 23 17 40.5t40 17.5t40 -17.5t17 -40.5q0 -24 -16.5 -40.5t-40.5 -16.5t-40.5 16.5t-16.5 40.5zM201 80q0 4 25.5 21.5t31.5 17.5q8 0 21 -12.5t24.5 -41t11.5 -63.5q0 -62 -27.5 -121t-47.5 -59q-8 0 -14.5 5.5t-6.5 12.5q0 3 4 18.5t6 18.5q13 47 13 76 q0 48 -17 82q-1 2 -7.5 12.5t-11.5 19.5t-5 13z" />
<glyph unicode="&#x3c;" horiz-adv-x="872" d="M74 330v71l725 293v-76l-641 -253l641 -254v-76z" />
<glyph unicode="=" horiz-adv-x="872" d="M74 188v64h725v-64h-725zM74 475v64h725v-64h-725z" />
<glyph unicode="&#x3e;" horiz-adv-x="872" d="M74 35v76l641 254l-641 253v76l725 -295v-71z" />
<glyph unicode="?" horiz-adv-x="757" d="M141 322q0 50 43 106.5t178 196.5q146 154 171.5 183t25.5 42q0 16 -29 16q-49 0 -109 -18t-107 -42t-79 -48.5t-32 -38.5q0 -7 10 -10t10 -11q0 -11 -12 -17.5t-27 -6.5q-24 0 -33.5 14.5t-9.5 28.5q0 21 15 41t46 40.5t46 29t47 24.5q142 68 242 68q33 0 55.5 -7 t32 -18.5t13 -20t3.5 -16.5q0 -32 -30 -68.5t-160 -164.5q-138 -138 -187 -199q-43 -53 -43 -84q0 -18 11.5 -34.5t41.5 -16.5q106 0 306 137q46 33 55 33q5 0 10.5 -4t5.5 -11q0 -15 -41 -49t-99.5 -69t-132 -61.5t-128.5 -26.5q-45 0 -77 23t-32 59zM322 115q0 19 22 24 q45 15 53 15q15 0 15 -17v-51q5 -60 37 -78q15 -8 18.5 -11t3.5 -11t-10 -16.5t-29 -8.5q-29 0 -52 17.5t-35 43.5t-17.5 50t-5.5 43z" />
<glyph unicode="@" horiz-adv-x="1175" d="M63 483q0 152 74.5 275t207 193.5t296.5 70.5q211 0 341 -116.5t130 -297.5q0 -151 -84.5 -257.5t-198.5 -106.5q-44 0 -74 24.5t-30 65.5q0 20 14 69q-11 -23 -19 -37t-28 -40t-40.5 -41.5t-54.5 -28t-73 -12.5q-80 0 -134 55.5t-54 151.5q0 75 33.5 151t99 130 t145.5 54q79 0 126.5 -47t52.5 -127l45 156h43l-84 -270q-37 -130 -37 -158q0 -27 19.5 -46.5t58.5 -19.5q91 0 166 101.5t75 232.5q0 161 -118 271t-322 110q-98 0 -185 -27.5t-151.5 -76t-111.5 -112.5t-71 -138.5t-24 -151.5q0 -90 34 -173t97.5 -149.5t164 -106.5 t222.5 -40q74 0 139.5 13t120 39t83 43t69.5 45l21 -27q-42 -30 -73.5 -48.5t-88 -44t-125 -39t-146.5 -13.5q-107 0 -198.5 28.5t-155.5 76.5t-109 112.5t-66.5 136.5t-21.5 147zM383 449q0 -80 41.5 -126.5t107.5 -46.5q57 0 104.5 36.5t75 89.5t42 104t14.5 88 q0 72 -41 116t-106 44q-66 0 -122.5 -49t-86 -118.5t-29.5 -137.5z" />
<glyph unicode="A" horiz-adv-x="1138" d="M-53 -78q0 1 6.5 7t14.5 13l7 7q90 77 170 186t132 212t90.5 202.5t55.5 167t17 96.5q0 2 -1 10.5t-1.5 13.5t0.5 9q7 12 45 28q-20 80 -20 99q0 18 27 35.5t38 17.5t11 -16q0 -47 27.5 -183.5t68.5 -279.5q100 53 207 85t147 32q27 0 27 -21q0 -14 -11 -20t-38 -11 q-149 -30 -316 -112q86 -243 187 -370.5t182 -127.5q56 0 84 33q24 24 33 24q7 0 11.5 -4.5t4.5 -9.5q0 -7 -8 -21.5t-24 -31.5t-45.5 -29t-65.5 -12q-46 0 -91.5 22.5t-80.5 54.5t-71 83t-59.5 93t-50 100t-38 88t-27.5 73q-78 -43 -165.5 -100.5t-115.5 -85.5 q-134 -227 -239 -336q-24 -25 -40 -32t-38 -7q-47 0 -47 18zM360 381q63 42 215 135q-22 71 -71 279q-18 -83 -55.5 -198.5t-88.5 -215.5z" />
<glyph unicode="B" horiz-adv-x="1251" d="M4 512q0 7 5 12.5t30 24.5q136 100 269.5 174.5t227.5 111.5t183.5 58.5t133.5 26t81 4.5q18 0 37 -1.5t54.5 -8t58 -24t22.5 -44.5q0 -16 -5 -30.5t-31.5 -47t-74.5 -76.5q-99 -87 -233 -160q7 1 22 2.5t21 2.5q16 2 51 2q147 0 252.5 -62t105.5 -158q0 -41 -26 -82.5 t-60 -71t-79 -57.5t-69 -40.5t-44 -20.5q-157 -72 -328 -72q-20 0 -55 5q-21 148 -21 339q0 156 23 463q-230 -85 -430 -247q-72 -54 -74 -54q-6 0 -26.5 11.5t-20.5 19.5zM594 316v-21q0 -21 1 -45q1 -36 3 -71.5t5.5 -72.5t8.5 -67q24 -3 50 -3q88 0 186 32 q127 42 212 112.5t85 136.5q0 16 -7.5 36t-28.5 44.5t-53 44.5t-88 33.5t-126 13.5q-131 0 -246 -63v-16q-1 -17 -1.5 -39.5t-0.5 -54.5zM600 492q184 93 309 192.5t125 144.5q0 48 -102 48q-71 0 -155.5 -19t-151.5 -49q-20 -205 -25 -317z" />
<glyph unicode="C" horiz-adv-x="757" d="M78 248q0 121 56 256t137 239t176.5 173t170.5 69q31 0 52.5 -17t21.5 -46q0 -86 -90 -181q-18 -20 -58 -56t-50 -36q-11 0 -18 9t-7 16t5.5 13.5t29.5 27.5q129 120 129 180q0 33 -33 33q-54 0 -133 -63.5t-150 -157t-121.5 -214.5t-50.5 -223q0 -96 48.5 -160.5 t146.5 -64.5q80 0 161.5 49.5t129.5 112.5q33 43 46 55t23 12q21 0 21 -22q0 -10 -20 -40t-59 -69.5t-88 -76t-117 -61.5t-136 -25q-58 0 -101.5 23.5t-66 55t-36 73t-16.5 68t-3 48.5z" />
<glyph unicode="D" horiz-adv-x="1366" d="M78 780q0 20 29.5 53.5t76.5 59.5q108 59 295 59q119 0 262 -39q56 114 91 170.5t52.5 70t39.5 13.5q18 0 32.5 -15.5t14.5 -39.5q0 -25 -19 -25q-3 0 -15.5 9.5t-14.5 9.5q-7 0 -11.5 -5.5t-15.5 -23.5q-57 -100 -96 -184q64 -26 101.5 -44t90.5 -51.5t103 -76.5 q215 -185 215 -389q0 -148 -132.5 -242t-326.5 -94q-85 0 -157 12t-131.5 38t-84 39t-71.5 42q-15 -34 -89 -166q-73 -120 -86 -135q-23 -23 -38 -23t-27 11.5t-12 25.5q0 21 20 101q23 157 23 229q0 129 -15 244q-12 84 -12 88q0 24 37 24q20 0 26.5 -10t18.5 -57 q13 -43 24 -72.5t42 -79t73 -90.5q3 7 75 147.5t153.5 300.5t103.5 205q-125 37 -242 37q-276 0 -358 -137q-2 -5 -9 -12.5t-12 -7.5q-10 0 -17 11.5t-7 18.5zM213 -109q44 71 147 269q-33 29 -58.5 61t-34 47t-25.5 49q6 -61 6 -139q0 -154 -35 -287zM432 178 q38 -24 66 -38.5t86.5 -40t130 -39t149.5 -13.5q166 0 265.5 81t99.5 196q0 72 -29 151.5t-82 145.5q-38 48 -84.5 86.5t-97.5 66.5t-83.5 42.5t-76.5 31.5l-41 -80q-234 -468 -303 -590z" />
<glyph unicode="E" horiz-adv-x="985" d="M76 190q0 112 73 268.5t216 297.5q98 95 195.5 143.5t160.5 48.5q42 0 76 -14.5t34 -34.5q0 -17 -24.5 -33t-36.5 -16q-11 0 -29 18q-17 17 -47 17q-51 0 -127 -44t-155 -118.5t-150 -188t-104 -237.5q161 96 282 145q2 1 17.5 6.5t26 9.5t29.5 10t36.5 10.5t38 9t42 6.5 t42.5 2q76 0 76 -29q0 -25 -39 -25q-85 0 -118.5 -4.5t-98.5 -29.5q-35 -12 -83 -32t-127 -65t-128 -92q1 -17 3 -32t13.5 -43.5t30.5 -48t56.5 -35t88.5 -15.5q121 0 278.5 81.5t247.5 156.5q51 41 62 41q8 0 13 -5t5 -10q0 -21 -59.5 -72.5t-147.5 -107t-205.5 -97.5 t-217.5 -42q-104 0 -158 35q-49 30 -68.5 77.5t-19.5 87.5z" />
<glyph unicode="F" horiz-adv-x="1099" d="M12 637q0 27 112.5 102.5t235.5 134.5q358 173 646 173q129 0 186 -33l4 -3q5 -3 9 -5.5t9.5 -6.5t10 -8.5t9 -10t7 -11t2.5 -11.5q0 -21 -25.5 -44t-41.5 -23q-8 0 -11 6t-10 37q-5 20 -18 32.5t-33.5 18.5t-39 8t-44.5 2q-126 0 -271 -35.5t-270 -90.5t-228 -117.5 t-163 -120.5q-29 -27 -43 -27q-13 0 -23 11.5t-10 21.5zM352 340q0 8 15 17t92 44q79 37 157 68q4 86 16 226t23 149q10 8 37.5 16t38.5 8q8 0 8 -6q0 -10 -5 -29.5t-13 -48t-18 -107t-19 -188.5q153 39 250 39q125 0 125 -49q0 -18 -15.5 -30.5t-35.5 -12.5q-24 0 -31 25 q-3 7 -5 9.5t-13 5.5t-31 3q-83 0 -246 -43q-4 -78 -4 -143q0 -334 94 -334q33 0 41 -2t8 -12q0 -19 -24.5 -26t-46.5 -7q-53 0 -85.5 49t-41 123t-11.5 162q-1 33 -1 66q0 53 3 102q-52 -18 -161 -70q-3 -1 -22.5 -9.5t-37 -17t-18.5 -8.5q-8 0 -15.5 12t-7.5 19z" />
<glyph unicode="G" horiz-adv-x="796" d="M51 -246q0 10 29 27.5t35 17.5q3 0 10.5 -17.5t16.5 -41.5t10 -27q34 -74 97 -131t125.5 -82.5t114.5 -25.5q55 0 87.5 28.5t54.5 83.5q47 107 47 267q0 118 -18 218.5t-33 139.5t-39 90q-97 -126 -211 -219q-99 -82 -184 -82q-119 0 -119 127q0 63 27 152t73 183.5 t111 187.5t136 166.5t153.5 119t158.5 45.5q19 0 31.5 -3.5t17 -10.5t5.5 -12t1 -13q0 -24 -9.5 -39.5t-18.5 -15.5q-5 0 -27 22q-16 13 -43 13q-74 0 -170.5 -84t-177 -202.5t-136.5 -254t-56 -231.5q0 -82 71 -82q63 0 148 77q86 80 180 201l-6 8t-10 11.5t-15 17.5 q-6 6 -6 14q0 9 31.5 25t38.5 16q10 0 17.5 -8.5t25.5 -40.5q116 -224 116 -506q0 -240 -90 -377q-61 -88 -176 -88q-69 0 -137.5 31.5t-118 77t-89 94t-59.5 85t-20 48.5z" />
<glyph unicode="H" horiz-adv-x="1099" d="M18 365q0 4 61.5 24.5t139 42.5t115.5 29q0 169 24 442q3 23 7.5 32.5t17.5 16.5q50 25 70 25q10 0 10 -10t-8 -40.5t-18.5 -74t-21 -144.5t-14.5 -235q146 33 332 33q81 0 111 -6q5 0 10.5 -5t5.5 -14q0 -19 -18 -38t-25 -19q-5 0 -27.5 8t-23.5 8q-50 11 -111 11 q-113 0 -254 -31q-1 -57 -1 -105q0 -85 2 -146q4 -95 18 -148.5t28 -74.5t44 -48q4 -4 4 -9q0 -4 -22.5 -23.5t-31.5 -19.5q-5 0 -10.5 1t-18.5 10.5t-24 26t-23 52t-20 84.5q-15 102 -15 283q0 47 1 100q-31 -7 -69 -18.5t-66 -20.5t-33 -10q-7 -3 -49.5 -17.5t-46.5 -14.5 q-13 0 -31.5 19t-18.5 24zM870 276q0 40 7 287t10 268q3 14 38.5 28.5t55.5 14.5q10 0 10 -10q0 -9 -4 -23.5t-10.5 -44t-11.5 -67.5q-21 -175 -21 -438q0 -91 7.5 -135t19 -58.5t41.5 -34.5q12 -7 12 -14q0 -13 -19.5 -33t-29.5 -20q-15 0 -33 14q-44 33 -58 87t-14 179z " />
<glyph unicode="I" horiz-adv-x="378" d="M166 530q0 75 3 171.5t6.5 158t4.5 62.5q3 8 35.5 25.5t46.5 17.5q10 0 15.5 -7t6.5 -14q0 -5 -4 -20.5t-8.5 -32t-5.5 -19.5q-30 -150 -30 -342q3 -273 14 -356q9 -70 26 -98q2 -3 15.5 -18.5t13.5 -18.5q0 -8 -21.5 -27.5t-35.5 -19.5q-18 0 -31.5 19.5t-18.5 39 t-12 53.5q-20 126 -20 426z" />
<glyph unicode="J" horiz-adv-x="757" d="M70 301q0 38 12 57t31 19q22 0 32.5 -20.5t10.5 -34.5q0 -8 -11 -19q-15 -11 -18.5 -16t-3.5 -15q0 -81 40.5 -195.5t114.5 -207t152 -92.5q34 0 61.5 23t47.5 87q45 142 45 363q0 171 -19 366q-12 112 -33 205q-24 4 -51 4q-71 0 -150 -23.5t-79 -39.5t41 -37 q3 -2 19 -8.5t28 -13.5t12 -11q0 -7 -14.5 -28t-26.5 -21q-29 0 -82 39.5t-53 73.5q0 43 100 86.5t234 50.5q-12 31 -33 57q-8 12 -8 17q0 14 29 27.5t45 13.5q9 0 14.5 -6.5t13.5 -30.5q35 -96 50 -207q24 -208 24 -430v-55.5t-2 -72.5t-5.5 -88t-11 -91t-17.5 -92.5 t-26 -82t-36 -69.5t-48.5 -44.5t-62.5 -17.5q-96 0 -183 96t-135 229.5t-48 254.5z" />
<glyph unicode="K" horiz-adv-x="948" d="M158 522q0 362 18 410q7 16 35.5 26.5t44.5 10.5q10 0 10 -8t-7 -49t-7 -48q-26 -201 -26 -347q0 -28 1 -54q117 104 173 166q81 89 161 205q6 10 30 49t44 72.5t22 35.5q17 10 58 10q28 0 28 -10q0 -2 -24 -40.5t-68 -101.5t-97 -133t-121 -145t-130 -127 q168 -185 339 -301t267 -116q4 0 23 2t22 2q19 0 19 -19q0 -37 -78 -37q-185 0 -498 285l-151 143l-17 -12v-20q1 -76 13 -208q14 -150 45 -188q12 -14 45 -30q10 0 10 -17q0 -13 -13 -32t-26 -19q-3 0 -9.5 2t-19 10t-24.5 20.5t-25 37.5t-22 57q-20 67 -32.5 225 t-12.5 293z" />
<glyph unicode="L" horiz-adv-x="796" d="M-49 -221q0 10 24 28l103 76q35 89 75 318t40 383q0 211 -72 280q-37 37 -37 47q0 31 72 31q35 0 59.5 -38t34.5 -98t14 -108t4 -94q0 -128 -35 -335t-77 -335q30 20 70.5 44t113.5 62t154 62.5t147 24.5q40 0 73 -7t52 -17.5t32.5 -22t18 -19.5t4.5 -12q0 -12 -20 -28.5 t-35 -16.5q-9 0 -16.5 5t-30.5 26q-39 33 -96 33q-108 0 -285 -95q-173 -93 -295 -200q-39 -31 -45 -31q-12 0 -29.5 15t-17.5 22z" />
<glyph unicode="M" horiz-adv-x="1820" d="M-51 51q0 55 61 55q43 0 43 -28q0 -18 -14 -21q-9 -2 -12.5 -3t-8.5 -3t-6.5 -5.5t-1.5 -8.5q0 -51 70.5 -126t157.5 -75q119 0 240.5 117.5t191.5 300.5q41 106 83 255t42 236q0 47 -29 107q-1 4 -9.5 23.5t-8.5 21.5q0 12 30 31.5t41 19.5q9 0 13.5 -9.5t15.5 -47.5 q47 -145 70.5 -214.5t65 -183t80.5 -194.5t81 -147q40 150 132.5 338.5t190.5 336.5q0 153 13 170q6 8 24 13.5t30.5 7.5t16.5 2q15 0 15 -14q0 -2 -5.5 -34t-10.5 -107.5t-5 -184.5q0 -383 86 -545q54 -100 123 -100q26 0 62 18q12 6 18 6q12 0 12 -14q0 -21 -35 -39 t-75 -18q-55 0 -99.5 34.5t-71 91t-46.5 127.5t-28 145q-7 74 -13 142q-5 51 -5 93q0 15 1 27q1 26 1 45.5t-1 33.5q-74 -101 -166.5 -313t-110.5 -332q0 -1 3 -8t3 -8q0 -4 -24 -38t-29 -34q-3 0 -14 13t-36.5 57t-58.5 111t-84.5 193t-109.5 285q-34 -172 -83.5 -312 t-100 -227.5t-110.5 -153t-107.5 -97.5t-97.5 -50.5t-74 -22t-44 -3.5q-49 0 -95.5 21t-79 53t-57.5 68.5t-37.5 68.5t-12.5 53z" />
<glyph unicode="N" horiz-adv-x="1478" d="M16 111q0 91 15 131q6 26 22 26q15 0 15 -16q0 -14 -4.5 -52.5t-4.5 -54.5q0 -132 58 -211q26 -33 58 -48t85 -15q74 0 140.5 37.5t113 92t88 132t66 141t45.5 134.5q86 283 98 417q-35 72 -76 117q-14 19 -14 23q0 10 28 25.5t39 15.5q5 0 8.5 -5t15.5 -26 q2 -4 3.5 -6.5l4.5 -7.5t5 -9q14 -25 24.5 -44t23 -41.5t19.5 -35.5t21 -41t21 -41.5t26.5 -52.5t29.5 -59.5t38 -77t45 -90.5q109 -222 178 -336q-6 44 -6 100q0 205 41 463t84 361q11 28 78 28q8 0 8 -6q0 -2 -6.5 -19.5t-14 -38t-8.5 -24.5q-41 -129 -77.5 -340.5 t-36.5 -459.5q0 -129 10 -158q16 -32 16 -33q0 -8 -24.5 -26.5t-36.5 -18.5q-17 0 -103 161.5t-188.5 367t-122.5 241.5q-75 -334 -151 -510q-84 -194 -205 -299.5t-258 -105.5q-56 0 -99 20.5t-68 51.5t-40.5 72.5t-21 77.5t-5.5 73z" />
<glyph unicode="O" horiz-adv-x="1214" d="M61 362q0 101 39 198t104 171.5t144.5 132.5t164.5 88.5t161 30.5q69 0 110 -22.5t41 -59.5q0 -22 -23.5 -38.5t-41.5 -16.5q-9 0 -16 6.5t-19 26.5q-41 55 -102 55q-39 0 -89 -19t-103.5 -52t-105 -83.5t-92 -108.5t-65.5 -131.5t-25 -148.5q0 -159 105.5 -274 t277.5 -115q87 0 186 38t183.5 101t140.5 155.5t56 190.5q0 52 -20 98.5t-61 86.5t-113.5 63t-168.5 23q-150 0 -272 -43q-4 -1 -31 -12t-33 -11q-8 0 -8 8q0 13 44 35t129 42t175 20q81 0 158.5 -18.5t143 -54t105.5 -95.5t40 -137q0 -88 -59 -185t-153.5 -176 t-224.5 -130.5t-260 -51.5q-92 0 -167 27.5t-121.5 70t-77.5 98.5t-43.5 110t-12.5 107z" />
<glyph unicode="P" horiz-adv-x="1099" d="M18 541q0 23 138 114q94 64 148.5 99t151 84.5t181.5 74.5q180 54 313 54q13 0 25 -0.5t38 -3.5t46 -10.5t41 -19.5t33 -33t12 -48q0 -75 -71.5 -170.5t-178.5 -175.5q-94 -70 -158.5 -93t-146.5 -30q-1 -28 -1 -54q1 -13 1 -25q0 -37 2 -72t3.5 -59t3 -40.5t1.5 -17.5 q10 -90 49 -90q16 0 33 14q17 12 27 12q20 0 20 -18q0 -20 -28.5 -42t-63.5 -22q-28 0 -48.5 13.5t-31.5 40t-16.5 49.5t-10.5 57q-10 85 -10 274q0 163 23 426q-96 -46 -186 -100t-142 -91t-141 -103q-14 -11 -31 -11q-25 0 -25 17zM592 438q45 4 75.5 10t86 30.5 t112.5 68.5q67 52 134 138.5t67 148.5q0 41 -28 60t-101 19q-60 0 -155.5 -16.5t-155.5 -36.5q-35 -174 -35 -422z" />
<glyph unicode="Q" horiz-adv-x="1214" d="M59 362q0 101 39 198t104 171.5t144.5 132.5t164.5 88.5t161 30.5q69 0 110 -22.5t41 -59.5q0 -22 -23.5 -38.5t-41.5 -16.5q-9 0 -16 6.5t-19 26.5q-41 55 -102 55q-39 0 -89 -19t-103.5 -52t-105 -83.5t-92 -108.5t-65.5 -131.5t-25 -148.5q0 -74 26 -143t73.5 -124.5 t122 -88.5t165.5 -33q15 0 27.5 0.5t26 2.5t21.5 3t23 5t20 5t23.5 6.5t22.5 6.5q-8 7 -35.5 28t-58.5 45t-35 27q-20 20 -20 23q0 9 31 32t44 23q12 0 19 -10l139 -131q155 81 234.5 191.5t79.5 227.5q0 52 -20 98.5t-61 86.5t-113.5 63t-168.5 23q-150 0 -272 -43 q-4 -1 -31 -12t-33 -11q-8 0 -8 8q0 13 44 35t129 42t175 20q121 0 222 -35t163 -104t62 -158q0 -70 -30.5 -139.5t-73 -120.5t-96.5 -96.5t-93 -70t-70 -40.5l139 -117q122 -92 209 -92q3 0 22.5 3t22.5 3q11 0 11 -12q0 -13 -20.5 -26t-55.5 -13q-46 0 -98 18.5t-110 55 t-98.5 66.5t-99.5 77q-80 -29 -164 -41q-45 -6 -92 -6q-92 0 -166 27t-120.5 69.5t-78 98.5t-44.5 110t-13 108z" />
<glyph unicode="R" horiz-adv-x="1327" d="M12 528q0 5 6 15.5t24.5 31.5t47 44.5t80.5 56.5t117 65q379 185 692 185q37 0 71 -3t86.5 -13t84.5 -36.5t32 -66.5q0 -72 -82.5 -156.5t-195 -145.5t-209.5 -81q73 -88 154.5 -158.5t145.5 -110t122 -66t89.5 -35.5t43.5 -9q30 0 35.5 -1.5t5.5 -10.5q0 -17 -26 -27 t-46 -10q-60 0 -206.5 77t-268.5 189q-52 47 -94.5 97t-60 76t-17.5 30q0 10 31.5 18.5t40.5 8.5q5 0 8.5 -4t13.5 -21h5q62 0 160 51q102 53 180.5 130.5t78.5 135.5q0 29 -19 49.5t-50 29t-56.5 11.5t-52.5 3q-75 0 -164.5 -11.5t-150.5 -31.5q-52 -176 -83.5 -410 t-31.5 -346q0 -57 6 -98q10 -30 10 -39q0 -13 -13 -22t-28 -9q-20 0 -29.5 10t-13.5 39q-2 25 -2 96q0 102 16 245.5t31.5 241.5t44.5 265q-169 -57 -309 -134t-186 -143q-18 -26 -37 -26q-13 0 -22 8t-9 16z" />
<glyph unicode="S" horiz-adv-x="796" d="M25 322q0 30 19.5 48.5t49.5 18.5q45 0 45 -22q0 -13 -18 -13q-49 0 -49 -35q0 -71 164 -245q65 -67 123 -104.5t122 -37.5q40 0 66 29t26 117q0 69 -20.5 159.5t-41.5 154.5t-75 220l-51 144q-41 121 -41 149q0 41 40 64.5t97 23.5q78 0 170 -39.5t150.5 -88t58.5 -77.5 q0 -19 -26.5 -40t-42.5 -21q-9 0 -18 9t-9 18q0 2 2 13t2 13q0 23 -42.5 61t-111 69.5t-129.5 31.5q-53 0 -53 -35q0 -33 31 -132t45 -134q52 -150 72.5 -213.5t43.5 -165t23 -174.5q0 -97 -39.5 -156t-128.5 -59q-73 0 -157.5 54t-148 127.5t-106 149t-42.5 118.5z" />
<glyph unicode="T" horiz-adv-x="948" d="M55 602q0 7 21 34.5t83.5 83t147.5 109.5q157 99 330.5 158.5t325.5 59.5q153 0 153 -48q0 -14 -25 -45.5t-38 -31.5q-14 0 -19 24q-5 23 -22.5 35t-63.5 12q-97 0 -214 -29t-199 -69q100 -303 100 -627q0 -24 -0.5 -43.5t-3.5 -57.5t-8.5 -67.5t-17 -65t-27 -59 t-40 -39.5t-55.5 -16q-42 0 -76.5 28.5t-53.5 68t-32 86.5t-17.5 79.5t-4.5 50.5q0 33 23 33q12 0 15 -6t7 -35q16 -95 42.5 -156.5t49 -81.5t43.5 -20q23 0 41 23.5t27 56t15 75.5t7.5 73t1.5 57q0 333 -108 610q-245 -132 -336 -260q-11 -16 -17 -20t-14 -4q-11 0 -26 7.5 t-15 16.5z" />
<glyph unicode="U" horiz-adv-x="1290" d="M47 608q0 146 203 228q136 54 338 71q0 58 4 62q6 10 33.5 23.5t42.5 13.5q5 0 10.5 -4t5.5 -13q0 -4 -3 -23t-6.5 -42t-4.5 -27q-90 -655 -90 -899q0 -55 5 -70.5t19 -15.5q42 0 148 172t194 363t88 245q0 10 -3 38t-7.5 60.5t-9 63.5t-7.5 52l-3 22q0 15 33 30t48 15 q10 0 12.5 -19t2.5 -98q17 -623 94 -766q15 -27 57 -41q22 -11 23 -14q0 -9 -19 -35.5t-36 -26.5q-9 0 -20.5 3t-37 28t-43.5 70q-47 120 -76 473q-27 -65 -62.5 -144.5t-106.5 -214.5t-134 -221q-82 -112 -157 -112q-42 0 -55 26.5t-13 91.5q0 115 21 351q3 44 25.5 265.5 t25.5 256.5q-82 -2 -163.5 -15.5t-156.5 -39t-121.5 -70t-46.5 -100.5q0 -41 24 -71t48 -30q14 0 17 -1.5t3 -10.5q0 -6 -1.5 -15t-10 -20.5t-22.5 -11.5q-34 0 -71.5 43t-37.5 104z" />
<glyph unicode="V" horiz-adv-x="1138" d="M66 539q0 35 9.5 69.5t31.5 71t62.5 71t96.5 60.5q102 46 297 74q1 3 2.5 29.5t3.5 29.5q4 9 24 26t34 17q20 0 20 -24q0 -30 -6 -54q-12 -113 -12 -276q0 -311 47 -504q22 -82 46.5 -125t63.5 -43q17 0 30 6t33.5 34.5t41.5 80.5q14 33 29.5 78.5t36 145.5t20.5 190 q0 159 -53 243q-2 4 -12 16t-18.5 23t-8.5 15q0 9 25 21.5t36 12.5q10 0 22.5 -11.5t27 -36.5t26.5 -59t19.5 -84t7.5 -106q0 -93 -27 -221t-80 -250q-26 -59 -51.5 -96.5t-48 -52.5t-36.5 -19t-32 -4q-124 0 -172 289q-40 217 -40 540q0 49 1 101q-108 -2 -191 -22 t-130 -48.5t-77 -66t-40 -70t-10 -65.5q0 -72 39 -118t67 -46q2 0 13.5 2t13.5 2q18 0 18 -25q0 -15 -11.5 -28t-33.5 -13q-53 0 -104 66t-51 154z" />
<glyph unicode="W" horiz-adv-x="1214" d="M45 -162q0 10 12 90.5t49 264.5t87 378l112 426q4 8 39.5 19.5t46.5 11.5q4 0 7 -3t3 -5q0 -3 -18 -51q-65 -171 -130.5 -427.5t-99.5 -428.5t-34 -197q0 -8 6 -8q16 0 126.5 181t197.5 335q62 111 83 153t21 60q0 3 -4 19l-4 16q0 14 38.5 33.5t57.5 19.5q14 0 14 -16 l-2 -99q0 -48 19.5 -174t50.5 -223q38 -118 72.5 -157.5t87.5 -39.5q76 0 125 88t49 213q0 81 -19.5 161.5t-48 137t-60 92t-55.5 35.5q-2 0 -13 -3t-13 -3q-8 0 -22.5 17.5t-14.5 36.5q0 26 35 26q57 0 112 -53t92 -130.5t60 -164t23 -156.5q0 -91 -32.5 -171.5 t-94.5 -131.5t-138 -51q-46 0 -82 19t-60 55t-38.5 67.5t-28.5 75.5q-5 14 -8 23.5t-7 23t-6 21.5t-6 27t-6 29.5t-7.5 39.5t-9 47.5t-11.5 63.5t-14 77q-9 -13 -174 -287t-203 -327q-51 -72 -75.5 -90.5t-51.5 -18.5q-35 0 -35 33z" />
<glyph unicode="X" horiz-adv-x="985" d="M63 -416q0 96 113 386t219 458q-146 227 -223 338q-45 56 -45 61q0 6 33 25.5t45 19.5q9 0 16 -14q13 -21 88.5 -144t89.5 -145q14 -24 43 -69q27 40 44.5 64.5t57 76.5t71.5 87t79.5 80t89.5 72t92 46.5t97 19.5q106 0 106 -108q0 -47 -20 -47q-6 0 -11.5 6.5 t-17.5 27.5q-16 31 -35 47.5t-51 16.5q-47 0 -104.5 -33.5t-108 -81.5t-104 -112t-88.5 -113.5t-66 -97.5q34 -50 62 -87t80 -97.5t118 -116t139 -99.5q20 -11 26.5 -17t6.5 -14q0 -10 -7.5 -17t-20.5 -7q-64 0 -192.5 104.5t-254.5 280.5q-70 -111 -163 -338t-120 -414 q-10 -61 -20 -71q-10 -11 -29 -11q-17 0 -26 11t-9 26z" />
<glyph unicode="Y" horiz-adv-x="1099" d="M49 664q0 34 20 64.5t58 53.5t80.5 42t100.5 34.5t104.5 25.5t105.5 21q-8 16 -8 29t30.5 23t43.5 10q10 0 13.5 -7t4.5 -34q2 -40 6 -225t4 -199q16 -335 25 -398q0 -22 12 -22t45 59q31 48 95 182.5t106 276.5q-29 72 -37 88q-1 4 -10.5 22.5t-9.5 20.5q0 11 32 28 t41 17q11 0 18 -13.5t21 -70.5q60 -225 60 -475q0 -42 -3 -95t-21 -157t-50 -186q-73 -203 -246 -203q-113 0 -200.5 75.5t-141.5 194.5q-22 48 -41.5 129.5t-19.5 126.5q0 19 19 30t44 11q19 0 19 -18q0 -5 -3.5 -33.5t-3.5 -32.5q0 -111 48.5 -212.5t125.5 -161.5t158 -60 q50 0 90.5 26.5t66 67t45 97t29 107.5t15.5 108t7 89t1 60q0 181 -33 305q-24 -66 -82 -192.5t-108 -208.5q-29 -45 -50 -63.5t-48 -18.5q-31 0 -41.5 24t-16.5 105q-4 50 -21.5 354t-21.5 359q-76 -1 -172 -24t-169.5 -62.5t-73.5 -79.5q0 -12 6.5 -21t10.5 -10.5t13 -5.5 q17 -5 24 -10.5t7 -16.5q0 -14 -10.5 -23t-30.5 -9q-32 0 -57 23.5t-25 58.5z" />
<glyph unicode="Z" horiz-adv-x="1175" d="M29 25q0 6 22 55q80 182 86 328q0 12 3.5 16.5t15.5 7.5q33 6 41 6q14 0 53 -24q14 -7 54 -31t83 -50.5t51 -31.5q126 121 166 168q-50 -8 -98 -8q-45 0 -45 24q0 21 37 21q116 8 153 12q61 73 87.5 105t56 72.5t53.5 80.5q7 11 10.5 15t17.5 8t39 4q39 0 39 -17 q0 -6 -19 -30.5t-50.5 -61t-59.5 -68t-58 -65t-34 -37.5q90 8 195 21q6 0 40 4t40 4q24 0 24 -23q0 -32 -57 -32q-47 -2 -285 -21q-55 -57 -203 -209q335 -219 537 -219q37 0 57 8q20 11 29 11q14 0 48 -7t34 -20q0 -9 -21.5 -20.5t-62 -20t-84.5 -8.5q-74 0 -152 19.5 t-162 60t-135.5 70t-136.5 81.5q-100 -88 -180.5 -147t-118.5 -79t-53 -20t-36 18t-21 30zM102 39q68 37 179 125l106 92q-13 7 -87.5 54t-96.5 63q-31 -185 -101 -334zM324 680q0 110 102 180q98 68 299 68q84 0 180 -11.5t96 -27.5q0 -10 -23 -28.5t-30 -18.5 q-2 0 -27.5 9.5t-31.5 12.5q-58 17 -158 17q-194 0 -272 -68q-26 -21 -44 -54t-18 -65q0 -25 15 -49q14 -29 14 -35q0 -16 -41 -16q-61 0 -61 86z" />
<glyph unicode="[" horiz-adv-x="681" d="M145 -33q0 5 35 19q-30 113 -30 254q0 283 98 718q155 60 278 60q58 0 121.5 -13.5t63.5 -39.5q0 -12 -9.5 -18.5t-17.5 -6.5q-5 0 -32 7t-31 7q-39 11 -89 11q-125 0 -215 -45q-24 -85 -60 -293.5t-36 -366.5q0 -130 27 -256q122 37 217 37q83 0 156 -8q9 0 18.5 -4.5 t9.5 -12.5q0 -15 -12.5 -17.5t-69.5 -2.5q-113 0 -171 -8.5t-134 -38.5q-4 -2 -18.5 -9t-27.5 -13.5t-15 -6.5q-8 0 -32 22t-24 25z" />
<glyph unicode="\" horiz-adv-x="681" d="M27 942q0 3 0.5 4.5t7.5 3.5t20 2q47 0 58.5 -4t17.5 -20q87 -194 214.5 -449t162.5 -319q6 -12 30 -56.5t45 -82t21 -39.5q0 -11 -41 -11q-32 0 -40 3.5t-17 21.5q-147 317 -225 467q-199 373 -246 459q-8 16 -8 20z" />
<glyph unicode="]" horiz-adv-x="681" d="M-12 -27q0 12 9.5 18.5t16.5 6.5q8 0 64 -14q32 -9 88 -9q125 0 215 43q23 72 59.5 286t36.5 374q0 146 -26 258q-121 -39 -218 -39q-41 0 -155 8q-10 0 -19.5 5t-9.5 14q0 13 12.5 15.5t69.5 2.5q113 0 171 9t134 40q4 2 19.5 8.5t28.5 12.5t14 6q8 0 31.5 -21t23.5 -24 q0 -7 -35 -21q31 -111 31 -254q0 -283 -98 -718q-55 -20 -85 -29.5t-85 -20t-109 -10.5q-58 0 -121 13.5t-63 39.5z" />
<glyph unicode="^" horiz-adv-x="872" d="M156 438l243 609h72l246 -609h-70l-211 529l-211 -529h-69z" />
<glyph unicode="_" horiz-adv-x="1024" d="M0 -154h1024v-102h-1024v102z" />
<glyph unicode="`" horiz-adv-x="303" d="M66 803q0 22 24 22q11 0 28.5 -10t33 -21.5t47.5 -37.5q47 -36 62 -51t15 -27q0 -9 -6.5 -16t-15.5 -7t-27 12.5t-90 67.5q-16 13 -32 25.5t-21.5 17t-7.5 6.5q-10 7 -10 19z" />
<glyph unicode="a" d="M39 47q0 48 35.5 129.5t85 157.5t108 132t99.5 56q6 0 14 -4q0 2 -4 20.5t-7 33t-3 16.5q0 18 21.5 28.5t37.5 10.5q23 0 23 -29q0 -135 31 -313.5t69 -227.5q1 -2 23 -18t22 -21q0 -8 -9 -17t-22 -9q-69 0 -100 104q-38 112 -57 258q-19 -33 -55.5 -86.5t-85 -117 t-96.5 -108t-77 -44.5q-16 0 -34.5 11t-18.5 38zM98 76q0 -13 8 -13q19 0 88 82t130 173t61 114q0 13 -8 22t-21 9q-36 0 -99.5 -82t-111 -175.5t-47.5 -129.5z" />
<glyph unicode="b" horiz-adv-x="569" d="M94 416q0 95 13 266.5t18 183.5q5 11 31 25t43 14q16 0 16 -16q-21 -91 -25 -103q-16 -79 -24.5 -153.5t-10.5 -118.5t-5 -129q49 82 118.5 132t132.5 50q52 0 78.5 -34t26.5 -95q0 -75 -46 -184.5t-110 -191.5t-110 -82q-18 0 -35.5 9.5t-38.5 38.5t-36 75t-25.5 127 t-10.5 186zM164 254q0 -62 22.5 -135.5t61.5 -73.5q32 0 81 71.5t84.5 164t35.5 149.5q0 35 -17.5 56.5t-48.5 21.5q-24 0 -56 -18t-48 -31.5t-25 -22.5q-39 -37 -60 -73.5t-25.5 -58.5t-4.5 -50z" />
<glyph unicode="c" horiz-adv-x="417" d="M41 141q0 93 43 192t105.5 162.5t117.5 63.5q21 0 35 -9t14 -26q0 -21 -20.5 -44t-38.5 -23q-14 0 -14 10q0 3 7 17.5t7 17.5q0 6 -8 6q-15 0 -44.5 -30.5t-59.5 -78t-52 -115t-22 -130.5q0 -111 55 -111q31 0 62 23t77 77l68 86q13 13 20 13q3 0 6.5 -1t7 -6t3.5 -12 q0 -9 -21.5 -45.5t-55 -79.5t-82.5 -76.5t-95 -33.5q-115 0 -115 153z" />
<glyph unicode="d" horiz-adv-x="645" d="M43 39q0 81 63 199.5t152 207.5t154 89q15 0 30 -11q-8 212 -8 320q0 36 2.5 46t14.5 17q22 17 45 17q28 0 28 -15l-12 -84q-12 -110 -12 -227q0 -232 37 -428q7 -34 11.5 -51.5t12.5 -41t18.5 -34t24.5 -10.5h11.5t6.5 -1t4 -3t1 -6q0 -10 -15 -23.5t-34 -13.5 q-20 0 -36 12t-27 35t-16.5 38.5t-11.5 39.5q-19 74 -36 249q-60 -130 -178 -252t-183 -122q-23 0 -35 14.5t-12 38.5zM102 68q0 -21 15 -21q30 0 104 78.5t137.5 175.5t63.5 141q0 10 -7 21.5t-22 11.5q-31 0 -91.5 -58.5t-106.5 -129.5q-38 -60 -65.5 -126.5t-27.5 -92.5z " />
<glyph unicode="e" horiz-adv-x="454" d="M70 182q0 57 13 123t37 128.5t65 103.5t91 41q26 0 47 -16t21 -56q0 -71 -57.5 -160.5t-149.5 -148.5q0 -10 -1 -19q0 -28 5 -52q6 -32 27.5 -57.5t56.5 -25.5q64 0 178 92q37 31 50 31q6 0 10 -5t4 -11q0 -18 -41 -56q-118 -106 -211 -106q-36 0 -63.5 14t-42.5 34 t-24.5 48t-12 50.5t-2.5 47.5zM137 264q55 36 101.5 110t46.5 113q0 33 -25 33q-36 0 -73.5 -87t-49.5 -169z" />
<glyph unicode="f" horiz-adv-x="454" d="M27 397q0 9 21.5 23t131.5 72q0 76 2 124t13.5 113t33.5 113q48 104 125 104q7 0 15.5 -2t18 -10t9.5 -21q0 -21 -13.5 -37t-23.5 -16q-2 0 -11 4t-11 4q-9 0 -20 -9.5t-23.5 -35t-22.5 -63.5t-17 -101t-7 -141q132 60 231 60q27 0 27 -11q0 -21 -10 -28q-5 -5 -25.5 -17 t-28.5 -12q-2 0 -15 5t-15 5q-20 0 -69.5 -15.5t-94.5 -39.5q9 -368 37 -547q11 -69 26 -117.5t31 -71t29 -31.5t26 -9q4 0 23 6t22 6q17 0 17 -14q0 -11 -19.5 -24t-46.5 -13q-134 0 -182 303q-16 109 -23.5 260t-7.5 223q-16 -10 -67.5 -38.5t-55.5 -28.5q-10 0 -20 10 t-10 18z" />
<glyph unicode="g" d="M4 -268q0 9 7.5 16.5t15.5 7.5q9 0 16.5 -8t36.5 -47q97 -127 203 -127q59 0 100.5 34t61 90t27 107t7.5 105q0 89 -11.5 184.5t-22 144.5t-17.5 70q-42 -92 -167 -206.5t-177 -114.5q-15 0 -29 10t-14 31q0 73 60 201t133 222q64 80 98 80q5 0 10 -2q-14 32 -14 37 q0 14 22.5 26.5t38.5 12.5t23.5 -11.5t24.5 -59.5q0 -2 0.5 -3.5t1.5 -3.5t1.5 -3.5t1 -3.5t1 -3.5t1.5 -3.5q40 -117 64.5 -245t30.5 -198t6 -120q0 -207 -74 -316.5t-186 -109.5q-58 0 -113.5 29t-90 66.5t-56 69t-21.5 42.5zM111 76q0 -13 8 -13q15 0 60 38.5t93.5 91.5 t86.5 114t38 99q0 10 -13 41.5t-26 31.5q-34 0 -95 -85t-106.5 -182.5t-45.5 -135.5z" />
<glyph unicode="h" horiz-adv-x="569" d="M76 -57q0 66 27 453.5t36 432.5q3 13 30 25t40 12q14 0 14 -14l-6 -49q-26 -170 -57 -488q-23 -257 -25 -278q29 82 104 265.5t91 201.5q9 10 27 16t26 6q12 0 12 -8q0 -1 -2 -37t-2 -43q0 -136 33 -239q6 -28 32 -85t54 -57q15 0 35 17q14 12 22 12q17 0 17 -14 q0 -20 -27.5 -41t-58.5 -21q-45 0 -83.5 55.5t-60 141t-24.5 180.5q-55 -130 -160 -393q-18 -49 -27 -59.5t-32 -10.5q-13 0 -19.5 1t-11 5t-4.5 13z" />
<glyph unicode="i" horiz-adv-x="303" d="M78 342q0 136 18 154q9 9 26.5 17.5t31.5 8.5q20 0 20 -18q0 -4 -3.5 -16.5t-7.5 -26t-5 -15.5q-17 -83 -17 -182q0 -225 58 -233q24 -4 28 -6.5t4 -10.5q0 -17 -20 -27t-39 -10q-20 0 -34.5 10.5t-23 30.5t-11.5 30.5t-7 29.5q-18 93 -18 264zM98 793q0 41 62 41 q18 0 18 -13q0 -7 -12 -49q-4 -23 -4 -49q0 -27 2 -39q0 -2 2 -11t2 -11q0 -19 -31 -19q-17 0 -24.5 8t-11 39.5t-3.5 102.5z" />
<glyph unicode="j" horiz-adv-x="342" d="M-133 -184q0 32 24 32q12 0 17.5 -11.5t17.5 -65.5q3 -14 9 -34t21 -57.5t42 -62.5t59 -25q26 0 46.5 19.5t33.5 77.5q31 119 31 288q0 352 -49 488q-2 9 -4.5 16t-3 9t-0.5 4q0 16 25.5 23t37.5 7q14 0 19 -22q38 -206 38 -510q0 -57 -2.5 -107.5t-13.5 -118t-28.5 -115 t-51 -81t-78.5 -33.5q-54 0 -94.5 37t-59.5 89.5t-27.5 92t-8.5 60.5zM29 813q0 12 14.5 16.5t26.5 4.5q16 0 24.5 -5.5t10.5 -9t8 -18.5q24 -84 24 -117q0 -18 -0.5 -24t-7.5 -12.5t-23 -6.5q-17 0 -21.5 8t-10.5 43q-5 32 -29 86l-8.5 17t-7.5 18z" />
<glyph unicode="k" horiz-adv-x="569" d="M94 246q0 90 4.5 164.5t28.5 375.5q3 29 8 38.5t27 17.5q35 14 49 14q12 0 12 -12q0 -1 -7.5 -38t-15.5 -79.5t-10 -54.5q-37 -209 -40 -463q109 118 192 276q13 29 68 29q8 0 13 -5.5t5 -10.5q0 -12 -70.5 -107t-105.5 -139q158 -119 291 -197q47 -26 47 -30 q0 -5 -17 -24t-24 -19q-24 0 -336 221q-54 -62 -57 -66q-2 -13 -2 -25q0 -36 18 -65q1 -2 16 -16t15 -17q0 -8 -11.5 -20t-29.5 -12q-6 0 -12 1.5t-10 5t-8 6.5t-7 8.5t-5 9t-4 10t-3 9t-3 8.5l-1 5q-15 71 -15 201z" />
<glyph unicode="l" horiz-adv-x="266" d="M74 598q0 190 16 213q7 10 30 18.5t36 8.5q18 0 18 -19q0 -6 -3.5 -25t-7.5 -39.5t-5 -23.5q-19 -111 -19 -276q0 -65 3.5 -135.5t17.5 -157.5t37 -111q17 -17 51 -20q10 -2 10 -13q0 -9 -13.5 -16.5t-31.5 -7.5q-52 0 -78.5 49.5t-40.5 153.5q-20 159 -20 401z" />
<glyph unicode="m" horiz-adv-x="872" d="M41 385q0 7 16 41t49.5 71.5t69.5 37.5q51 0 51 -66q0 -118 -47 -379q85 180 168 303q50 72 70 90.5t45 18.5q29 0 29 -17q0 -9 -5 -31t-6 -28q-22 -113 -22 -258q0 -25 6 -25q15 0 86 131.5t92 178.5q20 50 35.5 69t46.5 19q11 0 14.5 -3.5t3.5 -11.5q0 -2 -5 -66 t-5 -77q0 -332 90 -332q3 0 20.5 5t20.5 5q6 0 10.5 -5t4.5 -11q0 -17 -24 -31t-52 -14q-30 0 -52.5 14.5t-35 40.5t-18.5 46.5t-11 48.5q-15 83 -15 188q0 31 1 65q-60 -136 -140 -268q-19 -33 -36.5 -50t-27.5 -20.5t-24 -3.5q-34 0 -41.5 23t-7.5 92q0 92 15 219 q-77 -108 -191 -327q-37 -69 -44.5 -81t-14.5 -12q-3 0 -14 3t-24 11.5t-13 18.5l14 98q41 264 41 345q0 18 -12 18q-17 0 -48 -59q-12 -27 -18.5 -34t-19.5 -7q-25 0 -25 16z" />
<glyph unicode="n" horiz-adv-x="569" d="M61 12q0 26 18.5 236.5t22.5 218.5t33 22.5t33 14.5t8 -6t4 -15q0 -7 -16 -98q-34 -197 -41 -289q87 176 166 314q49 92 69 116.5t52 24.5q10 0 15 -5.5t5 -10.5l-16 -64q-13 -70 -13 -129q0 -17 1 -42.5t7 -74t16.5 -87t31.5 -68t49 -29.5q22 0 47 18q19 15 27 15 q16 0 16 -19q0 -20 -33 -37.5t-67 -17.5q-48 0 -82 34t-49 91.5t-21 110.5t-6 114q0 8 4 58q-26 -44 -90 -170t-100 -205q-20 -40 -25 -48t-14 -8q-7 0 -29.5 11.5t-22.5 23.5z" />
<glyph unicode="o" horiz-adv-x="530" d="M43 250q0 113 56.5 197.5t121.5 84.5q17 0 31 -14q21 14 51 14q70 0 129.5 -65t59.5 -166q0 -49 -17.5 -102t-49 -99t-81.5 -76t-108 -30q-91 0 -142 75.5t-51 180.5zM106 276q0 -105 46.5 -163t105.5 -58q61 0 114.5 63t53.5 154q0 92 -46 155q-40 55 -99 55 q-8 0 -17 -1q-3 -17 -14 -30t-23 -13q-6 0 -12 6q-2 2 -5 4.5t-4.5 4t-4 3t-3.5 2.5t-3 1.5l-4 1t-5 0.5q-24 0 -52 -54.5t-28 -130.5z" />
<glyph unicode="p" d="M82 -70q0 150 33 576q2 24 4 30.5t12 12.5q30 12 55 12q21 0 21 -14q0 -7 -15.5 -86t-19.5 -99q173 173 289 173q60 0 86 -30.5t26 -66.5q0 -55 -59 -160t-162 -188q-45 -38 -101 -67.5t-101 -30.5q-2 -65 -2 -118q0 -105 8 -161q11 -67 37 -67q4 0 20.5 8t19.5 8 q13 0 13 -18q0 -16 -21.5 -33t-46.5 -17q-18 0 -32.5 8.5t-22.5 21t-12.5 22.5t-6.5 18q-22 68 -22 266zM147 47q83 9 168.5 79.5t137 157.5t51.5 150q0 20 -12 34.5t-39 14.5q-52 0 -142 -70t-147 -141q-12 -122 -17 -225z" />
<glyph unicode="q" d="M45 45q0 67 52 157t122 173q53 64 91.5 93.5t74.5 29.5q16 0 25 -6q0 11 -4 62l-3 50q0 15 27 27t41 12q18 0 18 -16q0 -2 -12 -140q-6 -129 -6 -211q0 -150 18 -327t54 -213q11 -12 22 -15q15 -7 15 -16q0 -14 -16.5 -29.5t-31.5 -15.5q-22 0 -39 17t-27.5 50t-16 56 t-11.5 61q-30 182 -30 461q-39 -85 -144 -196t-170 -111q-49 0 -49 47zM106 76q0 -17 15 -17q25 0 93.5 71.5t127.5 160t59 127.5q0 9 -6.5 16.5t-15.5 7.5q-31 0 -98 -73.5t-121 -163t-54 -129.5z" />
<glyph unicode="r" horiz-adv-x="530" d="M57 438q0 11 25 27t39 16q17 0 27.5 -14.5t23.5 -46.5q46 -141 64 -191q20 65 29.5 93.5t32.5 74t54 84.5q75 94 137 94q30 0 47 -21t17 -48q0 -20 -12.5 -28.5t-24.5 -8.5q-24 0 -39 31q-9 19 -12 20q-5 0 -17.5 -8.5t-36 -32.5t-46.5 -59q-32 -47 -51.5 -105.5t-23 -86 t-3.5 -42.5q0 -55 16 -110q12 -41 12 -45q0 -11 -14 -27t-27 -16q-20 0 -27.5 13t-19.5 58q-1 5 -2 7q-29 110 -70 210.5t-65 129.5q-2 2 -11 9t-15.5 13.5t-6.5 9.5z" />
<glyph unicode="s" horiz-adv-x="493" d="M29 174q0 29 16 45.5t33 16.5q18 0 18 -17q0 -4 -6 -24t-6 -23q0 -52 87.5 -103t154.5 -51q26 0 38.5 10t12.5 21q0 19 -36.5 79t-66.5 101q-94 137 -121.5 184t-27.5 81q0 51 68 51q84 0 161.5 -46.5t83.5 -90.5q1 -15 -14.5 -26t-26.5 -11q-9 0 -14.5 6.5t-20.5 34.5 q-21 37 -66 60.5t-73 23.5q-20 0 -20 -15q0 -16 45.5 -91.5t79.5 -125.5q75 -106 93.5 -140t18.5 -65q0 -40 -31 -66t-83 -26q-106 0 -201.5 68t-95.5 139z" />
<glyph unicode="t" horiz-adv-x="493" d="M31 350q0 10 14 19q106 65 135 80v210q0 6 -2 40t-2 40q0 25 28 40.5t42 15.5q20 0 20 -25l-14 -117q-5 -43 -10 -172q4 2 26 12t39.5 17t42 16t46 14t38.5 5q21 0 21 -13q0 -16 -25 -36.5t-33 -20.5q-2 0 -11 2t-11 2q-15 0 -58.5 -18t-76.5 -37q-1 -28 -1 -59 q0 -93 9 -211q9 -72 21 -94q16 -27 46 -27q46 0 84 76q15 26 20.5 32t14.5 6q19 0 19 -22q0 -33 -46 -87t-108 -54q-30 0 -51 13.5t-31.5 41t-15 48t-8.5 54.5q-11 87 -15 250q-7 -3 -37.5 -22.5t-57.5 -36.5t-28 -17q-9 0 -16.5 12t-7.5 23z" />
<glyph unicode="u" d="M92 68q0 56 17 370q1 28 25.5 45t43.5 17q10 0 17.5 -5.5t7.5 -13.5q0 -4 -3 -16.5t-7.5 -25.5t-4.5 -15q-10 -49 -20 -149.5t-10 -188.5q0 -31 16 -31q4 0 15 9t26 23t27.5 27t24 25t12.5 13q122 139 122 192q0 64 -4 106t-4 50q0 18 25.5 33.5t42.5 15.5q18 0 18 -23 q0 -4 -3 -26.5t-3 -26.5q-4 -47 -4 -102q0 -97 13 -198t38 -101l17 4q6 0 11 -5t5 -10q0 -10 -17 -29.5t-36 -19.5q-39 0 -55.5 51t-30.5 175q-48 -62 -68.5 -87.5t-52.5 -59t-72 -68.5q-45 -39 -71 -39q-16 0 -27.5 6t-17.5 13.5t-9 21t-3.5 22t-0.5 21.5z" />
<glyph unicode="v" horiz-adv-x="530" d="M92 479q0 35 14 49q12 13 28.5 23t25.5 10q8 0 15 -7.5t7 -14.5q0 -8 -12 -56q-6 -37 -6 -82q0 -156 27.5 -261t66.5 -105q29 0 59.5 49.5t50 123.5t19.5 142q0 22 -3 33.5t-6.5 13.5t-10.5 2q-16 1 -22 2t-12.5 7t-6.5 18q0 18 16 29.5t28 13.5t21 2q25 0 39 -24t14 -91 q0 -49 -12.5 -110.5t-35 -122.5t-60.5 -102t-84 -41q-99 0 -133 178q-27 142 -27 321z" />
<glyph unicode="w" horiz-adv-x="757" d="M51 -49q0 96 32 235t99 287q25 55 43 82t26 31t21 4q29 0 29 -15q0 -3 -13.5 -29.5t-31 -58.5t-20.5 -38q-60 -128 -95 -272.5t-35 -227.5q0 -43 9 -43q4 0 37 49q79 141 192 403q17 42 35 52q8 4 18 4q12 0 16 -11.5t13 -72.5q16 -124 71 -215.5t99 -91.5q19 0 30 26.5 t11 65.5q0 98 -35.5 183.5t-69.5 98.5q-11 3 -15 5t-5.5 4.5t-1.5 7.5q0 14 13.5 32.5t21.5 18.5q6 0 22 -15.5t37 -46.5t40 -71t32.5 -96.5t13.5 -114.5q0 -152 -92 -152q-57 0 -108 58t-78.5 129t-36.5 135q-26 -65 -54 -125.5t-69.5 -141.5t-82 -130.5t-71.5 -49.5 q-17 0 -27 9.5t-14 29t-5 32.5t-1 36z" />
<glyph unicode="x" horiz-adv-x="569" d="M47 442q0 14 21 26.5t34 12.5q22 0 58 -43q21 -24 94 -125q48 76 92 130t64 71q78 84 147 84q31 0 50.5 -17t19.5 -49q0 -47 -27 -47q-22 0 -22 27q-3 23 -6.5 29t-14.5 6q-19 0 -43.5 -14.5t-49 -39t-49 -52.5t-47 -59t-38.5 -54t-28 -42l-13 -20q95 -120 162 -182 q59 -51 59 -59q0 -7 -17.5 -23t-27.5 -16q-16 0 -78 69q-13 14 -70 82.5t-63 75.5q-41 -67 -111 -211q-22 -39 -24 -39q-5 0 -25 12.5t-20 20.5q0 9 48 97t95 167q-17 23 -62.5 73.5t-74.5 74.5q-24 18 -28.5 22.5t-4.5 11.5z" />
<glyph unicode="y" d="M-59 -145q0 16 8 24t18 8t14.5 -7t14.5 -34q28 -87 121.5 -159t185.5 -72q91 0 125 92q35 91 35 227q0 187 -51 410q-20 -58 -41.5 -112.5t-54.5 -126t-68 -115t-64 -43.5q-54 0 -69 96q-6 52 -11 134.5t-6.5 134t-1.5 65.5q0 23 5 34t24 21q25 19 41 19q10 0 10 -13 q0 -32 -8 -80q-6 -88 -6 -139q0 -60 6.5 -136.5t21.5 -76.5q14 0 58.5 84.5t84.5 194t40 166.5q0 11 -1.5 22.5t-4 20.5t-5.5 17t-6 15t-5.5 11.5t-4.5 8.5l-2 3q-1 2 -9 11t-14 17.5t-6 12.5q0 9 28 25t34 16q13 0 39 -57.5t45 -127.5q65 -250 65 -469q0 -409 -231 -409 q-82 0 -167.5 53.5t-136 120.5t-50.5 113z" />
<glyph unicode="z" horiz-adv-x="681" d="M25 0q0 5 71 168q31 70 46 90.5t42 20.5q19 0 38 -11t73 -51l1 1l1 1l1 1l1 1l1 1l1 1l1 1l1 1l1 1l1 1l1 1l1 1l1 1l1 1l1 1l1 1l1 1l1 1l1 1q111 108 172 179q17 20 38 46q-11 2 -33 2q-30 1 -80 -3q-87 -6 -87 -28q0 -9 16 -14q22 -7 22 -25q0 -12 -8 -21.5t-22 -9.5 q-25 0 -45.5 19t-20.5 47q0 51 64 67.5t229 16.5q20 40 27 47q10 8 47 8q24 0 24 -12q0 -17 -56 -87t-105 -124q-12 -13 -80 -82t-80 -82q99 -76 153 -104q39 -20 76.5 -32.5t48.5 -12.5q3 0 23.5 7t24.5 7q18 0 18 -20q0 -18 -19 -29.5t-49 -11.5q-54 0 -125.5 35 t-112 65.5t-77.5 62.5q-9 -8 -64.5 -55.5t-64.5 -54.5q-87 -68 -105 -68q-10 0 -24 12t-14 19zM92 43q72 54 162 135q-54 45 -70 45q-6 0 -16 -20z" />
<glyph unicode="{" horiz-adv-x="681" d="M201 305q0 7 30 82q25 71 25 129q0 13 -2 81t-2 79q0 174 39 285q20 53 61.5 86.5t98.5 33.5q64 0 125 -40.5t61 -75.5q0 -10 -6.5 -17.5t-14.5 -7.5q-3 0 -5.5 0.5t-4 1.5t-4.5 3.5t-5 4t-6.5 6.5t-8.5 9q-65 65 -136 65q-35 0 -60.5 -29.5t-38.5 -69t-21 -94.5 t-9.5 -91t-1.5 -74q0 -12 3.5 -75t3.5 -75q0 -67 -29 -141q32 18 53 18q11 0 21 -2.5t24 -10.5t22.5 -28.5t8.5 -50.5q0 -31 -29 -209q-39 -220 -50 -292t-11 -125q0 -52 28.5 -76.5t63.5 -24.5q13 0 28.5 3t41.5 15.5t48.5 34t45 63t35.5 97.5q6 30 10 37.5t14 7.5 q25 0 25 -53q0 -95 -77.5 -177.5t-178.5 -82.5q-58 0 -102 39.5t-44 113.5q0 80 52 369q36 216 36 254q0 41 -24 41q-12 0 -22 -5t-42 -28q-32 -22 -49 -22q-9 0 -14.5 6t-5.5 12z" />
<glyph unicode="|" horiz-adv-x="342" d="M135 -438v2048h70v-2048h-70z" />
<glyph unicode="}" horiz-adv-x="681" d="M94 821q0 97 77 178.5t179 81.5q58 0 102 -39.5t44 -113.5q0 -80 -52 -369q-36 -216 -36 -254q0 -41 24 -41q12 0 22 5t42 28q36 25 49 25q9 0 14.5 -7.5t5.5 -13.5q0 -7 -30 -82q-25 -71 -25 -129q0 -13 2 -81t2 -79q0 -173 -39 -284q-20 -53 -61.5 -87t-98.5 -34 q-63 0 -124.5 41t-61.5 76q0 10 6.5 17t14.5 7q2 0 4 -0.5t3.5 -0.5t3.5 -1.5t3 -2t3.5 -3l4 -4l5.5 -5.5l7 -7q66 -66 135 -66q35 0 61 29.5t39 69t21 94.5t9.5 91.5t1.5 73.5q0 12 -3.5 75t-3.5 75q0 67 29 141q-32 -18 -53 -18q-10 0 -20.5 3t-24.5 11t-22.5 28.5 t-8.5 49.5q0 31 29 209q39 219 50 292t11 126q0 52 -28.5 76t-63.5 24q-13 0 -28.5 -3t-41.5 -15.5t-48.5 -34t-45 -63t-35.5 -97.5q-6 -30 -10 -37.5t-14 -7.5q-25 0 -25 53z" />
<glyph unicode="~" horiz-adv-x="872" d="M55 264q7 48 24 84.5t36 55t43 30t39.5 14.5t29.5 3q35 0 65.5 -8t160.5 -50q110 -37 135 -43q21 -8 55 -8q100 0 125 119h49q-8 -52 -27 -89.5t-39 -55.5t-45.5 -28t-37 -11t-23.5 -1q-35 0 -73.5 10t-129.5 42q-126 40 -156.5 48.5t-54.5 8.5q-44 0 -79.5 -30.5 t-45.5 -90.5h-51z" />
<glyph unicode="&#xa1;" horiz-adv-x="530" d="M145 559q0 8 10.5 17.5t30.5 9.5q29 0 52 -18t35 -45t18 -51t6 -42q0 -10 -4.5 -14.5t-18.5 -9.5q-45 -15 -53 -15q-16 0 -16 17l2 51q-4 58 -37 78q-17 8 -21 11.5t-4 10.5zM227 276q0 8 30.5 28t39.5 20q17 0 37 -22t26 -54q7 -38 7 -137q0 -128 -7.5 -270.5 t-15.5 -157.5q-5 -12 -33.5 -19.5t-40.5 -7.5q-16 0 -16 14q0 3 8.5 59t11.5 70q23 184 23 283q0 176 -47 182q-12 1 -15.5 2t-5.5 3t-2 7z" />
<glyph unicode="&#xa2;" horiz-adv-x="569" d="M45 92q0 55 37.5 138.5t114.5 171t170 126.5q34 122 43 138q10 18 45 18q26 0 26 -10q0 -2 -11 -31t-24 -64t-16 -44q34 7 51 -9.5t17 -36.5t-15 -34.5t-43 -14.5q-14 0 -23 6t-11.5 11t-2.5 8q0 11 -1 13.5t-7 2.5q-19 0 -61 -25t-84 -73q-58 -63 -93.5 -141t-35.5 -123 q0 -41 26 -59.5t60 -18.5q39 0 89.5 25.5t75 45t34.5 29.5q23 25 36 25q19 0 19 -16q0 -13 -20.5 -37.5t-69 -57t-109.5 -55.5q-36 -105 -59 -182q-11 -31 -17 -39t-20 -8q-29 0 -29 22q0 4 13 46.5t29 94t18 58.5q-152 -15 -152 100z" />
<glyph unicode="&#xa3;" horiz-adv-x="833" d="M-2 -133q0 4 20 73t25 85q56 221 80 335q3 17 6.5 26t12.5 24.5t26.5 23.5t42.5 8q14 0 20 -5.5t17 -28.5q28 -55 47 -89q30 49 129 209l-98 -14q-7 0 -12 15t-5 22q0 9 5.5 11t33.5 5l107 15q138 211 190.5 274.5t108.5 63.5q39 0 59.5 -22t20.5 -54q0 -37 -26 -79 t-46 -42q-8 0 -16.5 6t-8.5 14q0 1 10.5 19.5t10.5 19.5q4 4 11 21.5t7 30.5t-8 19.5t-18 6.5q-34 0 -103 -94q-23 -30 -123 -182q83 6 164 6q27 0 36 -2.5t9 -12.5q0 -11 -8 -19t-20 -9q-10 -1 -104.5 -5t-106.5 -5q-107 -171 -168 -277q34 -50 58 -82t68 -82.5t82 -81 t88 -54t97 -23.5q60 0 115 34q30 19 32 19q8 0 12.5 -5.5t4.5 -9.5q0 -11 -22 -29.5t-65 -35t-89 -16.5q-52 0 -106.5 23t-94.5 51.5t-87 77.5t-70.5 78t-59.5 75q-42 -72 -178 -285q-30 -45 -45 -58.5t-33 -13.5q-14 0 -24.5 7t-10.5 18zM72 -45q81 110 182 293 q-54 90 -70 121q-71 -283 -112 -414z" />
<glyph unicode="&#xa4;" horiz-adv-x="872" d="M106 240l97 94q-72 97 -72 194q0 96 72 193l-97 94l41 43l97 -94q1 1 11.5 8t15.5 10.5t18 10.5t22.5 11.5t24.5 10t29 8.5t32.5 5.5t36.5 2.5q107 0 195 -69l94 96l43 -43l-96 -96q71 -90 71 -191q0 -104 -71 -194l96 -94l-43 -43l-94 94q-1 -1 -9.5 -6.5t-12 -8 t-13 -8.5t-16 -9.5t-17.5 -9t-20.5 -8.5t-22.5 -7t-25 -6t-27 -3.5t-30 -1.5q-47 0 -92 15.5t-59.5 25.5t-40.5 29l-97 -96zM195 526q0 -98 70.5 -168.5t170.5 -70.5q99 0 170.5 70t71.5 169q0 101 -71.5 171.5t-170.5 70.5q-100 0 -170.5 -70.5t-70.5 -171.5z" />
<glyph unicode="&#xa5;" horiz-adv-x="909" d="M-29 913q0 36 48 51t102 15q43 0 55 -5.5t33 -31.5q171 -223 272 -420q46 149 103 275t92 182q11 19 44.5 39t43.5 20q6 0 12 -8.5t6 -11.5q0 -1 -5 -9t-10.5 -16t-6.5 -10q-60 -93 -128 -239.5t-102 -292.5q55 16 149 35.5t130 19.5q10 0 10 -27q0 -18 -2 -23t-10 -5 q-137 -11 -285 -54q-18 -106 -20 -127q118 37 250 37q18 0 22 -4.5t4 -19.5q0 -10 -1 -14.5t-9 -7.5t-16 -3.5t-31 -1.5q-123 -2 -227 -39q-19 -177 -19 -217q0 -41 12 -55q15 -19 15 -21q0 -7 -24 -33t-40 -26q-41 0 -41 90q0 48 25 238q-109 -50 -135 -64q-50 -29 -62 -29 q-6 0 -15 7t-9 16q0 12 32 29q129 67 197 94q13 95 21 131q-117 -38 -175 -70q-6 -3 -32 -19t-49.5 -30t-26.5 -14q-11 0 -20 7.5t-9 16.5q0 25 105 76q66 36 202 82q-49 119 -149.5 275t-159.5 212q-52 4 -90 -4q-5 -1 -33 -10.5t-30 -9.5q-5 0 -9 7t-4 17z" />
<glyph unicode="&#xa6;" horiz-adv-x="342" d="M135 -182v512h70v-512h-70zM135 842v512h70v-512h-70z" />
<glyph unicode="&#xa7;" horiz-adv-x="833" d="M-10 -31q0 27 27 40.5t49 13.5q12 0 21 -5.5t9 -15.5q0 -4 -2 -7t-3.5 -4t-6.5 -4l-4 -3q-12 -4 -16 -5.5t-8.5 -5.5t-4.5 -10q0 -22 70.5 -61.5t175 -72t182.5 -32.5q105 0 105 66q0 40 -38.5 92.5t-94.5 105t-167 149.5q-4 3 -6.5 5.5t-6.5 5.5t-7 6q-94 85 -119 113 q-34 37 -34 61q0 34 53 60t158 26q96 0 194 -23.5t98 -43.5q0 -7 -13.5 -25t-22.5 -18q-14 0 -72 35q-77 30 -178 30q-140 0 -140 -36q0 -22 77 -59.5t177 -67t160 -29.5q47 0 83 13.5t36 43.5q0 32 -24.5 75.5t-57.5 81.5t-87.5 89t-91.5 82.5t-93 77.5q-82 62 -109 92 q-20 23 -20 45q0 32 39.5 53t89 29t102.5 8q85 0 180.5 -20.5t95.5 -51.5q0 -18 -20 -36.5t-39 -18.5q-10 0 -16 7.5t-17 31.5q-7 13 -68.5 25t-123.5 12q-135 0 -135 -37q0 -18 90 -96q75 -62 118.5 -100t98.5 -91t84 -90t50 -79t21 -77q0 -19 -7 -36.5t-24.5 -37.5 t-56 -32t-94.5 -12q-72 0 -140.5 20t-186.5 68q186 -144 281 -245.5t95 -182.5q0 -57 -48 -87t-124 -30q-75 0 -164 22.5t-160.5 56t-120 73.5t-48.5 73z" />
<glyph unicode="&#xa8;" horiz-adv-x="303" d="M125 694q0 11 20 88q8 29 15.5 39t25.5 10q11 0 17 -7.5t6 -16.5q0 -12 -27 -98q-5 -20 -11.5 -29.5t-20.5 -9.5q-25 0 -25 24zM236 666q0 6 6 31.5t13.5 54.5t8.5 34q0 1 1 3q4 11 6.5 16.5t9.5 10t18 3.5q23 -4 23 -24q0 -9 -14.5 -64t-16.5 -59q-6 -29 -31 -29 q-10 0 -17 7t-7 16z" />
<glyph unicode="&#xa9;" horiz-adv-x="1175" d="M70 465q0 142 70 261.5t189 188t259 68.5t259 -68.5t189 -188t70 -261.5q0 -140 -69.5 -259t-189 -188t-259.5 -69t-259.5 69t-189 188t-69.5 259zM104 465q0 -131 65 -241.5t176.5 -175t242.5 -64.5q199 0 341 141.5t142 339.5q0 201 -142 342t-341 141t-341.5 -141 t-142.5 -342zM328 471q0 128 74 213.5t192 85.5q97 0 162 -57.5t71 -137.5h-36q-16 79 -71.5 119.5t-123.5 40.5q-102 0 -164.5 -76.5t-62.5 -183.5q0 -118 67.5 -193t167.5 -75q69 0 122 38.5t71 104.5h37q-13 -74 -76 -127t-154 -53q-116 0 -196 84t-80 217z" />
<glyph unicode="&#xaa;" horiz-adv-x="378" d="M18 543q0 37 32.5 102.5t83.5 124t95 66.5l-4 28q0 15 17 25t30 10q19 0 23 -10.5t4 -42.5q2 -64 22 -172.5t46 -124.5q16 -9 20 -13t4 -10q0 -10 -9 -19t-22 -9q-42 0 -64.5 46.5t-41.5 147.5q-136 -190 -191 -190q-15 0 -30 10t-15 31zM74 555q33 24 97.5 112.5 t64.5 102.5q0 8 -7 8q-11 0 -40 -30.5t-63.5 -85t-51.5 -107.5z" />
<glyph unicode="&#xab;" horiz-adv-x="757" d="M63 223q0 19 10 24.5t46 10.5q71 12 162 160q28 46 36 54.5t23 8.5q27 0 27 -28q0 -29 -57.5 -105.5t-127.5 -114.5q50 -12 89.5 -39.5t59.5 -57.5t30 -54t10 -37t-8 -21t-19 -8q-9 0 -15.5 8.5t-27.5 45.5q-31 54 -78.5 87.5t-101.5 37.5q-46 2 -53 9q-5 5 -5 19z M348 223q0 19 10.5 24.5t47.5 10.5q71 12 159 160q30 46 37.5 54.5t22.5 8.5q26 0 26 -28q0 -29 -56.5 -105.5t-125.5 -114.5q50 -12 89 -39.5t59 -57.5t30 -54t10 -37t-8.5 -21t-19.5 -8q-7 0 -11.5 5t-19.5 30q-7 12 -12 19q-68 116 -180 125q-46 2 -53 9q-5 6 -5 19z" />
<glyph unicode="&#xac;" horiz-adv-x="872" d="M74 475v64h725v-355h-70v291h-655z" />
<glyph unicode="&#xad;" horiz-adv-x="681" d="M80 285q-1 15 1.5 17.5t14.5 2.5q16 0 96 -2t93 -2q3 0 135 1.5t158 0.5q18 0 22 -5.5t4 -27.5q0 -19 -7 -22.5t-39 -3.5h-5q-23 0 -130 1t-180 1.5t-124 -0.5q-28 0 -33.5 6t-5.5 33z" />
<glyph unicode="&#xae;" horiz-adv-x="1175" d="M328 725q0 107 76.5 183.5t183.5 76.5t183.5 -76.5t76.5 -183.5t-76.5 -183.5t-183.5 -76.5t-183.5 76.5t-76.5 183.5zM356 727q0 -97 68 -165t164 -68q97 0 164 68t67 165q0 95 -67 162t-164 67q-96 0 -164 -67.5t-68 -161.5zM494 586v280h96q62 0 86 -24q26 -19 26 -58 q0 -50 -49 -67q45 -20 45 -78q5 -42 11 -53h-33q-2 5 -5 39t-5 39q-4 15 -13 24t-23.5 12t-24 4t-25.5 1h-58v-119h-28zM522 733h68q84 0 84 53q0 18 -7.5 29.5t-22.5 16t-27 5.5t-31 1h-64v-105z" />
<glyph unicode="&#xaf;" horiz-adv-x="303" d="M0 739q0 6 2 10t6.5 7t9 5t11 3.5t10.5 2t11 1t9 0.5l156 2q111 0 135.5 -4.5t24.5 -28.5q0 -22 -45 -22q-22 0 -138 -2t-135 -2q-57 0 -57 28z" />
<glyph unicode="&#xb0;" d="M96 872q0 88 61 147.5t146 59.5t146 -60t61 -147q0 -86 -60.5 -146t-146.5 -60q-85 0 -146 60t-61 146zM145 872q0 -66 46.5 -111.5t111.5 -45.5q67 0 113.5 46.5t46.5 110.5q0 66 -47 113t-113 47q-64 0 -111 -46t-47 -114z" />
<glyph unicode="&#xb1;" horiz-adv-x="872" d="M74 0v63h725v-63h-725zM74 397v64h327v266h70v-266h328v-64h-328v-266h-70v266h-327z" />
<glyph unicode="&#xb2;" horiz-adv-x="530" d="M2 332q0 9 31.5 55t52.5 72q23 33 35.5 44t28.5 11q13 0 21.5 -6t37.5 -35q186 188 186 299q0 19 -14 19q-33 0 -86.5 -44t-58.5 -59q-5 -14 -8.5 -20t-13.5 -12.5t-24 -6.5q-12 0 -19.5 5.5t-9 10t-1.5 9.5q0 14 37 55.5t95 80t103 38.5q31 0 49.5 -19.5t18.5 -50.5 q0 -135 -211 -346q132 -113 203 -113q9 0 16 3t9.5 5t9.5 11l6 8q8 16 24 16q11 0 18 -7t7 -17q0 -29 -28 -49.5t-68 -20.5q-106 0 -244 123q-52 -42 -99 -68t-63 -26q-10 0 -25.5 14t-15.5 21zM59 342q59 38 107 86l-23 18q-30 -33 -84 -104z" />
<glyph unicode="&#xb3;" horiz-adv-x="530" d="M14 477q0 18 12 31.5t29 13.5q23 0 23 -20l-4 -21q0 -4 7 -19.5t23.5 -39t39.5 -45.5t61 -37.5t82 -15.5q75 0 123.5 31.5t48.5 82.5q0 59 -57.5 95t-129.5 36q-39 0 -69 -6q-36 -12 -39 -12q-9 0 -20 15t-11 24q0 7 7.5 11.5t29.5 12.5q58 21 142.5 70t84.5 78 q0 20 -41 20q-44 0 -95 -24t-75.5 -42.5t-35.5 -29.5q-39 -30 -46 -31q-9 0 -17.5 9t-8.5 18q0 14 40.5 50t110.5 70t133 34q48 0 75.5 -20t27.5 -50q0 -10 -3.5 -20.5t-11.5 -20.5t-15.5 -18.5t-20.5 -18.5t-21.5 -16.5t-24 -15.5t-21.5 -12.5t-20.5 -11.5t-15.5 -9 q90 -12 151.5 -63t61.5 -122q0 -80 -70.5 -123t-162.5 -43q-53 0 -100.5 17t-78.5 42t-54 54t-33.5 53t-10.5 39z" />
<glyph unicode="&#xb4;" horiz-adv-x="303" d="M133 676q0 12 15.5 27.5t62.5 52.5q74 57 93 64q8 3 15 3q10 0 17.5 -6t7.5 -16q0 -9 -5.5 -14t-33.5 -27q-99 -76 -120.5 -91.5t-28.5 -15.5q-9 0 -16 7.5t-7 15.5z" />
<glyph unicode="&#xb5;" d="M90 -39q0 70 12 352q0 19 3 77.5t4 64.5q4 13 25 29t42 16q10 0 17.5 -5.5t7.5 -13.5q0 -2 -3.5 -14t-7 -25.5t-4.5 -17.5q-30 -165 -30 -338q0 -31 16 -31q9 0 45 34.5t62 64.5q120 137 120 190q0 60 -4 121q0 2 -2 17t-2 18q0 18 26 33.5t42 15.5q20 0 20 -23 q0 -21 -8 -53q-4 -47 -4 -102q0 -94 13.5 -196.5t37.5 -102.5l17 4q7 0 11.5 -5t4.5 -10q0 -11 -17.5 -30t-35.5 -19q-14 0 -25.5 6.5t-19.5 23.5t-13.5 32t-11 47.5t-8.5 52.5t-8 64q-64 -84 -94 -118t-89 -87q-39 -36 -48.5 -43.5t-18.5 -7.5q-3 0 -12 6q5 -181 10 -209 q1 -2 9.5 -25t8.5 -28q0 -14 -22.5 -36t-32.5 -22q-16 0 -20.5 19t-8.5 69q-4 68 -4 205z" />
<glyph unicode="&#xb6;" horiz-adv-x="757" d="M70 375q0 40 45 123.5t109.5 168t146.5 148.5t147 64q20 0 84 -17q39 -14 70 -14q5 0 30 5t29 5q7 0 18 -5t11 -9q-19 -35 -23 -41q-34 -72 -57 -155t-31.5 -157.5t-11 -116t-2.5 -77.5q0 -117 20 -184q0 -2 8.5 -30t8.5 -34q0 -13 -18 -30t-29 -17q-47 0 -47 213 q0 375 88 571q-21 0 -78 13q-38 -121 -58 -293q-28 -280 -28 -377q0 -45 14 -80q12 -27 12 -33q0 -12 -15 -25.5t-30 -13.5q-9 0 -19 9t-18 33.5t-8 60.5q0 63 13 227.5t38 339.5q-98 -131 -205.5 -225t-160.5 -94q-19 0 -36 11.5t-17 35.5zM133 406q0 -15 14 -15 q29 0 119.5 84t171 184.5t80.5 139.5q0 26 -26 26q-47 0 -135 -87t-156 -189t-68 -143z" />
<glyph unicode="&#xb7;" horiz-adv-x="378" d="M139 426q0 23 17.5 40t40.5 17t40 -17t17 -40q0 -24 -16.5 -40.5t-40.5 -16.5t-41 16.5t-17 40.5z" />
<glyph unicode="&#xb8;" horiz-adv-x="303" d="M2 -250q0 7 4 12t7 6t5 1q3 0 9 -3.5t12.5 -8t7.5 -5.5q23 -10 43 -10q38 0 62 27t24 61q0 28 -14.5 38.5t-28.5 10.5q-21 0 -51 -18q-32 -21 -37 -21q-4 0 -9 6t-5 11q0 7 26.5 67.5t36.5 81.5l37 2q-26 -60 -49 -108q36 26 70 26q35 0 56 -26t21 -66q0 -60 -42.5 -96.5 t-94.5 -36.5q-32 0 -61 15t-29 34z" />
<glyph unicode="&#xb9;" horiz-adv-x="530" d="M104 598q0 10 4.5 14t28.5 15q71 31 172 139q5 73 13 84q15 24 45 24q14 0 21 -8.5t7 -17.5q0 -1 -5 -27t-10.5 -56t-6.5 -38q-11 -106 -11 -238q0 -89 15 -127q1 -2 10.5 -19.5t9.5 -20.5q0 -13 -14.5 -24t-28.5 -11q-57 0 -57 219q0 75 6 174q-2 -2 -26.5 -23 t-38.5 -32t-36.5 -27.5t-40 -24.5t-30.5 -8q-12 0 -19.5 10t-7.5 23z" />
<glyph unicode="&#xba;" horiz-adv-x="342" d="M23 670q0 72 42 126t95 54q8 0 20 -6q30 6 35 6q51 0 95 -42t44 -108q0 -69 -51.5 -130.5t-134.5 -61.5q-67 0 -106 46.5t-39 115.5zM92 686q0 -57 28.5 -89t61.5 -32q37 0 70 34.5t33 84.5q0 51 -27.5 83t-60.5 30q-18 -27 -35 -27q-9 0 -17 6q-10 8 -12 8 q-3 0 -12.5 -10t-19 -34t-9.5 -54z" />
<glyph unicode="&#xbb;" horiz-adv-x="757" d="M100 45q0 13 10 37t30 54t59.5 57.5t89.5 39.5q-70 38 -127.5 114.5t-57.5 105.5q0 28 27 28q15 0 23.5 -9.5t35.5 -53.5q91 -148 162 -160q37 -5 47.5 -10t10.5 -23q0 -22 -17 -27q-8 -2 -36 -3h-7q-109 -9 -180 -125q-21 -37 -27.5 -45.5t-15.5 -8.5q-11 0 -19 8.5 t-8 20.5zM385 45q0 13 10 37t30 54t59 57.5t89 39.5q-70 38 -126 114t-56 106q0 28 27 28q15 0 23.5 -9.5t35.5 -53.5q88 -148 160 -160q36 -5 46.5 -10t10.5 -23q0 -19 -9.5 -24t-41.5 -6h-6q-112 -9 -180 -125q-5 -7 -12 -19q-19 -33 -26 -34l-5 -1q-12 0 -20.5 8.5 t-8.5 20.5z" />
<glyph unicode="&#xbc;" horiz-adv-x="1705" d="M301 598q0 10 4.5 14t28.5 15q71 31 172 139q6 74 12 84q15 24 45 24q14 0 21.5 -8.5t7.5 -17.5q0 -1 -5.5 -27t-11 -56t-6.5 -38q-10 -96 -10 -238q0 -92 14 -127q1 -2 11 -19.5t10 -20.5q0 -13 -14.5 -24t-28.5 -11q-57 0 -57 219q0 75 6 174q-2 -2 -26.5 -23 t-38.5 -32t-36.5 -27.5t-40 -24.5t-30.5 -8q-12 0 -19.5 10t-7.5 23zM522 -23q0 36 37 107.5t66.5 115t52.5 74.5q81 110 214.5 281.5t203.5 245.5q12 12 71 12q17 0 17 -10q0 -4 -15 -22t-20 -21q-170 -184 -360.5 -443t-190.5 -317q0 -17 16 -25q13 -10 13 -16 q0 -12 -15 -21.5t-34 -9.5q-21 0 -38.5 13t-17.5 36zM928 170q0 8 8 14.5t41 26.5q72 139 125 225q56 89 75.5 109t47.5 20q7 0 13.5 -6t6.5 -16q0 -6 -20 -35q-91 -118 -170 -262q72 29 145 49q13 114 23 127q6 7 25.5 17t27.5 10q6 0 12 -6t6 -13l-12 -47q-1 -7 -5 -28 t-7 -42q105 21 143 21q68 0 68 -31q0 -18 -29.5 -36.5t-46.5 -18.5q-4 0 -9 2t-9.5 10t-0.5 21q-61 -6 -126 -23q-13 -76 -13 -139q0 -36 17 -64q1 -3 11.5 -15t10.5 -15q0 -14 -19 -25.5t-34 -11.5q-47 0 -47 131q0 59 8 121q-90 -24 -168 -62q-3 -1 -20.5 -11.5t-33 -18 t-20.5 -7.5q-10 0 -17 9.5t-7 19.5z" />
<glyph unicode="&#xbd;" horiz-adv-x="1705" d="M301 598q0 10 4.5 14t28.5 15q71 31 172 139q6 74 12 84q15 24 45 24q14 0 21.5 -8.5t7.5 -17.5q0 -1 -5.5 -27t-11 -56t-6.5 -38q-10 -96 -10 -238q0 -92 14 -127q1 -2 11 -19.5t10 -20.5q0 -13 -14.5 -24t-28.5 -11q-57 0 -57 219q0 75 6 174q-2 -2 -26.5 -23 t-38.5 -32t-36.5 -27.5t-40 -24.5t-30.5 -8q-12 0 -19.5 10t-7.5 23zM522 -23q0 36 37 107.5t66.5 115t52.5 74.5q81 110 214.5 281.5t203.5 245.5q12 12 71 12q17 0 17 -10q0 -4 -15 -22t-20 -21q-170 -184 -360.5 -443t-190.5 -317q0 -17 16 -25q13 -10 13 -16 q0 -12 -15 -21.5t-34 -9.5q-21 0 -38.5 13t-17.5 36zM872 33q0 9 31.5 55t52.5 72q23 33 35.5 44t28.5 11q13 0 21.5 -6t37.5 -35q187 189 187 299q0 19 -15 19q-33 0 -86.5 -44t-58.5 -59q-6 -14 -9 -20t-12.5 -12.5t-23.5 -6.5q-17 0 -24 8.5t-7 16.5q0 10 23.5 38 t57 58.5t77 54t78.5 23.5q30 0 48.5 -19.5t18.5 -50.5q0 -135 -211 -346q132 -113 203 -113q9 0 16 3t9.5 5t9.5 10l6 9q8 16 25 16q11 0 17.5 -6.5t6.5 -17.5q0 -29 -28 -49.5t-68 -20.5q-106 0 -244 123q-52 -42 -99 -68t-63 -26q-10 0 -25.5 14t-15.5 21zM930 43 q57 37 106 86l-22 18q-30 -33 -84 -104z" />
<glyph unicode="&#xbe;" horiz-adv-x="1705" d="M219 477q0 18 12 31.5t29 13.5q23 0 23 -20l-4 -21q0 -4 7 -19.5t23.5 -39t39.5 -45.5t61 -37.5t82 -15.5q75 0 123.5 31.5t48.5 82.5q0 59 -57.5 95t-129.5 36q-39 0 -69 -6q-36 -12 -39 -12q-9 0 -20 15t-11 24q0 7 7.5 11.5t29.5 12.5q58 21 142.5 70t84.5 78 q0 20 -41 20q-87 0 -207 -96q-5 -4 -10.5 -9t-8 -7.5t-6 -5.5t-5 -4t-4 -2.5t-4 -1.5t-3.5 -0.5t-4 -0.5q-9 0 -17.5 9t-8.5 18q0 14 40.5 50t110.5 70t133 34q48 0 75.5 -20t27.5 -50q0 -10 -3.5 -20.5t-11.5 -20.5t-15.5 -18.5t-20.5 -18.5t-21.5 -16.5t-24 -15.5 t-21.5 -12.5t-20.5 -11.5t-15.5 -9q90 -13 152.5 -63.5t62.5 -121.5q0 -80 -71.5 -123t-163.5 -43q-53 0 -100.5 17t-78.5 42t-54 54t-33.5 53t-10.5 39zM600 -23q0 36 37 107.5t66.5 115t52.5 74.5q81 110 214.5 281.5t203.5 245.5q12 12 71 12q17 0 17 -10q0 -4 -15 -22 t-20 -21q-170 -184 -360.5 -443t-190.5 -317q0 -17 16 -25q13 -10 13 -16q0 -12 -15.5 -21.5t-34.5 -9.5q-21 0 -38 13t-17 36zM1006 170q0 8 8 14.5t41 26.5q72 139 125 225q56 89 75.5 109t47.5 20q7 0 13.5 -6t6.5 -16q0 -6 -20 -35q-91 -118 -170 -262q72 29 145 49 q13 116 22 127q6 7 26 17t28 10q6 0 12 -6t6 -13l-12 -47q-1 -7 -5 -28t-7 -42q105 21 143 21q68 0 68 -31q0 -18 -29.5 -36.5t-46.5 -18.5q-4 0 -9 2t-9.5 10t-0.5 21q-63 -6 -127 -23q-12 -70 -12 -139q0 -38 16 -64q1 -3 12 -15t11 -15q0 -14 -19 -25.5t-34 -11.5 q-47 0 -47 131q0 59 8 121q-90 -24 -168 -62q-3 -1 -20.5 -11.5t-33 -18t-20.5 -7.5q-10 0 -17 9.5t-7 19.5z" />
<glyph unicode="&#xbf;" horiz-adv-x="757" d="M68 98q0 15 41 49t99.5 69t131 62t127.5 27q47 0 79 -23.5t32 -60.5q0 -47 -39 -99.5t-154 -173.5q-19 -19 -29 -30q-140 -146 -168 -178.5t-28 -46.5q0 -17 28 -17q65 0 144.5 29.5t131.5 64.5t52 54q0 7 -10 10t-10 12q0 10 12 16.5t27 6.5q24 0 33.5 -14t9.5 -27 q0 -21 -15.5 -42t-45 -40.5t-47 -29.5t-46.5 -25q-138 -66 -244 -66q-32 0 -54.5 7t-32.5 18t-13.5 19.5t-3.5 15.5q0 32 28 65.5t164 169.5q138 138 185 197q45 51 45 86q0 17 -12 33t-42 16q-108 0 -305 -137q-49 -33 -55 -33q-5 0 -10.5 4.5t-5.5 11.5zM248 557 q0 9 9.5 18t29.5 9q38 0 64.5 -31t36 -64t9.5 -59q0 -19 -22 -27q-5 -1 -27 -7.5t-26 -6.5q-6 0 -11.5 5t-5.5 12l2 51q-5 62 -37 78q-21 18 -22 22z" />
<glyph unicode="&#xc0;" horiz-adv-x="1138" d="M-53 -78q0 1 6.5 7t14.5 13l7 7q90 77 170 186t132 212t90.5 202.5t55.5 167t17 96.5q0 2 -1 10.5t-1.5 13.5t0.5 9q7 12 45 28q-20 80 -20 99q0 18 27 35.5t38 17.5t11 -16q0 -47 27.5 -183.5t68.5 -279.5q100 53 207 85t147 32q27 0 27 -21q0 -14 -11 -20t-38 -11 q-149 -30 -316 -112q86 -243 187 -370.5t182 -127.5q56 0 84 33q24 24 33 24q7 0 11.5 -4.5t4.5 -9.5q0 -7 -8 -21.5t-24 -31.5t-45.5 -29t-65.5 -12q-46 0 -91.5 22.5t-80.5 54.5t-71 83t-59.5 93t-50 100t-38 88t-27.5 73q-78 -43 -165.5 -100.5t-115.5 -85.5 q-134 -227 -239 -336q-24 -25 -40 -32t-38 -7q-47 0 -47 18zM360 381q63 42 215 135q-22 71 -71 279q-18 -83 -55.5 -198.5t-88.5 -215.5zM383 1221q0 11 8 16.5t17 5.5q8 0 18 -4t27 -16t27 -20t36 -29q48 -37 63 -51.5t15 -26.5q0 -9 -7 -16t-16 -7t-25.5 11.5t-90.5 68.5 q-17 14 -32.5 26t-21.5 16.5t-8 6.5q-10 7 -10 19z" />
<glyph unicode="&#xc1;" horiz-adv-x="1138" d="M-53 -78q0 1 6.5 7t14.5 13l7 7q90 77 170 186t132 212t90.5 202.5t55.5 167t17 96.5q0 2 -1 10.5t-1.5 13.5t0.5 9q7 12 45 28q-20 80 -20 99q0 18 27 35.5t38 17.5t11 -16q0 -47 27.5 -183.5t68.5 -279.5q100 53 207 85t147 32q27 0 27 -21q0 -14 -11 -20t-38 -11 q-149 -30 -316 -112q86 -243 187 -370.5t182 -127.5q56 0 84 33q24 24 33 24q7 0 11.5 -4.5t4.5 -9.5q0 -7 -8 -21.5t-24 -31.5t-45.5 -29t-65.5 -12q-46 0 -91.5 22.5t-80.5 54.5t-71 83t-59.5 93t-50 100t-38 88t-27.5 73q-78 -43 -165.5 -100.5t-115.5 -85.5 q-134 -227 -239 -336q-24 -25 -40 -32t-38 -7q-47 0 -47 18zM360 381q63 42 215 135q-22 71 -71 279q-18 -83 -55.5 -198.5t-88.5 -215.5zM428 1094q0 12 15.5 27.5t62.5 52.5q74 57 93 64q8 3 15 3q10 0 17.5 -6t7.5 -16q0 -9 -5.5 -14t-33.5 -27q-99 -76 -120.5 -91.5 t-28.5 -15.5q-9 0 -16 7.5t-7 15.5z" />
<glyph unicode="&#xc2;" horiz-adv-x="1138" d="M-53 -78q0 1 6.5 7t14.5 13l7 7q90 77 170 186t132 212t90.5 202.5t55.5 167t17 96.5q0 2 -1 10.5t-1.5 13.5t0.5 9q7 12 45 28q-20 80 -20 99q0 18 27 35.5t38 17.5t11 -16q0 -47 27.5 -183.5t68.5 -279.5q100 53 207 85t147 32q27 0 27 -21q0 -14 -11 -20t-38 -11 q-149 -30 -316 -112q86 -243 187 -370.5t182 -127.5q56 0 84 33q24 24 33 24q7 0 11.5 -4.5t4.5 -9.5q0 -7 -8 -21.5t-24 -31.5t-45.5 -29t-65.5 -12q-46 0 -91.5 22.5t-80.5 54.5t-71 83t-59.5 93t-50 100t-38 88t-27.5 73q-78 -43 -165.5 -100.5t-115.5 -85.5 q-134 -227 -239 -336q-24 -25 -40 -32t-38 -7q-47 0 -47 18zM360 381q63 42 215 135q-22 71 -71 279q-18 -83 -55.5 -198.5t-88.5 -215.5zM360 1073q0 20 140 131l-8 15q-9 15 -9 20q0 9 19 20t24 11q7 0 21 -33q22 -52 40.5 -80t53.5 -51q29 -19 29 -29q0 -18 -23 -18 q-10 0 -28.5 7t-47.5 31t-47 60q-66 -54 -84 -72q-32 -30 -53 -30q-11 0 -19 6t-8 12z" />
<glyph unicode="&#xc3;" horiz-adv-x="1138" d="M-53 -78q0 1 6.5 7t14.5 13l7 7q90 77 170 186t132 212t90.5 202.5t55.5 167t17 96.5q0 2 -1 10.5t-1.5 13.5t0.5 9q7 12 45 28q-20 80 -20 99q0 18 27 35.5t38 17.5t11 -16q0 -47 27.5 -183.5t68.5 -279.5q100 53 207 85t147 32q27 0 27 -21q0 -14 -11 -20t-38 -11 q-149 -30 -316 -112q86 -243 187 -370.5t182 -127.5q56 0 84 33q24 24 33 24q7 0 11.5 -4.5t4.5 -9.5q0 -7 -8 -21.5t-24 -31.5t-45.5 -29t-65.5 -12q-46 0 -91.5 22.5t-80.5 54.5t-71 83t-59.5 93t-50 100t-38 88t-27.5 73q-78 -43 -165.5 -100.5t-115.5 -85.5 q-134 -227 -239 -336q-24 -25 -40 -32t-38 -7q-47 0 -47 18zM334 1137q0 19 38 51.5t68 32.5h6.5t5 -0.5t5.5 -1.5t5 -1t6 -2l6 -3t7 -4.5t8 -5t10.5 -6l12.5 -7.5q69 -41 80 -41q15 0 51 29q27 24 39 24q10 0 15.5 -9.5t2.5 -21.5q-7 -20 -39.5 -47.5t-72.5 -27.5 q-24 0 -41.5 8.5t-67.5 40.5q-32 16 -45 16q-17 0 -57 -35q-12 -12 -25 -12q-9 0 -13.5 8t-4.5 15zM360 381q63 42 215 135q-22 71 -71 279q-18 -83 -55.5 -198.5t-88.5 -215.5z" />
<glyph unicode="&#xc4;" horiz-adv-x="1138" d="M-53 -78q0 1 6.5 7t14.5 13l7 7q90 77 170 186t132 212t90.5 202.5t55.5 167t17 96.5q0 2 -1 10.5t-1.5 13.5t0.5 9q7 12 45 28q-20 80 -20 99q0 18 27 35.5t38 17.5t11 -16q0 -47 27.5 -183.5t68.5 -279.5q100 53 207 85t147 32q27 0 27 -21q0 -14 -11 -20t-38 -11 q-149 -30 -316 -112q86 -243 187 -370.5t182 -127.5q56 0 84 33q24 24 33 24q7 0 11.5 -4.5t4.5 -9.5q0 -7 -8 -21.5t-24 -31.5t-45.5 -29t-65.5 -12q-46 0 -91.5 22.5t-80.5 54.5t-71 83t-59.5 93t-50 100t-38 88t-27.5 73q-78 -43 -165.5 -100.5t-115.5 -85.5 q-134 -227 -239 -336q-24 -25 -40 -32t-38 -7q-47 0 -47 18zM360 381q63 42 215 135q-22 71 -71 279q-18 -83 -55.5 -198.5t-88.5 -215.5zM438 1112q0 8 21 88q8 29 15.5 39t25.5 10q22 0 22 -24q0 -16 -26 -99q-10 -39 -33 -39q-25 0 -25 25zM549 1083q0 6 6 31.5t14 55 t9 34.5l2 6q2 6 2.5 7t2.5 5.5t3 5.5t3.5 4t5.5 3.5t6.5 1t8.5 0.5q23 -4 23 -25q0 -9 -14.5 -63.5t-16.5 -58.5q-6 -29 -31 -29q-10 0 -17 6.5t-7 15.5z" />
<glyph unicode="&#xc5;" horiz-adv-x="1138" d="M-53 -78q0 1 6.5 7t14.5 13l7 7q90 77 170 186t132 212t90.5 202.5t55.5 167t17 96.5q0 2 -1 10.5t-1.5 13.5t0.5 9q7 12 45 28q-20 80 -20 99q0 18 27 35.5t38 17.5t11 -16q0 -47 27.5 -183.5t68.5 -279.5q100 53 207 85t147 32q27 0 27 -21q0 -14 -11 -20t-38 -11 q-149 -30 -316 -112q86 -243 187 -370.5t182 -127.5q56 0 84 33q24 24 33 24q7 0 11.5 -4.5t4.5 -9.5q0 -7 -8 -21.5t-24 -31.5t-45.5 -29t-65.5 -12q-46 0 -91.5 22.5t-80.5 54.5t-71 83t-59.5 93t-50 100t-38 88t-27.5 73q-78 -43 -165.5 -100.5t-115.5 -85.5 q-134 -227 -239 -336q-24 -25 -40 -32t-38 -7q-47 0 -47 18zM360 381q63 42 215 135q-22 71 -71 279q-18 -83 -55.5 -198.5t-88.5 -215.5zM406 1153q0 57 37.5 98t74.5 41q9 0 29 -10q2 2 5 6t5 6q8 4 18 4q26 0 49 -24t23 -62q0 -58 -39.5 -106.5t-105.5 -48.5 q-26 0 -45 8.5t-28.5 19.5t-15 26.5t-6.5 24.5t-1 17zM461 1157q0 -49 47 -49q42 0 64 33t22 65q0 20 -10.5 30.5t-18.5 10.5q-1 0 -10.5 -5t-11.5 -5q-15 4 -19 4q-17 0 -40 -24t-23 -60z" />
<glyph unicode="&#xc6;" horiz-adv-x="1251" d="M-47 14q0 3 11.5 15.5t26 27.5t17.5 19q43 43 177.5 196t179.5 209q162 205 231 307q9 85 12.5 106.5t9.5 25.5q18 14 62 14q29 0 29 -16q0 -13 -13 -39q-7 -24 -12 -54q26 14 66.5 31.5t124.5 40.5t151 23q119 0 119 -50q0 -20 -11.5 -42.5t-25.5 -22.5q-6 0 -29 31 q-17 28 -63 28q-86 0 -192 -38.5t-148 -80.5q-14 -70 -14 -278q228 57 425 57q58 0 58 -28q0 -15 -10 -30t-23 -15q-4 0 -24.5 5t-24.5 5q-33 8 -74 8q-49 0 -145 -14.5t-182 -38.5q0 -171 20 -291q5 -34 18.5 -52t44.5 -18q94 0 367 148q66 37 78 37q9 0 14.5 -7t5.5 -16 t-6.5 -16t-27.5 -19q-336 -200 -471 -200q-43 0 -65 27t-34 102q-18 160 -16 282q-2 0 -62.5 -18.5t-139 -44.5t-114.5 -41q-72 -84 -202 -246q-17 -19 -25.5 -28t-24 -18t-30.5 -9q-16 0 -27.5 8t-11.5 18zM344 371q116 38 246 78q0 141 6 221q-17 -19 -47 -53.5 t-39.5 -45.5t-29.5 -34.5t-28 -33t-23 -27.5t-26.5 -32t-26 -32t-32.5 -41z" />
<glyph unicode="&#xc7;" horiz-adv-x="757" d="M76 248q0 121 56 256t137 239t176.5 173t170.5 69q29 0 50.5 -15.5t21.5 -47.5q0 -85 -88 -181q-17 -19 -58.5 -55.5t-52.5 -36.5t-17.5 8.5t-6.5 16.5q0 7 5.5 13.5t29.5 27.5q131 114 131 180q0 33 -33 33q-54 0 -133 -63.5t-150 -157t-121.5 -214.5t-50.5 -223 q0 -96 48.5 -160.5t146.5 -64.5q133 0 266 133q4 4 26.5 30.5t42 46t27.5 19.5t13.5 -7t5.5 -15q0 -22 -52.5 -82t-121.5 -109q-105 -75 -236 -81q-1 -1 -7.5 -15t-16 -34t-15.5 -31q42 26 70 26q35 0 57.5 -26t22.5 -66q0 -60 -42.5 -96.5t-94.5 -36.5q-32 0 -61 15t-29 34 q0 7 4 12t7 6t5 1q3 0 9 -3.5t12.5 -8t7.5 -5.5q23 -10 43 -10q38 0 62 27t24 61q0 28 -14.5 38.5t-28.5 10.5q-22 0 -52 -18q-32 -21 -36 -21q-6 0 -10.5 6t-4.5 11q0 4 51 123q-51 5 -89 30t-58 56t-31.5 70.5t-14.5 64.5t-3 47z" />
<glyph unicode="&#xc8;" horiz-adv-x="985" d="M76 190q0 112 73 268.5t216 297.5q98 95 195.5 143.5t160.5 48.5q42 0 76 -14.5t34 -34.5q0 -17 -24.5 -33t-36.5 -16q-11 0 -29 18q-17 17 -47 17q-51 0 -127 -44t-155 -118.5t-150 -188t-104 -237.5q161 96 282 145q2 1 17.5 6.5t26 9.5t29.5 10t36.5 10.5t38 9t42 6.5 t42.5 2q76 0 76 -29q0 -25 -39 -25q-85 0 -118.5 -4.5t-98.5 -29.5q-35 -12 -83 -32t-127 -65t-128 -92q1 -17 3 -32t13.5 -43.5t30.5 -48t56.5 -35t88.5 -15.5q121 0 278.5 81.5t247.5 156.5q51 41 62 41q8 0 13 -5t5 -10q0 -21 -59.5 -72.5t-147.5 -107t-205.5 -97.5 t-217.5 -42q-104 0 -158 35q-49 30 -68.5 77.5t-19.5 87.5zM545 1221q0 22 24 22q11 0 28.5 -10t33 -21.5t47.5 -37.5q48 -37 63 -51.5t15 -26.5q0 -9 -7 -16t-16 -7t-27 12.5t-90 67.5q-16 13 -32 25.5t-21.5 17t-7.5 6.5q-10 7 -10 19z" />
<glyph unicode="&#xc9;" horiz-adv-x="985" d="M76 190q0 112 73 268.5t216 297.5q98 95 195.5 143.5t160.5 48.5q42 0 76 -14.5t34 -34.5q0 -17 -24.5 -33t-36.5 -16q-11 0 -29 18q-17 17 -47 17q-51 0 -127 -44t-155 -118.5t-150 -188t-104 -237.5q161 96 282 145q2 1 17.5 6.5t26 9.5t29.5 10t36.5 10.5t38 9t42 6.5 t42.5 2q76 0 76 -29q0 -25 -39 -25q-85 0 -118.5 -4.5t-98.5 -29.5q-35 -12 -83 -32t-127 -65t-128 -92q1 -17 3 -32t13.5 -43.5t30.5 -48t56.5 -35t88.5 -15.5q121 0 278.5 81.5t247.5 156.5q51 41 62 41q8 0 13 -5t5 -10q0 -21 -59.5 -72.5t-147.5 -107t-205.5 -97.5 t-217.5 -42q-104 0 -158 35q-49 30 -68.5 77.5t-19.5 87.5zM602 1094q0 12 15.5 27.5t62.5 52.5q74 57 93 64q8 3 15 3q10 0 17.5 -6t7.5 -16q0 -9 -5.5 -14t-33.5 -27q-99 -76 -120.5 -91.5t-28.5 -15.5q-9 0 -16 7.5t-7 15.5z" />
<glyph unicode="&#xca;" horiz-adv-x="985" d="M76 190q0 112 73 268.5t216 297.5q98 95 195.5 143.5t160.5 48.5q42 0 76 -14.5t34 -34.5q0 -17 -24.5 -33t-36.5 -16q-11 0 -29 18q-17 17 -47 17q-51 0 -127 -44t-155 -118.5t-150 -188t-104 -237.5q161 96 282 145q2 1 17.5 6.5t26 9.5t29.5 10t36.5 10.5t38 9t42 6.5 t42.5 2q76 0 76 -29q0 -25 -39 -25q-85 0 -118.5 -4.5t-98.5 -29.5q-35 -12 -83 -32t-127 -65t-128 -92q1 -17 3 -32t13.5 -43.5t30.5 -48t56.5 -35t88.5 -15.5q121 0 278.5 81.5t247.5 156.5q51 41 62 41q8 0 13 -5t5 -10q0 -21 -59.5 -72.5t-147.5 -107t-205.5 -97.5 t-217.5 -42q-104 0 -158 35q-49 30 -68.5 77.5t-19.5 87.5zM543 1073q0 21 139 131l-8 15q-8 15 -8 20q0 9 19 20t24 11q4 0 7.5 -5.5t12.5 -27.5q22 -52 40.5 -80t53.5 -51q29 -19 29 -29q0 -18 -23 -18q-10 0 -28 7t-47 31t-47 60q-66 -54 -84 -72q-32 -30 -54 -30 q-11 0 -18.5 5.5t-7.5 12.5z" />
<glyph unicode="&#xcb;" horiz-adv-x="985" d="M76 190q0 112 73 268.5t216 297.5q98 95 195.5 143.5t160.5 48.5q42 0 76 -14.5t34 -34.5q0 -17 -24.5 -33t-36.5 -16q-11 0 -29 18q-17 17 -47 17q-51 0 -127 -44t-155 -118.5t-150 -188t-104 -237.5q161 96 282 145q2 1 17.5 6.5t26 9.5t29.5 10t36.5 10.5t38 9t42 6.5 t42.5 2q76 0 76 -29q0 -25 -39 -25q-85 0 -118.5 -4.5t-98.5 -29.5q-35 -12 -83 -32t-127 -65t-128 -92q1 -17 3 -32t13.5 -43.5t30.5 -48t56.5 -35t88.5 -15.5q121 0 278.5 81.5t247.5 156.5q51 41 62 41q8 0 13 -5t5 -10q0 -21 -59.5 -72.5t-147.5 -107t-205.5 -97.5 t-217.5 -42q-104 0 -158 35q-49 30 -68.5 77.5t-19.5 87.5zM559 1112q0 8 21 88q8 29 15.5 39t25.5 10q22 0 22 -24q0 -13 -27 -99q-5 -20 -11.5 -29.5t-20.5 -9.5q-25 0 -25 25zM670 1083q0 6 6 31.5t13.5 55t8.5 34.5q0 1 1 3q4 11 6.5 16.5t9.5 10t18 3.5q23 -4 23 -25 q0 -9 -14.5 -63.5t-16.5 -58.5q-6 -29 -31 -29q-10 0 -17 6.5t-7 15.5z" />
<glyph unicode="&#xcc;" horiz-adv-x="378" d="M129 1221q0 11 8 16.5t17 5.5q8 0 18 -4t27 -16t27 -20t36 -29q48 -37 63 -51.5t15 -26.5q0 -9 -7 -16t-16 -7t-25.5 11.5t-90.5 68.5q-17 14 -32.5 26t-21.5 16.5t-8 6.5q-10 7 -10 19zM166 530q0 75 3 171.5t6.5 158t4.5 62.5q3 8 35.5 25.5t46.5 17.5q10 0 15.5 -7 t5.5 -14q0 -5 -3.5 -20.5t-8 -32t-5.5 -19.5q-30 -150 -30 -342q3 -273 14 -356q9 -70 26 -98q2 -3 15.5 -18.5t13.5 -18.5q0 -8 -21.5 -27.5t-35.5 -19.5q-18 0 -31.5 19.5t-18.5 39t-12 53.5q-20 126 -20 426z" />
<glyph unicode="&#xcd;" horiz-adv-x="378" d="M131 1094q0 12 15.5 27.5t62.5 52.5q74 57 93 64q8 3 15 3q10 0 17.5 -6t7.5 -16q0 -9 -5.5 -14t-33.5 -27q-99 -76 -120.5 -91.5t-28.5 -15.5q-9 0 -16 7.5t-7 15.5zM166 530q0 75 3 171.5t6.5 158t4.5 62.5q3 8 35.5 25.5t46.5 17.5q10 0 15.5 -7t5.5 -14 q0 -5 -3.5 -20.5t-8 -32t-5.5 -19.5q-30 -150 -30 -342q3 -273 14 -356q9 -70 26 -98q2 -3 15.5 -18.5t13.5 -18.5q0 -8 -21.5 -27.5t-35.5 -19.5q-18 0 -31.5 19.5t-18.5 39t-12 53.5q-20 126 -20 426z" />
<glyph unicode="&#xce;" horiz-adv-x="378" d="M80 1073q0 21 139 131l-8 15q-8 15 -8 20q0 9 19 20t24 11q4 0 7.5 -5.5t12.5 -27.5q22 -52 40.5 -80t53.5 -51q29 -19 29 -29q0 -18 -22 -18q-10 0 -28.5 7t-47.5 31t-47 60q-66 -54 -84 -72q-32 -30 -54 -30q-11 0 -18.5 5.5t-7.5 12.5zM166 530q0 75 3 171.5t6.5 158 t4.5 62.5q3 8 35.5 25.5t46.5 17.5q10 0 15.5 -7t5.5 -14q0 -5 -3.5 -20.5t-8 -32t-5.5 -19.5q-30 -150 -30 -342q3 -273 14 -356q9 -70 26 -98q2 -3 15.5 -18.5t13.5 -18.5q0 -8 -21.5 -27.5t-35.5 -19.5q-18 0 -31.5 19.5t-18.5 39t-12 53.5q-20 126 -20 426z" />
<glyph unicode="&#xcf;" horiz-adv-x="378" d="M166 530q0 75 3 171.5t6.5 158t4.5 62.5q3 8 35.5 25.5t46.5 17.5q10 0 15.5 -7t5.5 -14q0 -5 -3.5 -20.5t-8 -32t-5.5 -19.5q-30 -150 -30 -342q3 -273 14 -356q9 -70 26 -98q2 -3 15.5 -18.5t13.5 -18.5q0 -8 -21.5 -27.5t-35.5 -19.5q-18 0 -31.5 19.5t-18.5 39 t-12 53.5q-20 126 -20 426zM172 1112q0 8 21 88q8 29 15.5 39t24.5 10q11 0 17 -7.5t6 -16.5q0 -13 -27 -99q-5 -20 -11.5 -29.5t-20.5 -9.5q-25 0 -25 25zM283 1083q0 6 6 31.5t13.5 55t8.5 34.5q0 1 1 3q4 11 6.5 16.5t9.5 10t18 3.5q23 -4 23 -25q0 -9 -14.5 -63.5 t-16.5 -58.5q-6 -29 -31 -29q-10 0 -17 6.5t-7 15.5z" />
<glyph unicode="&#xd0;" horiz-adv-x="1366" d="M78 780q0 20 29.5 53.5t76.5 59.5q108 59 295 59q115 0 262 -39q56 114 91 170.5t52.5 70t39.5 13.5q18 0 32.5 -15.5t14.5 -39.5q0 -25 -19 -25q-3 0 -15.5 9.5t-14.5 9.5q-7 0 -11.5 -5.5t-15.5 -23.5q-57 -100 -96 -184q64 -26 101.5 -44t90.5 -51.5t103 -76.5 q215 -185 215 -389q0 -148 -132.5 -242t-326.5 -94q-85 0 -157 12t-129.5 36t-87 40.5t-70.5 42.5q-49 -95 -89 -166q-73 -120 -86 -135q-23 -23 -38 -23t-27 11.5t-12 25.5q0 4 8.5 49t9.5 52q25 128 25 229q0 129 -15 244q-12 84 -12 88q0 24 37 24q18 0 24.5 -10 t20.5 -57q13 -43 24 -72.5t42 -79t73 -90.5q11 22 45.5 89.5t72 139.5t44.5 86q-9 1 -59.5 4.5t-59.5 4.5q-24 0 -24 18q0 16 5.5 21.5t26.5 5.5q31 0 131 -8q11 22 34.5 65t54.5 102q14 28 25.5 52t16 34t9.5 20t10 19q-125 37 -242 37q-276 0 -358 -137q-13 -20 -21 -20 q-10 0 -17 11.5t-7 18.5zM213 -109q44 71 147 269q-33 29 -58.5 61t-34 47t-25.5 49q6 -61 6 -139q0 -154 -35 -287zM432 178q38 -24 66 -38.5t86.5 -40t130 -39t149.5 -13.5q166 0 265.5 81t99.5 196q0 72 -29 151.5t-82 145.5q-38 48 -84.5 86.5t-97.5 66.5t-83.5 42.5 t-76.5 31.5q-20 -39 -73 -146.5t-66 -132.5q100 -11 182.5 -35t120 -45t37.5 -32q0 -7 -16 -20t-25 -13q-5 0 -21 8t-34 19t-21 12q-95 44 -244 65l-94 -180q-42 -82 -90 -170z" />
<glyph unicode="&#xd1;" horiz-adv-x="1478" d="M16 111q0 91 15 131q6 26 22 26q15 0 15 -16q0 -14 -4.5 -52.5t-4.5 -54.5q0 -132 58 -211q26 -33 58 -48t85 -15q74 0 140.5 37.5t113 92t88 132t66 141t45.5 134.5q86 283 98 417q-35 72 -76 117q-14 19 -14 23q0 10 28 25.5t39 15.5q5 0 8.5 -5t15.5 -26 q2 -4 3.5 -6.5l4.5 -7.5t5 -9q14 -25 24.5 -44t23 -41.5t19.5 -35.5t21 -41t21 -41.5t26.5 -52.5t29.5 -59.5t38 -77t45 -90.5q109 -222 178 -336q-6 44 -6 100q0 205 41 463t84 361q11 28 78 28q8 0 8 -6q0 -2 -6.5 -19.5t-14 -38t-8.5 -24.5q-41 -129 -77.5 -340.5 t-36.5 -459.5q0 -129 10 -158q16 -32 16 -33q0 -8 -24.5 -26.5t-36.5 -18.5q-17 0 -103 161.5t-188.5 367t-122.5 241.5q-75 -334 -151 -510q-84 -194 -205 -299.5t-258 -105.5q-56 0 -99 20.5t-68 51.5t-40.5 72.5t-21 77.5t-5.5 73zM932 1137q0 19 38 51.5t68 32.5h6.5 t5 -0.5t5.5 -1.5t5 -1t6 -2l6 -3t7 -4.5t8 -5t10.5 -6l12.5 -7.5q69 -41 80 -41q15 0 51 29q27 24 39 24q10 0 15.5 -9.5t2.5 -21.5q-7 -20 -39.5 -47.5t-72.5 -27.5q-24 0 -41.5 8.5t-67.5 40.5q-32 16 -45 16q-17 0 -57 -35q-12 -12 -25 -12q-9 0 -13.5 8t-4.5 15z" />
<glyph unicode="&#xd2;" horiz-adv-x="1214" d="M61 362q0 101 39 198t104 171.5t144.5 132.5t164.5 88.5t161 30.5q69 0 110 -22.5t41 -59.5q0 -22 -23.5 -38.5t-41.5 -16.5q-9 0 -16 6.5t-19 26.5q-41 55 -102 55q-39 0 -89 -19t-103.5 -52t-105 -83.5t-92 -108.5t-65.5 -131.5t-25 -148.5q0 -159 105.5 -274 t277.5 -115q87 0 186 38t183.5 101t140.5 155.5t56 190.5q0 52 -20 98.5t-61 86.5t-113.5 63t-168.5 23q-150 0 -272 -43q-4 -1 -31 -12t-33 -11q-8 0 -8 8q0 13 44 35t129 42t175 20q81 0 158.5 -18.5t143 -54t105.5 -95.5t40 -137q0 -88 -59 -185t-153.5 -176 t-224.5 -130.5t-260 -51.5q-92 0 -167 27.5t-121.5 70t-77.5 98.5t-43.5 110t-12.5 107zM541 1221q0 22 24 22q11 0 28.5 -10t33 -21.5t47.5 -37.5q48 -37 63 -51.5t15 -26.5q0 -9 -7 -16t-16 -7t-27 12.5t-90 67.5q-16 13 -32 25.5t-21.5 17t-7.5 6.5q-10 7 -10 19z" />
<glyph unicode="&#xd3;" horiz-adv-x="1214" d="M61 362q0 101 39 198t104 171.5t144.5 132.5t164.5 88.5t161 30.5q69 0 110 -22.5t41 -59.5q0 -22 -23.5 -38.5t-41.5 -16.5q-9 0 -16 6.5t-19 26.5q-41 55 -102 55q-39 0 -89 -19t-103.5 -52t-105 -83.5t-92 -108.5t-65.5 -131.5t-25 -148.5q0 -159 105.5 -274 t277.5 -115q87 0 186 38t183.5 101t140.5 155.5t56 190.5q0 52 -20 98.5t-61 86.5t-113.5 63t-168.5 23q-150 0 -272 -43q-4 -1 -31 -12t-33 -11q-8 0 -8 8q0 13 44 35t129 42t175 20q81 0 158.5 -18.5t143 -54t105.5 -95.5t40 -137q0 -88 -59 -185t-153.5 -176 t-224.5 -130.5t-260 -51.5q-92 0 -167 27.5t-121.5 70t-77.5 98.5t-43.5 110t-12.5 107zM616 1094q0 12 15.5 27.5t62.5 52.5q3 2 9 7q73 55 94 59l6 1q10 0 17 -6t7 -16q0 -9 -5.5 -14t-33.5 -27q-99 -76 -120.5 -91.5t-28.5 -15.5q-9 0 -16 7.5t-7 15.5z" />
<glyph unicode="&#xd4;" horiz-adv-x="1214" d="M61 362q0 101 39 198t104 171.5t144.5 132.5t164.5 88.5t161 30.5q69 0 110 -22.5t41 -59.5q0 -22 -23.5 -38.5t-41.5 -16.5q-9 0 -16 6.5t-19 26.5q-41 55 -102 55q-39 0 -89 -19t-103.5 -52t-105 -83.5t-92 -108.5t-65.5 -131.5t-25 -148.5q0 -159 105.5 -274 t277.5 -115q87 0 186 38t183.5 101t140.5 155.5t56 190.5q0 52 -20 98.5t-61 86.5t-113.5 63t-168.5 23q-150 0 -272 -43q-4 -1 -31 -12t-33 -11q-8 0 -8 8q0 13 44 35t129 42t175 20q81 0 158.5 -18.5t143 -54t105.5 -95.5t40 -137q0 -88 -59 -185t-153.5 -176 t-224.5 -130.5t-260 -51.5q-92 0 -167 27.5t-121.5 70t-77.5 98.5t-43.5 110t-12.5 107zM563 1073q0 21 139 131l-8 15q-8 15 -8 20q0 9 19 20t24 11q7 0 21 -33q22 -52 40.5 -80t53.5 -51q28 -19 28 -29q0 -18 -22 -18q-10 0 -28.5 7t-47.5 31t-47 60q-66 -54 -84 -72 q-32 -30 -53 -30q-11 0 -19 6t-8 12z" />
<glyph unicode="&#xd5;" horiz-adv-x="1214" d="M61 362q0 101 39 198t104 171.5t144.5 132.5t164.5 88.5t161 30.5q69 0 110 -22.5t41 -59.5q0 -22 -23.5 -38.5t-41.5 -16.5q-9 0 -16 6.5t-19 26.5q-41 55 -102 55q-39 0 -89 -19t-103.5 -52t-105 -83.5t-92 -108.5t-65.5 -131.5t-25 -148.5q0 -159 105.5 -274 t277.5 -115q87 0 186 38t183.5 101t140.5 155.5t56 190.5q0 52 -20 98.5t-61 86.5t-113.5 63t-168.5 23q-150 0 -272 -43q-4 -1 -31 -12t-33 -11q-8 0 -8 8q0 13 44 35t129 42t175 20q81 0 158.5 -18.5t143 -54t105.5 -95.5t40 -137q0 -88 -59 -185t-153.5 -176 t-224.5 -130.5t-260 -51.5q-92 0 -167 27.5t-121.5 70t-77.5 98.5t-43.5 110t-12.5 107zM514 1137q0 19 38.5 51.5t68.5 32.5q5 0 8 -0.5t6 -0.5t7 -1.5t6 -2.5t8 -4.5t9 -5.5t12 -7t15 -9q69 -41 80 -41q15 0 51 29q27 24 39 24q10 0 16 -9.5t3 -21.5q-7 -19 -40 -47 t-73 -28q-24 0 -41.5 8.5t-67.5 40.5q-32 16 -45 16q-17 0 -57 -35q-12 -12 -25 -12q-9 0 -13.5 8t-4.5 15z" />
<glyph unicode="&#xd6;" horiz-adv-x="1214" d="M61 362q0 101 39 198t104 171.5t144.5 132.5t164.5 88.5t161 30.5q69 0 110 -22.5t41 -59.5q0 -22 -23.5 -38.5t-41.5 -16.5q-9 0 -16 6.5t-19 26.5q-41 55 -102 55q-39 0 -89 -19t-103.5 -52t-105 -83.5t-92 -108.5t-65.5 -131.5t-25 -148.5q0 -159 105.5 -274 t277.5 -115q87 0 186 38t183.5 101t140.5 155.5t56 190.5q0 52 -20 98.5t-61 86.5t-113.5 63t-168.5 23q-150 0 -272 -43q-4 -1 -31 -12t-33 -11q-8 0 -8 8q0 13 44 35t129 42t175 20q81 0 158.5 -18.5t143 -54t105.5 -95.5t40 -137q0 -88 -59 -185t-153.5 -176 t-224.5 -130.5t-260 -51.5q-92 0 -167 27.5t-121.5 70t-77.5 98.5t-43.5 110t-12.5 107zM612 1112q0 8 21 88q8 29 15.5 39t25.5 10q22 0 22 -24q0 -16 -26 -99q-10 -39 -33 -39q-25 0 -25 25zM723 1083q0 6 6 31.5t14 55t9 34.5l2 6q2 6 2.5 7t2.5 5.5t3 5.5t3.5 4t5.5 3.5 t6.5 1t8.5 0.5q23 -4 23 -25q0 -9 -14.5 -63.5t-16.5 -58.5q-6 -29 -30 -29q-10 0 -17.5 6.5t-7.5 15.5z" />
<glyph unicode="&#xd7;" horiz-adv-x="872" d="M94 72l291 293l-291 290l51 52l291 -293l291 293l51 -52l-293 -290l293 -293l-51 -49l-291 290l-291 -290z" />
<glyph unicode="&#xd8;" horiz-adv-x="1214" d="M59 365q0 124 60 241t150.5 198t198.5 130t204 49q69 0 110 -22.5t41 -59.5q0 -22 -23.5 -38.5t-41.5 -16.5q-9 0 -16 6.5t-19 26.5q-39 55 -102 55q-39 0 -89 -19t-103.5 -52t-105 -83.5t-92 -108.5t-65.5 -131.5t-25 -148.5q0 -67 20.5 -127t36.5 -83t40 -52 q308 241 757 553q-92 76 -268 76q-150 0 -272 -43q-4 -1 -31 -12t-33 -11q-8 0 -8 8q0 13 44 35t129 42t175 20q81 0 153.5 -17.5t97.5 -29.5t62 -33q65 40 93 63q32 23 45 23q24 0 24 -23q0 -20 -32 -41q-7 -5 -42.5 -29.5t-39.5 -27.5q23 -22 38 -40t31.5 -57t16.5 -83 q0 -97 -61 -197.5t-157.5 -178.5t-224.5 -127.5t-254 -49.5q-75 0 -138 18.5t-86 33t-52 36.5q-32 -25 -82 -68q-20 -16 -31 -16q-8 0 -17 9t-9 20q0 12 14 24q31 22 86 68q-54 59 -80.5 137.5t-26.5 153.5zM274 92q104 -90 250 -90q90 0 190.5 39t183.5 103t137.5 154 t54.5 183q0 91 -54 164q-524 -364 -762 -553z" />
<glyph unicode="&#xd9;" horiz-adv-x="1290" d="M47 608q0 146 203 228q136 54 338 71q0 58 4 62q6 10 33.5 23.5t42.5 13.5q5 0 10.5 -4t5.5 -13q0 -4 -3 -23t-6.5 -42t-4.5 -27q-90 -655 -90 -899q0 -55 5 -70.5t19 -15.5q42 0 148 172t194 363t88 245q0 10 -3 38t-7.5 60.5t-9 63.5t-7.5 52l-3 22q0 15 33 30t48 15 q10 0 12.5 -19t2.5 -98q17 -623 94 -766q15 -27 57 -41q22 -11 23 -14q0 -9 -19 -35.5t-36 -26.5q-9 0 -20.5 3t-37 28t-43.5 70q-47 120 -76 473q-27 -65 -62.5 -144.5t-106.5 -214.5t-134 -221q-82 -112 -157 -112q-42 0 -55 26.5t-13 91.5q0 115 21 351q3 44 25.5 265.5 t25.5 256.5q-82 -2 -163.5 -15.5t-156.5 -39t-121.5 -70t-46.5 -100.5q0 -41 24 -71t48 -30q14 0 17 -1.5t3 -10.5q0 -6 -1.5 -15t-10 -20.5t-22.5 -11.5q-34 0 -71.5 43t-37.5 104zM739 1221q0 11 8 16.5t17 5.5q8 0 18 -4t27 -16t27 -20t36 -29q48 -37 63 -51.5t15 -26.5 q0 -9 -6.5 -16t-15.5 -7t-27 12.5t-90 67.5q-16 13 -32 25.5t-21.5 17t-7.5 6.5q-11 7 -11 19z" />
<glyph unicode="&#xda;" horiz-adv-x="1290" d="M47 608q0 146 203 228q136 54 338 71q0 58 4 62q6 10 33.5 23.5t42.5 13.5q5 0 10.5 -4t5.5 -13q0 -4 -3 -23t-6.5 -42t-4.5 -27q-90 -655 -90 -899q0 -55 5 -70.5t19 -15.5q42 0 148 172t194 363t88 245q0 10 -3 38t-7.5 60.5t-9 63.5t-7.5 52l-3 22q0 15 33 30t48 15 q10 0 12.5 -19t2.5 -98q17 -623 94 -766q15 -27 57 -41q22 -11 23 -14q0 -9 -19 -35.5t-36 -26.5q-9 0 -20.5 3t-37 28t-43.5 70q-47 120 -76 473q-27 -65 -62.5 -144.5t-106.5 -214.5t-134 -221q-82 -112 -157 -112q-42 0 -55 26.5t-13 91.5q0 115 21 351q3 44 25.5 265.5 t25.5 256.5q-82 -2 -163.5 -15.5t-156.5 -39t-121.5 -70t-46.5 -100.5q0 -41 24 -71t48 -30q14 0 17 -1.5t3 -10.5q0 -6 -1.5 -15t-10 -20.5t-22.5 -11.5q-34 0 -71.5 43t-37.5 104zM819 1094q0 12 15.5 27.5t62.5 52.5q3 2 9 7q73 55 94 59l6 1q10 0 17 -6t7 -16 q0 -9 -5.5 -14t-33.5 -27q-99 -76 -120.5 -91.5t-28.5 -15.5q-9 0 -16 7.5t-7 15.5z" />
<glyph unicode="&#xdb;" horiz-adv-x="1290" d="M47 608q0 146 203 228q136 54 338 71q0 58 4 62q6 10 33.5 23.5t42.5 13.5q5 0 10.5 -4t5.5 -13q0 -4 -3 -23t-6.5 -42t-4.5 -27q-90 -655 -90 -899q0 -55 5 -70.5t19 -15.5q42 0 148 172t194 363t88 245q0 10 -3 38t-7.5 60.5t-9 63.5t-7.5 52l-3 22q0 15 33 30t48 15 q10 0 12.5 -19t2.5 -98q17 -623 94 -766q15 -27 57 -41q22 -11 23 -14q0 -9 -19 -35.5t-36 -26.5q-9 0 -20.5 3t-37 28t-43.5 70q-47 120 -76 473q-27 -65 -62.5 -144.5t-106.5 -214.5t-134 -221q-82 -112 -157 -112q-42 0 -55 26.5t-13 91.5q0 115 21 351q3 44 25.5 265.5 t25.5 256.5q-82 -2 -163.5 -15.5t-156.5 -39t-121.5 -70t-46.5 -100.5q0 -41 24 -71t48 -30q14 0 17 -1.5t3 -10.5q0 -6 -1.5 -15t-10 -20.5t-22.5 -11.5q-34 0 -71.5 43t-37.5 104zM719 1073q0 21 139 131l-8 15q-8 15 -8 20q0 9 19 20t24 11q4 0 7.5 -5.5t12.5 -27.5 q22 -52 40.5 -80t53.5 -51q29 -19 29 -29q0 -18 -22 -18q-10 0 -28.5 7t-47.5 31t-47 60q-66 -54 -84 -72q-32 -30 -54 -30q-11 0 -18.5 5.5t-7.5 12.5z" />
<glyph unicode="&#xdc;" horiz-adv-x="1290" d="M47 608q0 146 203 228q136 54 338 71q0 58 4 62q6 10 33.5 23.5t42.5 13.5q5 0 10.5 -4t5.5 -13q0 -4 -3 -23t-6.5 -42t-4.5 -27q-90 -655 -90 -899q0 -55 5 -70.5t19 -15.5q42 0 148 172t194 363t88 245q0 10 -3 38t-7.5 60.5t-9 63.5t-7.5 52l-3 22q0 15 33 30t48 15 q10 0 12.5 -19t2.5 -98q17 -623 94 -766q15 -27 57 -41q22 -11 23 -14q0 -9 -19 -35.5t-36 -26.5q-9 0 -20.5 3t-37 28t-43.5 70q-47 120 -76 473q-27 -65 -62.5 -144.5t-106.5 -214.5t-134 -221q-82 -112 -157 -112q-42 0 -55 26.5t-13 91.5q0 115 21 351q3 44 25.5 265.5 t25.5 256.5q-82 -2 -163.5 -15.5t-156.5 -39t-121.5 -70t-46.5 -100.5q0 -41 24 -71t48 -30q14 0 17 -1.5t3 -10.5q0 -6 -1.5 -15t-10 -20.5t-22.5 -11.5q-34 0 -71.5 43t-37.5 104zM791 1112q0 11 20 88q8 29 15.5 39t25.5 10q22 0 22 -24q0 -16 -26 -99q-10 -39 -33 -39 q-24 0 -24 25zM901 1083q0 6 6 31.5t14 55t9 34.5q0 1 1 3q4 11 6.5 16.5t9.5 10t18 3.5q22 -4 22 -25q0 -9 -14.5 -63.5t-16.5 -58.5q-6 -29 -30 -29q-10 0 -17.5 6.5t-7.5 15.5z" />
<glyph unicode="&#xdd;" horiz-adv-x="1099" d="M49 664q0 34 20 64.5t58 53.5t80.5 42t100.5 34.5t104.5 25.5t105.5 21q-8 16 -8 29t30.5 23t43.5 10q10 0 13.5 -7t4.5 -34q2 -40 6 -225t4 -199q16 -335 25 -398q0 -22 12 -22t45 59q31 48 95 182.5t106 276.5q-29 72 -37 88q-1 4 -10.5 22.5t-9.5 20.5q0 11 32 28 t41 17q11 0 18 -13.5t21 -70.5q60 -225 60 -475q0 -42 -3 -95t-21 -157t-50 -186q-73 -203 -246 -203q-113 0 -200.5 75.5t-141.5 194.5q-22 48 -41.5 129.5t-19.5 126.5q0 19 19 30t44 11q19 0 19 -18q0 -5 -3.5 -33.5t-3.5 -32.5q0 -111 48.5 -212.5t125.5 -161.5t158 -60 q50 0 90.5 26.5t66 67t45 97t29 107.5t15.5 108t7 89t1 60q0 181 -33 305q-24 -66 -82 -192.5t-108 -208.5q-29 -45 -50 -63.5t-48 -18.5q-31 0 -41.5 24t-16.5 105q-4 50 -21.5 354t-21.5 359q-76 -1 -172 -24t-169.5 -62.5t-73.5 -79.5q0 -12 6.5 -21t10.5 -10.5t13 -5.5 q17 -5 24 -10.5t7 -16.5q0 -14 -10.5 -23t-30.5 -9q-32 0 -57 23.5t-25 58.5zM700 1094q0 12 15.5 27.5t62.5 52.5q3 2 9 7q73 55 94 59l6 1q10 0 17 -6t7 -16q0 -9 -5.5 -14t-33.5 -27q-99 -76 -120.5 -91.5t-28.5 -15.5q-9 0 -16 7.5t-7 15.5z" />
<glyph unicode="&#xde;" horiz-adv-x="681" d="M104 344q0 246 31 518q3 21 5.5 31t10 23.5t21.5 19.5t37 6q24 0 24 -16q0 -1 -4 -20t-4 -21q-9 -43 -18 -105q80 22 114.5 30.5t91.5 18t103 9.5q49 0 87 -9.5t58.5 -23.5t33.5 -32.5t16.5 -32.5t3.5 -27q0 -63 -70 -153.5t-147 -151.5q-143 -111 -324 -129 q0 -252 59 -252q15 0 41 18q6 6 17 6q6 0 13 -5t7 -13q0 -20 -27.5 -41t-60.5 -21q-83 0 -102 123q-17 79 -17 250zM174 332q166 23 289 121q66 53 122 126.5t56 125.5q0 23 -14 39.5t-37.5 24t-44.5 10.5t-43 3q-65 0 -152 -17.5t-153 -39.5q-23 -171 -23 -393z" />
<glyph unicode="&#xdf;" horiz-adv-x="796" d="M-20 -401q0 102 49.5 360t126.5 451q82 208 216.5 356.5t241.5 148.5q28 0 45 -17t17 -46q0 -122 -324 -358q30 6 72 6q129 0 228.5 -62t99.5 -151q0 -46 -32.5 -97.5t-85.5 -95t-130 -72t-158 -28.5q-58 0 -101.5 12t-64 29.5t-30 33t-9.5 27.5q0 20 11.5 43t27.5 23 q13 0 15 -31q5 -31 45 -55.5t116 -24.5q141 0 234.5 74.5t93.5 155.5q0 67 -84.5 117.5t-183.5 50.5q-62 0 -121.5 -21.5t-91.5 -46.5q-46 -125 -91.5 -328t-45.5 -336v-114q-3 -11 -26 -22t-34 -11q-26 0 -26 29zM244 467q73 51 149.5 115t142.5 138t66 114q0 22 -22 22 q-29 0 -88 -49.5t-130 -143t-118 -196.5z" />
<glyph unicode="&#xe0;" d="M39 47q0 48 35.5 129.5t85 157.5t108 132t99.5 56q6 0 14 -4q0 2 -4 20.5t-7 33t-3 16.5q0 18 21.5 28.5t37.5 10.5q23 0 23 -29q0 -135 31 -313.5t69 -227.5q1 -2 23 -18t22 -21q0 -8 -9 -17t-22 -9q-69 0 -100 104q-38 112 -57 258q-19 -33 -55.5 -86.5t-85 -117 t-96.5 -108t-77 -44.5q-16 0 -34.5 11t-18.5 38zM98 76q0 -13 8 -13q19 0 88 82t130 173t61 114q0 13 -8 22t-21 9q-36 0 -99.5 -82t-111 -175.5t-47.5 -129.5zM279 803q0 22 24 22q11 0 28.5 -10t33 -21.5t47.5 -37.5q47 -36 62 -51t15 -27q0 -9 -6.5 -16t-15.5 -7 t-27 12.5t-90 67.5q-16 13 -32 25.5t-21.5 17t-7.5 6.5q-10 7 -10 19z" />
<glyph unicode="&#xe1;" d="M39 47q0 48 35.5 129.5t85 157.5t108 132t99.5 56q6 0 14 -4q0 2 -4 20.5t-7 33t-3 16.5q0 18 21.5 28.5t37.5 10.5q23 0 23 -29q0 -135 31 -313.5t69 -227.5q1 -2 23 -18t22 -21q0 -8 -9 -17t-22 -9q-69 0 -100 104q-38 112 -57 258q-19 -33 -55.5 -86.5t-85 -117 t-96.5 -108t-77 -44.5q-16 0 -34.5 11t-18.5 38zM98 76q0 -13 8 -13q19 0 88 82t130 173t61 114q0 13 -8 22t-21 9q-36 0 -99.5 -82t-111 -175.5t-47.5 -129.5zM274 676q0 12 15.5 27.5t62.5 52.5q3 2 9 7q73 55 94 59l6 1q10 0 17 -6t7 -16q0 -9 -5.5 -14t-33.5 -27 q-99 -76 -120.5 -91.5t-28.5 -15.5q-9 0 -16 7.5t-7 15.5z" />
<glyph unicode="&#xe2;" d="M39 47q0 48 35.5 129.5t85 157.5t108 132t99.5 56q6 0 14 -4q0 2 -4 20.5t-7 33t-3 16.5q0 18 21.5 28.5t37.5 10.5q23 0 23 -29q0 -135 31 -313.5t69 -227.5q1 -2 23 -18t22 -21q0 -8 -9 -17t-22 -9q-69 0 -100 104q-38 112 -57 258q-19 -33 -55.5 -86.5t-85 -117 t-96.5 -108t-77 -44.5q-16 0 -34.5 11t-18.5 38zM98 76q0 -13 8 -13q19 0 88 82t130 173t61 114q0 13 -8 22t-21 9q-36 0 -99.5 -82t-111 -175.5t-47.5 -129.5zM248 655q0 21 139 131l-8 15q-8 15 -8 20q0 9 19 20t24 11q4 0 7.5 -5.5t12.5 -27.5q22 -52 40.5 -80t53.5 -51 q29 -19 29 -29q0 -18 -22 -18q-10 0 -28.5 7t-47.5 31t-47 60q-72 -59 -84 -71q-33 -31 -54 -31q-11 0 -18.5 5.5t-7.5 12.5z" />
<glyph unicode="&#xe3;" d="M39 47q0 48 35.5 129.5t85 157.5t108 132t99.5 56q6 0 14 -4q0 2 -4 20.5t-7 33t-3 16.5q0 18 21.5 28.5t37.5 10.5q23 0 23 -29q0 -135 31 -313.5t69 -227.5q1 -2 23 -18t22 -21q0 -8 -9 -17t-22 -9q-69 0 -100 104q-38 112 -57 258q-19 -33 -55.5 -86.5t-85 -117 t-96.5 -108t-77 -44.5q-16 0 -34.5 11t-18.5 38zM98 76q0 -13 8 -13q19 0 88 82t130 173t61 114q0 13 -8 22t-21 9q-36 0 -99.5 -82t-111 -175.5t-47.5 -129.5zM205 719q0 19 38 51.5t68 32.5h6.5t5 -0.5t5.5 -1.5t5 -1t6 -2l6 -3t7 -4.5t8 -5t10.5 -6l12.5 -7.5 q69 -41 80 -41q15 0 51 29q27 24 39 24q10 0 15.5 -9t2.5 -21q-7 -20 -39.5 -48t-72.5 -28q-24 0 -41.5 8.5t-67.5 40.5q-32 16 -45 16q-18 0 -57 -34q-13 -13 -25 -13q-9 0 -13.5 8t-4.5 15z" />
<glyph unicode="&#xe4;" d="M39 47q0 48 35.5 129.5t85 157.5t108 132t99.5 56q6 0 14 -4q0 2 -4 20.5t-7 33t-3 16.5q0 18 21.5 28.5t37.5 10.5q23 0 23 -29q0 -135 31 -313.5t69 -227.5q1 -2 23 -18t22 -21q0 -8 -9 -17t-22 -9q-69 0 -100 104q-38 112 -57 258q-19 -33 -55.5 -86.5t-85 -117 t-96.5 -108t-77 -44.5q-16 0 -34.5 11t-18.5 38zM98 76q0 -13 8 -13q19 0 88 82t130 173t61 114q0 13 -8 22t-21 9q-36 0 -99.5 -82t-111 -175.5t-47.5 -129.5zM307 694q0 8 21 88q8 29 15.5 39t25.5 10q22 0 22 -24q0 -15 -26 -98q-10 -39 -33 -39q-25 0 -25 24zM418 666 q0 6 6 31.5t13.5 54.5t8.5 34q0 1 1 3q4 11 6.5 16.5t9.5 10t18 3.5q23 -4 23 -24q0 -9 -14.5 -64t-16.5 -59q-6 -29 -31 -29q-10 0 -17 7t-7 16z" />
<glyph unicode="&#xe5;" d="M39 47q0 48 35.5 129.5t85 157.5t108 132t99.5 56q6 0 14 -4q0 2 -4 20.5t-7 33t-3 16.5q0 18 21.5 28.5t37.5 10.5q23 0 23 -29q0 -135 31 -313.5t69 -227.5q1 -2 23 -18t22 -21q0 -8 -9 -17t-22 -9q-69 0 -100 104q-38 112 -57 258q-19 -33 -55.5 -86.5t-85 -117 t-96.5 -108t-77 -44.5q-16 0 -34.5 11t-18.5 38zM98 76q0 -13 8 -13q19 0 88 82t130 173t61 114q0 13 -8 22t-21 9q-36 0 -99.5 -82t-111 -175.5t-47.5 -129.5zM285 735q0 57 37.5 98t74.5 41q9 0 29 -10q2 2 5 6.5t5 6.5q8 4 19 4q26 0 48.5 -24t22.5 -62q0 -58 -39.5 -107 t-105.5 -49q-26 0 -45 8.5t-28.5 19.5t-15 26.5t-6.5 24.5t-1 17zM340 739q0 -49 47 -49q42 0 64 33t22 65q0 20 -10.5 30.5t-18.5 10.5q-1 0 -10.5 -5t-11.5 -5q-15 4 -19 4q-17 0 -40 -24t-23 -60z" />
<glyph unicode="&#xe6;" horiz-adv-x="872" d="M41 51q0 49 68 151.5t162 188.5t155 86q17 0 31 -14l-4 69q0 11 2 17.5t16 14t41 7.5t27 -12q0 -7 -10.5 -64.5t-14.5 -154.5q108 225 227 225q38 0 58 -20.5t20 -46.5q0 -18 -14 -49t-44.5 -73.5t-94.5 -88.5t-150 -80q1 -24 2 -38.5t7 -39.5t15.5 -39.5t29 -26.5 t46.5 -12q62 0 166 66q36 22 45 22q8 0 13.5 -5.5t5.5 -12.5q0 -16 -41.5 -45.5t-102 -54.5t-106.5 -25q-55 0 -87.5 28t-42 73t-12 101.5t2.5 112.5q-44 -52 -97.5 -106t-82.5 -80.5t-37 -32.5q-99 -90 -150 -90q-28 0 -38.5 16.5t-10.5 32.5zM102 74q0 -11 11 -11 q18 0 99.5 70.5t156.5 152t75 107.5q0 11 -9.5 19t-20.5 8q-38 0 -115 -73.5t-137 -158t-60 -114.5zM528 268q91 37 161.5 111t70.5 113q0 22 -29 22q-28 0 -73 -51t-77.5 -103t-52.5 -92z" />
<glyph unicode="&#xe7;" horiz-adv-x="417" d="M33 -250q0 7 4.5 12t8 6t5.5 1t8 -3.5t13 -8t8 -5.5q20 -10 43 -10q38 0 62 27t24 61q0 28 -14.5 38.5t-28.5 10.5q-21 0 -51 -18q-34 -21 -37 -21q-6 0 -10.5 6t-4.5 11q0 10 31 80q20 47 25 55q-78 25 -78 149q0 94 43 193t105.5 162t117.5 63q21 0 35 -9t14 -26 q0 -21 -20.5 -44t-38.5 -23q-14 0 -14 10q0 3 7 17.5t7 17.5q0 6 -8 6q-15 0 -44.5 -30.5t-59.5 -78t-52 -115t-22 -130.5q0 -111 55 -111q31 0 62 23t77 77l68 86q13 13 20 13q5 0 11 -5t6 -12q0 -12 -22.5 -49.5t-57 -80.5t-83.5 -75.5t-93 -31.5q-9 -23 -16 -38 t-14.5 -29t-10.5 -21q1 1 8 5.5t10 6l10 5t12 5t13 3t16 1.5q35 0 56.5 -26t21.5 -66q0 -61 -41.5 -97t-93.5 -36q-34 0 -63 14.5t-29 34.5z" />
<glyph unicode="&#xe8;" horiz-adv-x="454" d="M70 182q0 57 13 123t37 128.5t65 103.5t91 41q26 0 47 -16t21 -56q0 -71 -57.5 -160.5t-149.5 -148.5q-2 -39 4 -71.5t27.5 -57.5t56.5 -25q64 0 178 92q37 31 50 31q6 0 10 -5t4 -11q0 -18 -41 -56q-118 -106 -211 -106q-36 0 -63.5 14t-42.5 34t-24.5 48t-12 50.5 t-2.5 47.5zM137 264q55 36 101.5 110t46.5 113q0 33 -25 33q-36 0 -73.5 -87t-49.5 -169zM164 803q0 22 24 22q11 0 28.5 -10t33 -21.5t47.5 -37.5q48 -37 63 -51.5t15 -26.5q0 -9 -7 -16t-16 -7t-25.5 11.5t-90.5 68.5q-17 14 -32.5 26t-21.5 16.5t-8 6.5q-10 7 -10 19z " />
<glyph unicode="&#xe9;" horiz-adv-x="454" d="M70 182q0 57 13 123t37 128.5t65 103.5t91 41q26 0 47 -16t21 -56q0 -71 -57.5 -160.5t-149.5 -148.5q-2 -39 4 -71.5t27.5 -57.5t56.5 -25q64 0 178 92q37 31 50 31q6 0 10 -5t4 -11q0 -18 -41 -56q-118 -106 -211 -106q-36 0 -63.5 14t-42.5 34t-24.5 48t-12 50.5 t-2.5 47.5zM137 264q55 36 101.5 110t46.5 113q0 33 -25 33q-36 0 -73.5 -87t-49.5 -169zM209 676q0 12 15.5 27.5t62.5 52.5q74 57 93 64q8 3 15 3q10 0 17.5 -6t7.5 -16q0 -9 -5.5 -14t-33.5 -27q-95 -73 -119 -90t-31 -17q-9 0 -15.5 7.5t-6.5 15.5z" />
<glyph unicode="&#xea;" horiz-adv-x="454" d="M70 182q0 57 13 123t37 128.5t65 103.5t91 41q26 0 47 -16t21 -56q0 -71 -57.5 -160.5t-149.5 -148.5q-2 -39 4 -71.5t27.5 -57.5t56.5 -25q64 0 178 92q37 31 50 31q6 0 10 -5t4 -11q0 -18 -41 -56q-118 -106 -211 -106q-36 0 -63.5 14t-42.5 34t-24.5 48t-12 50.5 t-2.5 47.5zM113 655q0 21 139 131l-8 15q-8 15 -8 20q0 9 19 20t24 11q4 0 7.5 -5.5t12.5 -27.5q22 -52 40.5 -80t53.5 -51q29 -19 29 -29q0 -18 -23 -18q-10 0 -28.5 7t-47.5 31t-47 60q-66 -54 -83 -71q-33 -31 -54 -31q-11 0 -18.5 5.5t-7.5 12.5zM137 264 q55 36 101.5 110t46.5 113q0 33 -25 33q-36 0 -73.5 -87t-49.5 -169z" />
<glyph unicode="&#xeb;" horiz-adv-x="454" d="M70 182q0 57 13 123t37 128.5t65 103.5t91 41q26 0 47 -16t21 -56q0 -71 -57.5 -160.5t-149.5 -148.5q-2 -39 4 -71.5t27.5 -57.5t56.5 -25q64 0 178 92q37 31 50 31q6 0 10 -5t4 -11q0 -18 -41 -56q-118 -106 -211 -106q-36 0 -63.5 14t-42.5 34t-24.5 48t-12 50.5 t-2.5 47.5zM137 264q55 36 101.5 110t46.5 113q0 33 -25 33q-36 0 -73.5 -87t-49.5 -169zM190 694q0 8 21 88q8 29 15.5 39t25.5 10q22 0 22 -24q0 -15 -26 -98q-10 -39 -33 -39q-25 0 -25 24zM301 666q0 6 6 31.5t14 54t9 34.5q0 1 1 3q4 11 6.5 16.5t9.5 10t18 3.5 q22 -4 22 -24q0 -9 -14.5 -64t-16.5 -59q-6 -29 -30 -29q-10 0 -17.5 7t-7.5 16z" />
<glyph unicode="&#xec;" horiz-adv-x="303" d="M33 803q0 22 24 22q11 0 28.5 -10t33 -21.5t47.5 -37.5q48 -37 63 -51.5t15 -26.5q0 -9 -7 -16t-16 -7t-27 12.5t-90 67.5q-16 13 -32 25.5t-21.5 17t-7.5 6.5q-10 7 -10 19zM78 342q0 136 18 154q9 9 26.5 17.5t31.5 8.5q20 0 20 -18q0 -4 -3.5 -16.5t-7.5 -26t-5 -15.5 q-17 -83 -17 -182q0 -225 58 -233q24 -4 28 -6.5t4 -10.5q0 -17 -20 -27t-39 -10q-20 0 -34.5 10.5t-23 30.5t-11.5 30.5t-7 29.5q-18 93 -18 264z" />
<glyph unicode="&#xed;" horiz-adv-x="303" d="M49 676q0 12 15.5 27.5t62.5 52.5q76 58 97 65q6 2 12 2q10 0 17 -6t7 -16q0 -9 -5.5 -14t-33.5 -27q-99 -76 -120.5 -91.5t-28.5 -15.5q-9 0 -16 7.5t-7 15.5zM78 342q0 136 18 154q9 9 26.5 17.5t31.5 8.5q20 0 20 -18q0 -4 -3.5 -16.5t-7.5 -26t-5 -15.5 q-17 -83 -17 -182q0 -225 58 -233q24 -4 28 -6.5t4 -10.5q0 -17 -20 -27t-39 -10q-20 0 -34.5 10.5t-23 30.5t-11.5 30.5t-7 29.5q-18 93 -18 264z" />
<glyph unicode="&#xee;" horiz-adv-x="303" d="M0 655q0 21 139 131l-8 15q-8 15 -8 20q0 9 19 20t24 11q4 0 7.5 -5.5t12.5 -27.5q22 -51 41 -79.5t54 -51.5q28 -19 28 -29q0 -18 -22 -18q-10 0 -28.5 7t-47.5 31t-47 60q-72 -59 -84 -71q-33 -31 -53 -31q-11 0 -19 6t-8 12zM78 342q0 136 18 154q9 9 26.5 17.5 t31.5 8.5q20 0 20 -18q0 -4 -3.5 -16.5t-7.5 -26t-5 -15.5q-17 -83 -17 -182q0 -225 58 -233q24 -4 28 -6.5t4 -10.5q0 -17 -20 -27t-39 -10q-20 0 -34.5 10.5t-23 30.5t-11.5 30.5t-7 29.5q-18 93 -18 264z" />
<glyph unicode="&#xef;" horiz-adv-x="303" d="M57 694q0 8 21 88q8 29 15.5 39t25.5 10q22 0 22 -24q0 -15 -26 -98q-10 -39 -33 -39q-25 0 -25 24zM78 342q0 136 18 154q9 9 26.5 17.5t31.5 8.5q20 0 20 -18q0 -4 -3.5 -16.5t-7.5 -26t-5 -15.5q-17 -83 -17 -182q0 -225 58 -233q24 -4 28 -6.5t4 -10.5q0 -17 -20 -27 t-39 -10q-20 0 -34.5 10.5t-23 30.5t-11.5 30.5t-7 29.5q-18 93 -18 264zM168 666q0 6 6 31.5t14 54t9 34.5l2 6q2 6 2.5 7t2.5 5.5t3 5.5t3.5 4t5.5 3.5t6.5 1t8.5 0.5q23 -4 23 -24q0 -9 -14.5 -64t-16.5 -59q-6 -29 -30 -29q-10 0 -17.5 7t-7.5 16z" />
<glyph unicode="&#xf0;" horiz-adv-x="530" d="M41 260q0 89 54.5 153t144.5 64q39 0 72 -11.5t47 -21t34 -26.5q-58 173 -164 303q-4 -4 -32.5 -31.5t-51.5 -48t-28 -20.5q-8 0 -15.5 5.5t-7.5 16.5q0 28 105 111q-28 28 -47.5 39.5t-49.5 17.5q-19 3 -25.5 8t-6.5 19q0 23 20 34t37 11q18 0 44 -18.5t38.5 -31 t38.5 -40.5q43 35 92 63.5t70 28.5q8 0 16 -8t8 -17q0 -29 -45 -39q-9 -2 -22.5 -8.5t-28 -16t-26.5 -17.5t-22 -15l-11 -8q22 -27 52 -74.5t69.5 -122t66.5 -164.5t27 -170q0 -64 -19 -111.5t-50.5 -72t-64 -36t-67.5 -11.5q-100 0 -176 78.5t-76 187.5zM104 266 q0 -84 59 -149.5t142 -65.5q62 0 93.5 44.5t31.5 117.5q0 56 -18 98t-47 64t-59 32.5t-60 10.5q-69 0 -105.5 -44t-36.5 -108z" />
<glyph unicode="&#xf1;" horiz-adv-x="569" d="M61 12q0 26 18.5 236.5t22.5 218.5t33 22.5t33 14.5t8 -6t4 -15q0 -7 -16 -98q-34 -197 -41 -289q87 176 166 314q49 92 69 116.5t52 24.5q10 0 15 -5.5t5 -10.5l-16 -64q-13 -70 -13 -129q0 -17 1 -42.5t7 -74t16.5 -87t31.5 -68t49 -29.5q22 0 47 18q19 15 27 15 q16 0 16 -19q0 -20 -33 -37.5t-67 -17.5q-48 0 -82 34t-49 91.5t-21 110.5t-6 114q0 8 4 58q-26 -44 -90 -170t-100 -205q-20 -40 -25 -48t-14 -8q-7 0 -29.5 11.5t-22.5 23.5zM145 719q0 19 38.5 51.5t68.5 32.5h6.5t5 -0.5t5.5 -1.5t5 -1t6 -2l6 -3t7 -4.5t8 -5t10.5 -6 l12.5 -7.5q69 -41 79 -41q16 0 52 29q27 24 39 24q10 0 15.5 -9t2.5 -21q-7 -20 -40 -48t-73 -28q-24 0 -40.5 8t-67.5 41q-32 16 -45 16q-19 0 -58 -34q-13 -13 -24 -13q-9 0 -14 8t-5 15z" />
<glyph unicode="&#xf2;" horiz-adv-x="530" d="M43 250q0 113 56.5 197.5t121.5 84.5q17 0 31 -14q21 14 51 14q70 0 129.5 -65t59.5 -166q0 -49 -17.5 -102t-49 -99t-81.5 -76t-108 -30q-91 0 -142 75.5t-51 180.5zM106 276q0 -105 46.5 -163t105.5 -58q61 0 114.5 63t53.5 154q0 92 -46 155t-116 54q-3 -17 -14 -30 t-23 -13q-6 0 -12 6q-2 2 -5 4.5t-4.5 4t-4 3t-3.5 2.5t-3 1.5l-4 1t-5 0.5q-24 0 -52 -54.5t-28 -130.5zM145 803q0 11 8 16.5t17 5.5q11 0 28.5 -10t33 -21.5t47.5 -37.5q47 -36 62 -51t15 -27q0 -9 -6.5 -16t-15.5 -7t-27 12.5t-90 67.5q-16 13 -32 25.5t-21.5 17 t-7.5 6.5q-11 7 -11 19z" />
<glyph unicode="&#xf3;" horiz-adv-x="530" d="M43 250q0 113 56.5 197.5t121.5 84.5q17 0 31 -14q21 14 51 14q70 0 129.5 -65t59.5 -166q0 -49 -17.5 -102t-49 -99t-81.5 -76t-108 -30q-91 0 -142 75.5t-51 180.5zM106 276q0 -105 46.5 -163t105.5 -58q61 0 114.5 63t53.5 154q0 92 -46 155t-116 54q-3 -17 -14 -30 t-23 -13q-6 0 -12 6q-2 2 -5 4.5t-4.5 4t-4 3t-3.5 2.5t-3 1.5l-4 1t-5 0.5q-24 0 -52 -54.5t-28 -130.5zM207 676q0 12 15.5 27.5t62.5 52.5q74 57 93 64q8 3 15 3q10 0 17.5 -6t7.5 -16q0 -9 -5.5 -14t-33.5 -27q-95 -73 -119 -90t-31 -17q-9 0 -15.5 7.5t-6.5 15.5z" />
<glyph unicode="&#xf4;" horiz-adv-x="530" d="M43 250q0 113 56.5 197.5t121.5 84.5q17 0 31 -14q21 14 51 14q70 0 129.5 -65t59.5 -166q0 -49 -17.5 -102t-49 -99t-81.5 -76t-108 -30q-91 0 -142 75.5t-51 180.5zM106 276q0 -105 46.5 -163t105.5 -58q61 0 114.5 63t53.5 154q0 92 -46 155t-116 54q-3 -17 -14 -30 t-23 -13q-6 0 -12 6q-2 2 -5 4.5t-4.5 4t-4 3t-3.5 2.5t-3 1.5l-4 1t-5 0.5q-24 0 -52 -54.5t-28 -130.5zM111 655q0 21 139 131l-8 15q-9 15 -9 20q0 9 19 20t24 11q7 0 21 -33q22 -52 40.5 -80t53.5 -51q29 -19 29 -29q0 -18 -23 -18q-10 0 -28.5 7t-47.5 31t-47 60 q-72 -59 -84 -71q-33 -31 -53 -31q-11 0 -18.5 5.5t-7.5 12.5z" />
<glyph unicode="&#xf5;" horiz-adv-x="530" d="M43 250q0 113 56.5 197.5t121.5 84.5q17 0 31 -14q21 14 51 14q70 0 129.5 -65t59.5 -166q0 -49 -17.5 -102t-49 -99t-81.5 -76t-108 -30q-91 0 -142 75.5t-51 180.5zM106 276q0 -105 46.5 -163t105.5 -58q61 0 114.5 63t53.5 154q0 92 -46 155t-116 54q-3 -17 -14 -30 t-23 -13q-6 0 -12 6q-2 2 -5 4.5t-4.5 4t-4 3t-3.5 2.5t-3 1.5l-4 1t-5 0.5q-24 0 -52 -54.5t-28 -130.5zM121 719q0 19 38 51.5t68 32.5h6.5t5 -0.5t5.5 -1.5t5 -1t6 -2l6 -3t7 -4.5t8 -5t10.5 -6l12.5 -7.5q69 -41 80 -41q15 0 51 29q27 24 39 24q10 0 15.5 -9t2.5 -21 q-7 -20 -39.5 -48t-72.5 -28q-24 0 -41.5 8.5t-67.5 40.5q-32 16 -45 16q-18 0 -57 -34q-13 -13 -25 -13q-9 0 -13.5 8t-4.5 15z" />
<glyph unicode="&#xf6;" horiz-adv-x="530" d="M43 250q0 113 56.5 197.5t121.5 84.5q17 0 31 -14q21 14 51 14q70 0 129.5 -65t59.5 -166q0 -49 -17.5 -102t-49 -99t-81.5 -76t-108 -30q-91 0 -142 75.5t-51 180.5zM106 276q0 -105 46.5 -163t105.5 -58q61 0 114.5 63t53.5 154q0 92 -46 155t-116 54q-3 -17 -14 -30 t-23 -13q-6 0 -12 6q-2 2 -5 4.5t-4.5 4t-4 3t-3.5 2.5t-3 1.5l-4 1t-5 0.5q-24 0 -52 -54.5t-28 -130.5zM197 694q0 11 20 88q8 29 15.5 39t25.5 10q11 0 17 -7.5t6 -16.5q0 -12 -27 -98q-10 -39 -33 -39q-24 0 -24 24zM307 666q0 6 6 31.5t14 54t9 34.5q0 1 1 3 q4 11 6.5 16.5t9.5 10t18 3.5q22 -4 22 -24q0 -9 -14.5 -64t-16.5 -59q-6 -29 -30 -29q-10 0 -17.5 7t-7.5 16z" />
<glyph unicode="&#xf7;" horiz-adv-x="872" d="M74 332v65h725v-65h-725zM373 106q0 26 18.5 45t44.5 19q25 0 44.5 -18.5t19.5 -45.5t-18.5 -45t-45.5 -18q-26 0 -44.5 18.5t-18.5 44.5zM373 623q0 27 18 46t45 19q26 0 45 -19t19 -46q0 -26 -19 -45t-45 -19t-44.5 19t-18.5 45z" />
<glyph unicode="&#xf8;" horiz-adv-x="530" d="M6 16q0 7 12 23q6 9 54 57q-35 63 -35 154q0 112 56.5 197t123.5 85q20 0 29 -14q23 14 51 14q76 0 139 -79q66 55 74 55q12 0 19.5 -11.5t7.5 -19.5t-21 -26q-11 -8 -30 -25.5t-21 -19.5q20 -50 20 -105q0 -49 -17.5 -102t-48.5 -99t-80.5 -76t-107.5 -30 q-35 0 -63.5 11t-39.5 20t-28 26q-10 -12 -43 -45q-19 -14 -24 -14q-9 0 -18 7.5t-9 16.5zM100 274q0 -59 25 -122q26 28 117.5 117.5t144.5 138.5q-51 83 -129 73q-3 -18 -13.5 -30.5t-23.5 -12.5q-6 0 -12 6q-2 2 -5 4.5t-4.5 4t-4 3t-3.5 2.5t-3 1.5l-4 1t-5 0.5 q-24 0 -52 -54.5t-28 -132.5zM154 106q14 -16 23 -24.5t29 -17.5t44 -9q63 0 116.5 63.5t53.5 153.5q0 37 -10 82q-129 -119 -256 -248z" />
<glyph unicode="&#xf9;" d="M92 68q0 56 17 370q1 28 25.5 45t43.5 17q10 0 17.5 -5.5t7.5 -13.5q0 -4 -3 -16.5t-7.5 -25.5t-4.5 -15q-10 -49 -20 -149.5t-10 -188.5q0 -31 16 -31q4 0 15 9t26 23t27.5 27t24 25t12.5 13q122 139 122 192q0 64 -4 106t-4 50q0 18 25.5 33.5t42.5 15.5q18 0 18 -23 q0 -4 -3 -26.5t-3 -26.5q-4 -47 -4 -102q0 -97 13 -198t38 -101l17 4q6 0 11 -5t5 -10q0 -10 -17 -29.5t-36 -19.5q-39 0 -55.5 51t-30.5 175q-48 -62 -68.5 -87.5t-52.5 -59t-72 -68.5q-45 -39 -71 -39q-16 0 -27.5 6t-17.5 13.5t-9 21t-3.5 22t-0.5 21.5zM166 803 q0 22 24 22q11 0 28.5 -10t33 -21.5t47.5 -37.5q48 -37 63 -51.5t15 -26.5q0 -9 -7 -16t-16 -7t-25.5 11.5t-90.5 68.5q-17 14 -32.5 26t-21.5 16.5t-8 6.5q-10 7 -10 19z" />
<glyph unicode="&#xfa;" d="M92 68q0 56 17 370q1 28 25.5 45t43.5 17q10 0 17.5 -5.5t7.5 -13.5q0 -4 -3 -16.5t-7.5 -25.5t-4.5 -15q-10 -49 -20 -149.5t-10 -188.5q0 -31 16 -31q4 0 15 9t26 23t27.5 27t24 25t12.5 13q122 139 122 192q0 64 -4 106t-4 50q0 18 25.5 33.5t42.5 15.5q18 0 18 -23 q0 -4 -3 -26.5t-3 -26.5q-4 -47 -4 -102q0 -97 13 -198t38 -101l17 4q6 0 11 -5t5 -10q0 -10 -17 -29.5t-36 -19.5q-39 0 -55.5 51t-30.5 175q-48 -62 -68.5 -87.5t-52.5 -59t-72 -68.5q-45 -39 -71 -39q-16 0 -27.5 6t-17.5 13.5t-9 21t-3.5 22t-0.5 21.5zM240 676 q0 12 15.5 28t61.5 52q3 2 9 7q73 55 94 59l6 1q10 0 17.5 -6t7.5 -16q0 -9 -5.5 -14t-33.5 -27q-95 -73 -119 -90t-31 -17q-9 0 -15.5 7.5t-6.5 15.5z" />
<glyph unicode="&#xfb;" d="M92 68q0 56 17 370q1 28 25.5 45t43.5 17q10 0 17.5 -5.5t7.5 -13.5q0 -4 -3 -16.5t-7.5 -25.5t-4.5 -15q-10 -49 -20 -149.5t-10 -188.5q0 -31 16 -31q4 0 15 9t26 23t27.5 27t24 25t12.5 13q122 139 122 192q0 64 -4 106t-4 50q0 18 25.5 33.5t42.5 15.5q18 0 18 -23 q0 -4 -3 -26.5t-3 -26.5q-4 -47 -4 -102q0 -97 13 -198t38 -101l17 4q6 0 11 -5t5 -10q0 -10 -17 -29.5t-36 -19.5q-39 0 -55.5 51t-30.5 175q-48 -62 -68.5 -87.5t-52.5 -59t-72 -68.5q-45 -39 -71 -39q-16 0 -27.5 6t-17.5 13.5t-9 21t-3.5 22t-0.5 21.5zM160 655 q0 21 139 131l-8 15q-8 15 -8 20q0 9 19 20t24 11q4 0 7.5 -5.5t12.5 -27.5q22 -52 40.5 -80t53.5 -51q29 -19 29 -29q0 -18 -23 -18q-10 0 -28 7t-47 31t-47 60q-72 -59 -84 -71q-33 -31 -54 -31q-11 0 -18.5 5.5t-7.5 12.5z" />
<glyph unicode="&#xfc;" d="M92 68q0 56 17 370q1 28 25.5 45t43.5 17q10 0 17.5 -5.5t7.5 -13.5q0 -4 -3 -16.5t-7.5 -25.5t-4.5 -15q-10 -49 -20 -149.5t-10 -188.5q0 -31 16 -31q4 0 15 9t26 23t27.5 27t24 25t12.5 13q122 139 122 192q0 64 -4 106t-4 50q0 18 25.5 33.5t42.5 15.5q18 0 18 -23 q0 -4 -3 -26.5t-3 -26.5q-4 -47 -4 -102q0 -97 13 -198t38 -101l17 4q6 0 11 -5t5 -10q0 -10 -17 -29.5t-36 -19.5q-39 0 -55.5 51t-30.5 175q-48 -62 -68.5 -87.5t-52.5 -59t-72 -68.5q-45 -39 -71 -39q-16 0 -27.5 6t-17.5 13.5t-9 21t-3.5 22t-0.5 21.5zM225 694 q0 8 21 88q8 29 15.5 39t25.5 10q22 0 22 -24q0 -15 -26 -98q-10 -39 -33 -39q-25 0 -25 24zM336 666q0 6 6 31.5t14 54t9 34.5l2 6q2 6 2.5 7t2.5 5.5t3 5.5t3.5 4t5.5 3.5t6.5 1t8.5 0.5q23 -4 23 -24q0 -9 -14.5 -64t-16.5 -59q-6 -29 -31 -29q-10 0 -17 7t-7 16z" />
<glyph unicode="&#xfd;" d="M-59 -145q0 16 8 24t18 8t14.5 -7t14.5 -34q28 -87 121.5 -159t185.5 -72q91 0 125 92q35 91 35 227q0 187 -51 410q-20 -58 -41.5 -112.5t-54.5 -126t-68 -115t-64 -43.5q-54 0 -69 96q-6 52 -11 134.5t-6.5 134t-1.5 65.5q0 23 5 34t24 21q25 19 41 19q10 0 10 -13 q0 -32 -8 -80q-6 -88 -6 -139q0 -60 6.5 -136.5t21.5 -76.5q14 0 58.5 84.5t84.5 194t40 166.5q0 11 -1.5 22.5t-4 20.5t-5.5 17t-6 15t-5.5 11.5t-4.5 8.5l-2 3q-1 2 -9 11t-14 17.5t-6 12.5q0 9 28 25t34 16q13 0 39 -57.5t45 -127.5q65 -250 65 -469q0 -409 -231 -409 q-82 0 -167.5 53.5t-136 120.5t-50.5 113zM174 676q0 12 15.5 27.5t62.5 52.5q74 57 93 64q8 3 15 3q10 0 17.5 -6t7.5 -16q0 -9 -5.5 -14t-33.5 -27q-99 -76 -120.5 -91.5t-28.5 -15.5q-9 0 -16 7.5t-7 15.5z" />
<glyph unicode="&#xfe;" d="M78 -84q0 206 40 565t60 377q31 31 66 31q20 0 20 -15q0 -18 -35 -135q-31 -149 -65 -389q44 42 67 62t68.5 55t86.5 51.5t79 16.5q43 0 75.5 -26t32.5 -67q0 -74 -62.5 -175t-164.5 -182.5t-199 -92.5q-4 -58 -4 -139q0 -205 47 -205q3 0 19.5 8t19.5 8q15 0 15 -18 q0 -14 -22 -31.5t-46 -17.5q-32 0 -52.5 22t-30 69t-12.5 97.5t-3 130.5zM147 51q38 -8 100 29.5t118.5 96t97.5 129.5t41 124q0 51 -49 51q-91 0 -293 -209q-18 -132 -15 -221z" />
<glyph unicode="&#xff;" d="M-59 -145q0 16 8 24t18 8t14.5 -7t14.5 -34q28 -87 121.5 -159t185.5 -72q91 0 125 92q35 91 35 227q0 187 -51 410q-20 -58 -41.5 -112.5t-54.5 -126t-68 -115t-64 -43.5q-54 0 -69 96q-6 52 -11 134.5t-6.5 134t-1.5 65.5q0 23 5 34t24 21q25 19 41 19q10 0 10 -13 q0 -32 -8 -80q-6 -88 -6 -139q0 -60 6.5 -136.5t21.5 -76.5q14 0 58.5 84.5t84.5 194t40 166.5q0 11 -1.5 22.5t-4 20.5t-5.5 17t-6 15t-5.5 11.5t-4.5 8.5l-2 3q-1 2 -9 11t-14 17.5t-6 12.5q0 9 28 25t34 16q13 0 39 -57.5t45 -127.5q65 -250 65 -469q0 -409 -231 -409 q-82 0 -167.5 53.5t-136 120.5t-50.5 113zM164 694q0 11 20 88q8 29 15.5 39t25.5 10q11 0 17 -7.5t6 -16.5q0 -12 -27 -98q-10 -39 -33 -39q-24 0 -24 24zM274 666q0 6 6 31.5t14 54t9 34.5q0 1 1 3q4 11 6.5 16.5t9.5 10t18 3.5q22 -4 22 -24q0 -9 -14 -64t-16 -59 q-6 -29 -31 -29q-10 0 -17.5 7t-7.5 16z" />
<glyph unicode="&#x152;" horiz-adv-x="1630" d="M72 322q0 92 35 179t92.5 153t127.5 116t143.5 76t137.5 26t98.5 -20.5t34.5 -50.5q0 -21 -20 -35t-35 -14q-11 0 -17 5t-18 23q-36 49 -90 49q-32 0 -82 -20t-108.5 -61.5t-109 -97t-84.5 -136t-34 -168.5q0 -149 95.5 -247.5t242.5 -98.5q62 0 123.5 17.5t110 46.5 t78 50.5t53.5 43.5q111 100 129 235q-12 -5 -88 -31q-6 -3 -32.5 -12.5t-29.5 -9.5q-16 0 -16 37q0 11 6.5 16t30.5 13q37 15 121 40q-9 44 -26.5 77.5t-57.5 62.5q-86 63 -238 63q-110 0 -248 -47q-2 -1 -9.5 -3.5l-13.5 -4.5t-7 -2q-13 0 -13 14q0 11 41 31t116.5 37.5 t152.5 17.5q210 0 323 -119l27 271q4 10 33.5 22.5t37.5 12.5q7 0 7 -7q0 -2 -3.5 -24t-3.5 -25q175 82 318 82t143 -63q0 -24 -11 -43t-26 -19q-6 0 -9.5 5t-14.5 26q-6 11 -11 17t-26.5 13t-56.5 7q-139 0 -316 -90q-25 -219 -31 -295q165 41 355 41q96 0 121 -12 q16 -8 16 -29q0 -16 -11 -27.5t-22 -11.5l-47 12q-46 13 -121 13q-139 0 -293 -37q-4 -58 -4 -111q0 -108 13.5 -166t34 -74t55.5 -16q90 0 289 90q131 64 145 64q8 0 13 -6t5 -15q0 -10 -6.5 -15.5t-40.5 -25.5q-129 -71 -237 -112.5t-151 -49.5t-71 -8q-36 0 -59 21 t-34 62.5t-14.5 80t-4.5 96.5q-33 -44 -80 -87.5t-113.5 -87.5t-154.5 -71.5t-181 -27.5q-82 0 -148 23.5t-107 60.5t-69 87t-39 99t-11 99z" />
<glyph unicode="&#x153;" horiz-adv-x="872" d="M41 250q0 116 57.5 199t122.5 83q20 0 29 -14q21 14 51 14q52 0 104.5 -41t75.5 -124q31 60 73.5 96.5t74.5 46.5t63 10q46 0 66 -23t20 -48q0 -52 -50.5 -117.5t-113.5 -115t-116 -73.5q12 -96 106 -96q41 0 77.5 19.5t92.5 64.5q41 35 51 35q19 0 19 -19 q0 -16 -37.5 -51.5t-98.5 -67.5t-114 -32q-135 0 -160 123q-30 -51 -80.5 -88t-117.5 -37q-92 0 -143.5 75.5t-51.5 180.5zM104 276q0 -103 47 -162t105 -59q60 0 114 63t54 154q0 92 -46 155t-116 54q-3 -18 -13.5 -30.5t-23.5 -12.5q-6 0 -12 6q-2 2 -5 4.5t-4.5 4t-4 3 t-3.5 2.5t-3 1.5l-4 1t-5 0.5q-24 0 -52 -54.5t-28 -130.5zM489 197q98 50 160 124t62 113q0 10 -7.5 21.5t-25.5 11.5q-28 0 -62.5 -24.5t-58.5 -53.5q-27 -35 -42 -71.5t-18.5 -58t-7.5 -62.5z" />
<glyph unicode="&#x178;" horiz-adv-x="1099" d="M49 664q0 34 20 64.5t58 53.5t80.5 42t100.5 34.5t104.5 25.5t105.5 21q-8 16 -8 29t30.5 23t43.5 10q10 0 13.5 -7t4.5 -34q2 -40 6 -225t4 -199q16 -335 25 -398q0 -22 12 -22t45 59q31 48 95 182.5t106 276.5q-29 72 -37 88q-1 4 -10.5 22.5t-9.5 20.5q0 11 32 28 t41 17q11 0 18 -13.5t21 -70.5q60 -225 60 -475q0 -42 -3 -95t-21 -157t-50 -186q-73 -203 -246 -203q-113 0 -200.5 75.5t-141.5 194.5q-22 48 -41.5 129.5t-19.5 126.5q0 19 19 30t44 11q19 0 19 -18q0 -5 -3.5 -33.5t-3.5 -32.5q0 -111 48.5 -212.5t125.5 -161.5t158 -60 q50 0 90.5 26.5t66 67t45 97t29 107.5t15.5 108t7 89t1 60q0 181 -33 305q-24 -66 -82 -192.5t-108 -208.5q-29 -45 -50 -63.5t-48 -18.5q-31 0 -41.5 24t-16.5 105q-4 50 -21.5 354t-21.5 359q-76 -1 -172 -24t-169.5 -62.5t-73.5 -79.5q0 -12 6.5 -21t10.5 -10.5t13 -5.5 q17 -5 24 -10.5t7 -16.5q0 -14 -10.5 -23t-30.5 -9q-32 0 -57 23.5t-25 58.5zM682 1112q0 11 20 88q8 29 15.5 39t25.5 10q11 0 17 -7.5t6 -16.5q0 -13 -27 -99q-5 -20 -11.5 -29.5t-20.5 -9.5q-25 0 -25 25zM793 1083q0 6 6 31.5t13.5 55t8.5 34.5q0 1 1 3q4 11 6.5 16.5 t9.5 10t18 3.5q23 -4 23 -25q0 -9 -14.5 -63.5t-16.5 -58.5q-6 -29 -31 -29q-10 0 -17 6.5t-7 15.5z" />
<glyph unicode="&#x2c6;" horiz-adv-x="303" d="M41 655q0 21 139 131l-8 15q-8 15 -8 20q0 9 19 20t24 11q4 0 7.5 -5.5t12.5 -27.5q22 -51 41 -79.5t54 -51.5q28 -19 28 -29q0 -18 -22 -18q-10 0 -28.5 7t-47.5 31t-47 60q-72 -59 -84 -71q-33 -31 -53 -31q-11 0 -19 6t-8 12z" />
<glyph unicode="&#x2dc;" horiz-adv-x="303" d="M33 719q0 19 38 51.5t68 32.5h6.5t5 -0.5t5.5 -1.5t5 -1t6 -2l6 -3t7 -4.5t8 -5t10.5 -6l12.5 -7.5q69 -41 80 -41q15 0 51 29q27 24 39 24q10 0 15.5 -9t2.5 -21q-7 -20 -39.5 -48t-72.5 -28q-24 0 -41.5 8.5t-67.5 40.5q-32 16 -45 16q-18 0 -57 -34q-13 -13 -25 -13 q-9 0 -13.5 8t-4.5 15z" />
<glyph unicode="&#x2000;" horiz-adv-x="805" />
<glyph unicode="&#x2001;" horiz-adv-x="1610" />
<glyph unicode="&#x2002;" horiz-adv-x="805" />
<glyph unicode="&#x2003;" horiz-adv-x="1610" />
<glyph unicode="&#x2004;" horiz-adv-x="536" />
<glyph unicode="&#x2005;" horiz-adv-x="402" />
<glyph unicode="&#x2006;" horiz-adv-x="268" />
<glyph unicode="&#x2007;" horiz-adv-x="268" />
<glyph unicode="&#x2008;" horiz-adv-x="201" />
<glyph unicode="&#x2009;" horiz-adv-x="322" />
<glyph unicode="&#x200a;" horiz-adv-x="89" />
<glyph unicode="&#x2010;" horiz-adv-x="681" d="M80 285q-1 15 1.5 17.5t14.5 2.5q16 0 96 -2t93 -2q3 0 135 1.5t158 0.5q18 0 22 -5.5t4 -27.5q0 -19 -7 -22.5t-39 -3.5h-5q-23 0 -130 1t-180 1.5t-124 -0.5q-28 0 -33.5 6t-5.5 33z" />
<glyph unicode="&#x2011;" horiz-adv-x="681" d="M80 285q-1 15 1.5 17.5t14.5 2.5q16 0 96 -2t93 -2q3 0 135 1.5t158 0.5q18 0 22 -5.5t4 -27.5q0 -19 -7 -22.5t-39 -3.5h-5q-23 0 -130 1t-180 1.5t-124 -0.5q-28 0 -33.5 6t-5.5 33z" />
<glyph unicode="&#x2012;" horiz-adv-x="681" d="M80 285q-1 15 1.5 17.5t14.5 2.5q16 0 96 -2t93 -2q3 0 135 1.5t158 0.5q18 0 22 -5.5t4 -27.5q0 -19 -7 -22.5t-39 -3.5h-5q-23 0 -130 1t-180 1.5t-124 -0.5q-28 0 -33.5 6t-5.5 33z" />
<glyph unicode="&#x2013;" horiz-adv-x="1024" d="M0 250v53h1024v-53h-1024z" />
<glyph unicode="&#x2014;" horiz-adv-x="2048" d="M266 250v53h1516v-53h-1516z" />
<glyph unicode="&#x2018;" horiz-adv-x="378" d="M162 702q0 63 27 122t47 59q8 0 15 -6t7 -13q0 -1 -5 -18t-5 -19q-15 -51 -15 -73q0 -44 17 -84q26 -39 26 -43q0 -6 -25.5 -23.5t-31.5 -17.5q-9 0 -22 12.5t-24 40.5t-11 63z" />
<glyph unicode="&#x2019;" horiz-adv-x="378" d="M102 844q0 6 25.5 22.5t32.5 16.5q9 0 22 -12.5t24 -40.5t11 -62q0 -63 -27.5 -122.5t-48.5 -59.5q-7 0 -13.5 5.5t-6.5 12.5q0 3 4.5 19.5t5.5 17.5q14 51 14 76q0 46 -18 82q-1 3 -13 22t-12 23z" />
<glyph unicode="&#x201a;" horiz-adv-x="378" d="M123 76q0 4 25.5 21.5t31.5 17.5q9 0 22 -12.5t24.5 -41t11.5 -63.5q0 -63 -27.5 -121.5t-48.5 -58.5q-7 0 -14 5.5t-7 12.5q0 15 11 37q14 51 14 76q0 53 -19 82q-1 3 -12.5 22t-11.5 23z" />
<glyph unicode="&#x201c;" horiz-adv-x="569" d="M184 702q0 63 27.5 122t48.5 59q8 0 14.5 -6t6.5 -13q0 -2 -5 -18t-6 -19q-12 -41 -12 -73q0 -47 16 -84q1 -2 13 -21t12 -22q0 -6 -25.5 -23.5t-31.5 -17.5q-9 0 -22 12.5t-24.5 40.5t-11.5 63zM362 705q0 62 27 121t47 59q8 0 15.5 -6t7.5 -13q0 -1 -5 -18t-5 -19 q-15 -51 -15 -75q0 -42 17 -82q24 -36 24 -43q0 -6 -24.5 -23.5t-30.5 -17.5q-9 0 -22 12.5t-24.5 41t-11.5 63.5z" />
<glyph unicode="&#x201d;" horiz-adv-x="569" d="M94 844q0 6 25.5 22.5t32.5 16.5q9 0 22 -12.5t24 -40.5t11 -62q0 -63 -27.5 -122.5t-48.5 -59.5q-7 0 -13.5 5.5t-6.5 12.5q0 3 4.5 19.5t5.5 17.5q14 51 14 76q0 55 -18 82q-1 3 -13 22t-12 23zM272 846q0 5 25.5 22t32.5 17q8 0 20.5 -12.5t23.5 -41t11 -63.5 q0 -62 -27 -121t-47 -59q-8 0 -15 5.5t-7 12.5q0 2 5 18.5t5 18.5q14 41 14 76q0 50 -16 82q-1 3 -8 13t-12 19t-5 13z" />
<glyph unicode="&#x201e;" horiz-adv-x="569" d="M184 74q0 4 26 21.5t32 17.5q9 0 22 -12.5t24 -41t11 -63.5q0 -63 -27.5 -121.5t-48.5 -58.5q-7 0 -13.5 5.5t-6.5 12.5q0 3 4 18.5t6 18.5q14 51 14 76q0 55 -18 82q-1 3 -13 22t-12 23zM362 76q0 5 25.5 22t32.5 17q8 0 20.5 -12.5t23.5 -41t11 -63.5q0 -62 -27 -121 t-47 -59q-8 0 -15 5.5t-7 12.5q0 1 5 18t5 19q14 41 14 76q0 50 -16 82q-25 38 -25 45z" />
<glyph unicode="&#x2022;" horiz-adv-x="720" d="M94 526q0 111 79 189t187 78q109 0 188 -78.5t79 -188.5t-77.5 -188t-189.5 -78q-110 0 -188 78t-78 188z" />
<glyph unicode="&#x2026;" horiz-adv-x="2048" d="M285 47q0 23 17 40t40 17t40 -17t17 -40q0 -24 -16.5 -40.5t-40.5 -16.5t-40.5 16.5t-16.5 40.5zM967 47q0 23 17 40t40 17t40 -17t17 -40q0 -24 -16.5 -40.5t-40.5 -16.5t-40.5 16.5t-16.5 40.5zM1649 47q0 23 17 40t40 17t40 -17t17 -40q0 -24 -16.5 -40.5t-40.5 -16.5 t-40.5 16.5t-16.5 40.5z" />
<glyph unicode="&#x202f;" horiz-adv-x="322" />
<glyph unicode="&#x2039;" horiz-adv-x="454" d="M63 223q0 19 10.5 24.5t47.5 10.5q71 12 162 160q28 46 35.5 54.5t21.5 8.5q29 0 29 -28q0 -29 -57.5 -105.5t-127.5 -114.5q50 -12 89.5 -39.5t59.5 -57.5t30 -54t10 -37t-9 -21t-20 -8q-8 0 -13 6.5t-28 47.5q-71 116 -180 125q-47 2 -54 9q-6 6 -6 19z" />
<glyph unicode="&#x203a;" horiz-adv-x="454" d="M82 45q0 13 10 37t30 54t59 57.5t89 39.5q-70 38 -126 114t-56 106q0 28 27 28q13 0 21.5 -9.5t35.5 -53.5q91 -148 162 -160q36 -5 46.5 -10t10.5 -23q0 -19 -9.5 -24t-41.5 -6h-6q-112 -9 -180 -125q-30 -49 -35 -52q-3 -2 -8 -2q-12 0 -20.5 8.5t-8.5 20.5z" />
<glyph unicode="&#x205f;" horiz-adv-x="402" />
<glyph unicode="&#x2122;" horiz-adv-x="1441" d="M231 969v37h406v-37h-184v-465h-37v465h-185zM739 504v502h58l178 -453l180 453h57v-502h-36v461l-183 -461h-37l-180 461v-461h-37z" />
<glyph unicode="&#xe000;" horiz-adv-x="593" d="M0 0v594h594v-594h-594z" />
<glyph unicode="&#xfb01;" horiz-adv-x="720" d="M14 305q0 26 160 98q-10 272 31 396q9 31 23.5 60t46 58t69.5 29q45 0 45 -33q0 -19 -13.5 -36t-21.5 -17q-2 0 -12.5 4t-11.5 4q-8 0 -19.5 -10t-25.5 -40.5t-25 -76t-16.5 -126.5t-1.5 -183q81 36 180 54t141 18q37 0 37 -25q0 -6 -3.5 -25.5t-7.5 -40.5t-5 -24 q-13 -71 -13 -149q0 -63 6.5 -125t18.5 -76q8 -6 39 -10q20 -4 20 -17t-21 -24t-40 -11q-15 0 -25 3.5t-22.5 19t-20 44.5t-13 83t-5.5 131q0 75 10 154l2 26q0 6 -10 6q-16 0 -45 -2.5t-95.5 -19t-125.5 -43.5q8 -207 19 -341.5t36 -221.5q38 -127 90 -127q4 0 24 6t23 6 q6 0 10.5 -3.5t4.5 -8.5q0 -13 -20 -26t-46 -13q-43 0 -77 31.5t-54 76t-35 110.5t-21.5 116.5t-11.5 113.5l-12 250q-7 -3 -39.5 -21.5t-60 -33t-31.5 -14.5q-7 0 -18 9t-11 17zM520 791q0 40 62 40q18 0 18 -12q0 -7 -12 -49q-4 -23 -4 -49q0 -27 2 -39q0 -2 2 -11.5 t2 -11.5q0 -18 -31 -18q-17 0 -24.5 8t-11 39.5t-3.5 102.5z" />
<glyph unicode="&#xfb02;" horiz-adv-x="720" d="M14 305q0 15 37 37q1 1 4 2l6 4q51 29 119 62q-4 135 3 229.5t32 167.5q51 139 137 139q8 0 16 -2t17.5 -10t9.5 -21q0 -21 -13.5 -37t-21.5 -16q-2 0 -12 4t-12 4q-19 0 -40 -39t-34 -106q-17 -93 -14 -285q144 51 201 51q24 0 24 -16q0 -25 -26.5 -40t-38.5 -15 q-2 0 -12.5 4t-12.5 4q-36 0 -133 -41q14 -358 43 -514q9 -46 21 -81.5t23.5 -54t24 -29.5t20.5 -14t15 -3q3 0 22.5 6t22.5 6q15 0 15 -14q0 -11 -19 -24t-47 -13q-35 0 -65 22.5t-47.5 52t-31.5 70t-19 64.5t-9 47q-28 142 -37 448q-9 -4 -43 -23t-63.5 -35.5t-32.5 -16.5 q-9 0 -19 9t-10 17zM498 598q0 190 16 213q7 10 30 18.5t36 8.5q18 0 18 -21q0 -6 -3.5 -24.5t-7.5 -38t-5 -23.5q-19 -114 -19 -276q0 -65 3.5 -135.5t17.5 -157.5t37 -111q17 -17 53 -20q8 -2 8 -13q0 -9 -13.5 -16.5t-31.5 -7.5q-52 0 -78 49.5t-39 153.5 q-22 157 -22 401z" />
</font>
</defs>
</svg>
